<?xml version="1.0" encoding="utf-8"?>
<!-- Generator: Adobe Illustrator 23.0.1, SVG Export Plug-In . SVG Version: 6.00 Build 0)  -->
<svg version="1.1" id="Calque_1" xmlns="http://www.w3.org/2000/svg" xmlns:xlink="http://www.w3.org/1999/xlink" x="0px" y="0px"
	 viewBox="0 0 35 35" style="enable-background:new 0 0 35 35;" xml:space="preserve">
<style type="text/css">
	.st0{display:none;}
	.st1{display:inline;}
	.st2{fill:#FF2F3E;}
	.st3{fill:#FEFEFE;}
	.st4{fill:#FFFFFF;}
	.st5{fill:#007DBB;}
</style>
<g class="st0">
	<g class="st1">
		<g>
			<circle class="st2" cx="17" cy="17" r="10.5"/>
			<path class="st3" d="M24.3,13.3c-0.5,0.2-1.1,0.4-1.6,0.4c0.6-0.3,1-0.9,1.2-1.6c-0.5,0.3-1.2,0.6-1.8,0.7
				c-0.5-0.5-1.3-0.9-2.1-0.9c-1.6,0-2.8,1.3-2.8,2.8c0,0.2,0,0.4,0.1,0.6c-2.4-0.1-4.5-1.2-5.9-2.9c-0.2,0.4-0.4,0.9-0.4,1.4
				c0,1,0.5,1.8,1.3,2.3c-0.5,0-0.9-0.1-1.3-0.4l0,0c0,1.4,1,2.5,2.3,2.8c-0.2,0.1-0.5,0.1-0.7,0.1s-0.4,0-0.5,0
				c0.4,1.1,1.4,1.9,2.7,1.9c-1,0.8-2.2,1.2-3.5,1.2c-0.2,0-0.5,0-0.7,0c1.3,0.8,2.7,1.3,4.4,1.3c5.2,0,8.1-4.3,8.1-8
				c0-0.1,0-0.2,0-0.4C23.4,14.3,23.9,13.8,24.3,13.3z"/>
		</g>
	</g>
</g>
<g class="st0">
	<g class="st1">
		<circle class="st2" cx="17" cy="17" r="10.5"/>
		<path class="st4" d="M20.6,9.9c0,0-1.3,0-2.2,0c-1.3,0-2.8,0.6-2.8,2.7c0,0.7,0,1.4,0,2.2H14v2.6h1.6V25h2.9v-7.7h1.9l0.2-2.6
			h-2.1c0,0,0-1.2,0-1.5c0-0.8,0.8-0.8,0.8-0.8c0.4,0,1.1,0,1.3,0L20.6,9.9L20.6,9.9L20.6,9.9z"/>
	</g>
</g>
<g id="Calque_3">
	<circle class="st5" cx="17" cy="17" r="10.5"/>
	<g>
		<g>
			<path class="st4" d="M12.9,10.3c-0.8,0-1.3,0.5-1.3,1.2s0.5,1.2,1.3,1.2s1.3-0.5,1.3-1.2C14.2,10.9,13.7,10.3,12.9,10.3z
				 M11.7,22h2.4v-8.3h-2.4C11.7,13.7,11.7,22,11.7,22z M20.7,13.8c-0.8,0-1.6-0.2-2.4,1.2l0,0v-1.3H16c0,0.7,0,1.7,0,2.7V22h2.4
				v-4.8c0-0.2,0-0.4,0.1-0.6c0.2-0.4,0.6-0.9,1.2-0.9c0.9,0,1.2,0.7,1.2,1.7V22h2.4v-4.9C23.5,14.8,22.3,13.8,20.7,13.8z"/>
		</g>
	</g>
</g>
<g id="Calque_4" class="st0">
	<g class="st1">
		<g>
			<circle class="st2" cx="17" cy="17" r="10.5"/>
		</g>
		<g>
			<g>
				<path class="st4" d="M13.6,23.7c-0.8,0-1.5-0.3-2.1-0.9l-0.1-0.1c-0.6-0.6-0.9-1.3-0.9-2.1c0-0.8,0.3-1.6,0.9-2.1l2.2-2.2
					l0.9,0.9l-2.2,2.2c-0.3,0.3-0.5,0.8-0.5,1.2c0,0.5,0.2,0.9,0.5,1.2l0.1,0.1c0.7,0.7,1.8,0.7,2.5,0l3.4-3.4
					c0.1-0.1,0.2-0.3,0.2-0.5s-0.1-0.3-0.2-0.5L17,16.4l0.9-0.9l1.2,1.2c0.7,0.7,0.7,1.9,0,2.7l-3.4,3.4
					C15.1,23.4,14.4,23.7,13.6,23.7z"/>
			</g>
			<g>
				<path class="st4" d="M16.2,18.5l-0.7-0.7c-1-1-1-2.7,0-3.8l2.8-2.8c1.1-1.1,3.1-1.1,4.2,0l0.1,0.1c0.6,0.6,0.9,1.3,0.9,2.1
					s-0.3,1.6-0.9,2.1l-2.2,2.2l-0.9-0.9l2.2-2.2c0.3-0.3,0.5-0.8,0.5-1.2c0-0.5-0.2-0.9-0.5-1.2l-0.1-0.1c-0.7-0.7-1.8-0.7-2.5,0
					l-2.8,2.8c-0.6,0.6-0.6,1.5,0,2l0.7,0.7L16.2,18.5z"/>
			</g>
		</g>
	</g>
</g>
<g id="sU0hbw.tif">
	
		<image style="overflow:visible;" width="339" height="323" id="Layer_0_1_" xlink:href="3751392A93204ECE.png"  transform="matrix(1 0 0 1 321 -133)">
	</image>
</g>
</svg>
