<?xml version="1.0" encoding="utf-8"?>
<!-- Generator: Adobe Illustrator 23.0.1, SVG Export Plug-In . SVG Version: 6.00 Build 0)  -->
<svg version="1.1" xmlns="http://www.w3.org/2000/svg" xmlns:xlink="http://www.w3.org/1999/xlink" x="0px" y="0px"
	 viewBox="0 0 20 20" style="enable-background:new 0 0 20 20;" xml:space="preserve">
<style type="text/css">
	.st0{display:none;}
	.st1{display:inline;}
	.st2{fill:none;stroke:#999999;stroke-width:0.75;stroke-linecap:round;stroke-linejoin:round;stroke-miterlimit:10;}
	.st3{fill:none;stroke:#999999;stroke-width:0.75;stroke-miterlimit:10;}
	.st4{fill:none;stroke:#999999;stroke-width:0.7207;stroke-linecap:round;stroke-linejoin:round;stroke-miterlimit:10;}
</style>
<g id="Calque_1" class="st0">
	<g class="st1">
		<path class="st2" d="M15.1,17.5c-1.4,1-3.2,1.6-5.1,1.6c-5,0-9-4-9-9c0-0.9,0.1-1.8,0.4-2.6"/>
		<path class="st2" d="M18.7,12.2c-0.5,2.2-1.9,4-3.7,5.2"/>
		<path class="st2" d="M5.3,2.4C6.6,1.5,8.3,1,10,1c5,0,9,4,9,9c0,0.8-0.1,1.5-0.3,2.2"/>
		<path class="st2" d="M1.9,4.5l1-2.9C3,1.1,3.6,1,4,1.4l1.2,1.2l1,0.9c0.3,0.3,0.2,0.9-0.2,1l-3.2,1C2.2,5.6,1.7,5.1,1.9,4.5z"/>
		<path class="st2" d="M9.5,12.9l4.6-4.6c0.4-0.4,0.4-1,0-1.3l0,0c-0.4-0.3-0.9-0.3-1.3,0l-3.9,3.8c-0.1,0.1-0.3,0.1-0.5,0L7.1,9.5
			c-0.4-0.4-1-0.3-1.3,0l0,0c-0.3,0.4-0.3,0.9,0,1.3l2.2,2.1C8.5,13.3,9.1,13.3,9.5,12.9z"/>
	</g>
</g>
<g id="Calque_2" class="st0">
	<g class="st1">
		<path class="st3" d="M9.5,12.8l4.4-4.4c0.3-0.3,0.3-0.9,0-1.3l0,0c-0.3-0.3-0.9-0.3-1.2,0l-3.7,3.6c-0.1,0.1-0.3,0.1-0.4,0
			L7.2,9.6C6.9,9.3,6.3,9.3,6,9.7l0,0c-0.3,0.3-0.3,0.9,0,1.2l2.1,2C8.5,13.2,9.1,13.2,9.5,12.8z"/>
		<path class="st3" d="M18.2,10c0,3-1.6,5.6-3.9,7.1c-1.3,0.8-2.8,1.2-4.3,1.2c-4.6,0-8.3-3.7-8.3-8.3s3.7-8.3,8.3-8.3
			S18.2,5.5,18.2,10z"/>
		<path class="st3" d="M17,14.4l1.7,1.7c0.7,0.7,0.7,1.9-0.1,2.6l-0.1,0c-0.7,0.6-1.8,0.6-2.5,0l-1.8-1.6"/>
	</g>
</g>
<g id="Calque_3" class="st0">
	<g class="st1">
		<path class="st4" d="M14.3,2.2h1.1c0.6,0,1,0.5,1,1v14.4c0,0.6-0.5,1-1,1H4.6c-0.6,0-1-0.5-1-1V5.7c0-0.1,0-0.1,0.1-0.2l3.2-3.2
			c0.1-0.1,0.2-0.1,0.3-0.1h2.4"/>
		<path class="st4" d="M11.1,1.3h3.1c0,0,0.1,0,0.1,0.1v5.2c0,0.1-0.1,0.1-0.1,0.1l-1.4-1.3c0,0-0.1,0-0.1,0l-1.4,1.3
			c-0.1,0-0.1,0-0.1-0.1L11.1,1.3C11,1.3,11,1.3,11.1,1.3z"/>
		<path class="st4" d="M5.2,6h1.9c0.2,0,0.3-0.2,0.3-0.3V3.8"/>
		<line class="st4" x1="6.3" y1="10.7" x2="13.6" y2="10.7"/>
		<line class="st4" x1="6.3" y1="13" x2="13.6" y2="13"/>
		<line class="st4" x1="6.3" y1="15.4" x2="13.6" y2="15.4"/>
	</g>
</g>
<g id="Calque_4" class="st0">
	<g class="st1">
		<g>
			<path class="st3" d="M12.4,11.9c1-0.7,1.6-1.9,1.6-3.3c0-2.3-1.8-4.1-4.1-4.1S5.8,6.4,5.8,8.7c0,1.4,0.7,2.6,1.7,3.3"/>
			<path class="st3" d="M15.7,16.6c-0.2-2-1.5-3.9-3.3-4.7c-0.7,0.5-1.5,0.8-2.5,0.8c-0.9,0-1.7-0.3-2.4-0.8c-1.7,0.8-3,2.7-3.2,4.5
				"/>
		</g>
		<circle class="st3" cx="10" cy="10" r="8.8"/>
	</g>
</g>
<g id="Calque_5">
	<path class="st2" d="M13.6,4.7c2.3,1.3,3.9,3.7,3.9,6.6c0,4.1-3.4,7.5-7.5,7.5s-7.5-3.4-7.5-7.5C2.5,8.4,4,6,6.3,4.7"/>
	<line class="st2" x1="12.5" y1="2.9" x2="10" y2="1.2"/>
	<polyline class="st2" points="10,2.9 10,1.2 7.5,2.9 	"/>
	<line class="st2" x1="10" y1="12.1" x2="10" y2="2.9"/>
</g>
</svg>
