<svg id="Calque_1" data-name="Calque 1" xmlns="http://www.w3.org/2000/svg" viewBox="0 0 244.51 142.48"><defs><style>.cls-1{fill:none;stroke:#fff;stroke-linecap:round;stroke-linejoin:round;stroke-width:3px;}</style></defs><title>about3</title><path class="cls-1" d="M61.44,36.09a5.78,5.78,0,0,0-5.77-5.76h0a5.77,5.77,0,0,0-5.76,5.76V73" transform="translate(-2.16 -20.9)"/><path class="cls-1" d="M61.44,58.43V28.16A5.77,5.77,0,0,1,67.2,22.4h0A5.78,5.78,0,0,1,73,28.16V58.43" transform="translate(-2.16 -20.9)"/><path class="cls-1" d="M73,36.09a5.77,5.77,0,0,1,5.76-5.76h0a5.77,5.77,0,0,1,5.76,5.76V44" transform="translate(-2.16 -20.9)"/><path class="cls-1" d="M84.49,64.19V44a5.79,5.79,0,0,1,5.77-5.77h0A5.78,5.78,0,0,1,96,44V95.89l-5.76,5L91.7,160" transform="translate(-2.16 -20.9)"/><path class="cls-1" d="M52.79,157.86l2.88-57.64C53.51,97.33,35.5,78.6,35.5,78.6L29,69.19a5.77,5.77,0,0,1,.34-8.14h0a5.78,5.78,0,0,1,8.15.35l7.43,10s15.85,3.6,18,13.68" transform="translate(-2.16 -20.9)"/><path class="cls-1" d="M127.5,68.09A4.08,4.08,0,0,1,131.57,64h0a4.08,4.08,0,0,1,4.07,4.07V94.17" transform="translate(-2.16 -20.9)"/><path class="cls-1" d="M127.5,83.86V62.49a4.08,4.08,0,0,0-4.07-4.06h0a4.08,4.08,0,0,0-4.07,4.06V83.86" transform="translate(-2.16 -20.9)"/><path class="cls-1" d="M119.36,68.09A4.08,4.08,0,0,0,115.29,64h0a4.08,4.08,0,0,0-4.06,4.07v5.59" transform="translate(-2.16 -20.9)"/><path class="cls-1" d="M111.23,87.92V73.68a4.09,4.09,0,0,0-4.07-4.07h0a4.09,4.09,0,0,0-4.07,4.07V110.3l4.07,3.56-1,46" transform="translate(-2.16 -20.9)"/><path class="cls-1" d="M133.6,158.36l-2-45c1.52-2,14.24-15.25,14.24-15.25l4.63-6.65a4.07,4.07,0,0,0-.25-5.74h0a4.07,4.07,0,0,0-5.75.24L139.2,93s-11.19,2.54-12.72,9.66" transform="translate(-2.16 -20.9)"/><path class="cls-1" d="M218.31,52.67a4.57,4.57,0,0,1,4.55-4.56h0a4.56,4.56,0,0,1,4.55,4.56V81.85" transform="translate(-2.16 -20.9)"/><path class="cls-1" d="M218.31,70.31V46.41a4.57,4.57,0,0,0-4.55-4.56h0a4.57,4.57,0,0,0-4.56,4.56v23.9" transform="translate(-2.16 -20.9)"/><path class="cls-1" d="M209.2,52.67a4.57,4.57,0,0,0-4.55-4.56h0a4.57,4.57,0,0,0-4.55,4.56v6.26" transform="translate(-2.16 -20.9)"/><path class="cls-1" d="M200.1,74.86V58.93a4.56,4.56,0,0,0-4.56-4.55h0A4.56,4.56,0,0,0,191,58.93v41l4.55,4-1.13,58" transform="translate(-2.16 -20.9)"/><path class="cls-1" d="M225.14,160.17l-2.28-56.85c1.71-2.28,15.94-17.07,15.94-17.07L244,78.82a4.57,4.57,0,0,0-.27-6.44h0a4.56,4.56,0,0,0-6.43.28l-5.87,7.9s-12.52,2.84-14.23,10.81" transform="translate(-2.16 -20.9)"/><path class="cls-1" d="M161.34,100.23a3.66,3.66,0,0,0-3.65-3.65h0a3.66,3.66,0,0,0-3.64,3.65v23.36" transform="translate(-2.16 -20.9)"/><path class="cls-1" d="M161.34,114.35V95.21A3.65,3.65,0,0,1,165,91.57h0a3.66,3.66,0,0,1,3.65,3.64v19.14" transform="translate(-2.16 -20.9)"/><path class="cls-1" d="M168.63,100.23a3.66,3.66,0,0,1,3.64-3.65h0a3.66,3.66,0,0,1,3.64,3.65v5" transform="translate(-2.16 -20.9)"/><path class="cls-1" d="M175.91,118V105.24a3.66,3.66,0,0,1,3.65-3.65h0a3.66,3.66,0,0,1,3.64,3.65V138l-3.64,3.19,1.84,18.43" transform="translate(-2.16 -20.9)"/><path class="cls-1" d="M156.19,159.66l1.5-18.89c-1.37-1.82-12.76-13.66-12.76-13.66l-4.14-6A3.65,3.65,0,0,1,141,116h0a3.65,3.65,0,0,1,5.15.22l4.7,6.32s10,2.28,11.39,8.66" transform="translate(-2.16 -20.9)"/><path class="cls-1" d="M24.09,101.75a3.48,3.48,0,0,0-3.47-3.47h0a3.48,3.48,0,0,0-3.46,3.47v22.19" transform="translate(-2.16 -20.9)"/><path class="cls-1" d="M24.09,115.17V97a3.48,3.48,0,0,1,3.46-3.47h0A3.47,3.47,0,0,1,31,97v18.18" transform="translate(-2.16 -20.9)"/><path class="cls-1" d="M31,101.75a3.48,3.48,0,0,1,3.47-3.47h0a3.48,3.48,0,0,1,3.46,3.47v4.76" transform="translate(-2.16 -20.9)"/><path class="cls-1" d="M37.94,118.63V106.51a3.47,3.47,0,0,1,3.46-3.46h0a3.47,3.47,0,0,1,3.47,3.46v31.17l-3.47,3,1.76,17.51" transform="translate(-2.16 -20.9)"/><path class="cls-1" d="M19.19,158.22l1.43-17.95c-1.29-1.73-12.12-13-12.12-13l-3.93-5.66a3.47,3.47,0,0,1,.2-4.89h0a3.48,3.48,0,0,1,4.9.21l4.46,6s9.52,2.16,10.82,8.22" transform="translate(-2.16 -20.9)"/></svg>