<?xml version="1.0" encoding="utf-8"?>
<!-- Generator: Adobe Illustrator 23.0.1, SVG Export Plug-In . SVG Version: 6.00 Build 0)  -->
<svg version="1.1" id="Calque_1" xmlns="http://www.w3.org/2000/svg" xmlns:xlink="http://www.w3.org/1999/xlink" x="0px" y="0px"
	 viewBox="0 0 147 168" style="enable-background:new 0 0 147 168;" xml:space="preserve">
<style type="text/css">
	.st0{fill:none;stroke:#FFFFFF;stroke-width:3;stroke-miterlimit:10;}
	.st1{fill:none;stroke:#FFFFFF;stroke-width:3;stroke-linecap:round;stroke-linejoin:round;stroke-miterlimit:10;}
</style>
<g>
	<path class="st0" d="M73.4,60.6c2.1-1.6,3.5-4.1,3.5-7c0-4.8-3.9-8.8-8.8-8.8c-4.8,0-8.8,3.9-8.8,8.8c0,2.9,1.4,5.5,3.7,7.1"/>
	<path class="st0" d="M80.5,71.7c0-4.5-2.9-9.3-7.2-11c-1.5,1.1-3.3,1.8-5.3,1.8c-1.9,0-3.7-0.6-5.1-1.7c-4.1,1.8-6.9,6.5-6.9,10.9"
		/>
</g>
<path class="st1" d="M50.6,33.5h45.7c4.9,0,8.9,4,8.9,8.9v73.7"/>
<path class="st1" d="M93.8,153.3H39.3c-4.9,0-8.9-4-8.9-8.9V64.6"/>
<rect x="39.2" y="84.4" class="st0" width="57.8" height="11.5"/>
<rect x="39.2" y="104.1" class="st0" width="57.8" height="11.5"/>
<polyline class="st0" points="89.3,135.3 39.2,135.3 39.2,123.8 93.8,123.8 "/>
<path class="st0" d="M92.3,123.8"/>
<path class="st1" d="M89,135.3c1.7-11.3,11.4-19.9,23.2-19.9c13,0,23.5,10.5,23.5,23.5c0,8.5-4.5,15.9-11.2,20
	c-3.6,2.2-7.8,3.5-12.3,3.5c-13,0-23.5-10.5-23.5-23.5C88.7,137.6,88.8,136.5,89,135.3"/>
<path class="st1" d="M132.1,151.3l4.7,4.8c2,2.1,2,5.4-0.2,7.4l-0.1,0.1c-2,1.8-5,1.8-7,0l-5-4.6"/>
<path class="st1" d="M94.8,138.5c0-0.9,0.1-1.7,0.2-2.6"/>
<path class="st1" d="M95,135.9c1.2-8.2,8.3-14.5,16.8-14.5c9.4,0,17,7.6,17,17"/>
<g>
	<circle class="st1" cx="30.2" cy="42.4" r="22.2"/>
	<path class="st1" d="M15.8,25v-8.2c0-7.8,6.3-14.2,14.2-14.2h0.3c7.8,0,14.2,6.3,14.2,14.2V25"/>
	<path class="st1" d="M22.9,20.8V16c0-3.9,3.1-7,7-7H30c3.9,0,7,3.1,7,7v4.8"/>
</g>
<path class="st1" d="M35.3,40.1c0-2.7-2.2-4.9-4.9-4.9s-4.9,2.2-4.9,4.9c0,1.9,1.1,3.6,2.7,4.4h0.1v7.1h4.4v-7.1h0.1
	C34.2,43.7,35.3,42,35.3,40.1z"/>
<line class="st1" x1="44.9" y1="90.2" x2="80.8" y2="90.2"/>
<line class="st1" x1="44.9" y1="110" x2="80.8" y2="110"/>
<line class="st1" x1="44.9" y1="129.9" x2="80.8" y2="129.9"/>
</svg>
