<?xml version="1.0" encoding="utf-8"?>
<!-- Generator: Adobe Illustrator 23.0.1, SVG Export Plug-In . SVG Version: 6.00 Build 0)  -->
<svg version="1.1" id="Calque_1" xmlns="http://www.w3.org/2000/svg" xmlns:xlink="http://www.w3.org/1999/xlink" x="0px" y="0px"
	 viewBox="0 0 69 66" style="enable-background:new 0 0 69 66;" xml:space="preserve">
<style type="text/css">
	.st0{fill:none;stroke:#FFFFFF;stroke-width:2;stroke-linecap:round;stroke-linejoin:round;stroke-miterlimit:10;}
</style>
<g>
	<path class="st0" d="M26.9,43.5c5.6,2.1,12.1,3.3,12.1,3.3l0.5,0.1c2.4,0.3,4.7-1.4,4.8-3.8c0.1-1.2-0.4-2.2-1.6-2.9l-15.3-7.6
		c-1.9-1-4.1-1.3-6.2-0.8L11.7,34v20.7h5.1l17,2.3c3.5,0.5,7.2-0.1,10.3-1.8l17.2-8.9c1.6-0.8,2.4-2.7,1.7-4.4l0,0
		c-0.7-1.8-2.6-2.7-4.4-2l-15.2,5.4"/>
	<circle class="st0" cx="44.8" cy="26.7" r="7.4"/>
	<circle class="st0" cx="56.5" cy="12.8" r="5.1"/>
	<path class="st0" d="M8.2,58.8L8.2,58.8c-1.9,0-3.5-1.6-3.5-3.5V31.2c0-1.9,1.6-3.5,3.5-3.5l0,0c1.9,0,3.5,1.6,3.5,3.5v24.1
		C11.7,57.2,10.1,58.8,8.2,58.8z"/>
</g>
</svg>
