<svg id="Calque_1" data-name="Calque 1" xmlns="http://www.w3.org/2000/svg" viewBox="0 0 42.9 55.38"><defs><style>.cls-1{fill:none;stroke:#fff;stroke-linecap:round;stroke-linejoin:round;stroke-width:2px;}</style></defs><title>independant</title><path class="cls-1" d="M17.82,60.47v-10a1.74,1.74,0,0,0-.46-1.17L8.69,39.82a4.34,4.34,0,0,1-1.14-2.93V26.6a6.08,6.08,0,0,1,6.23-6.07L30.53,21a1.82,1.82,0,0,1,1.68,1.92c0,3-2.72,7.78-14.1,6.42,0,0,13.09,6,14.84,13.28" transform="translate(-6.55 -6.09)"/><path class="cls-1" d="M9.57,21.75V10.69A3.54,3.54,0,0,1,13,7.09h3.74a3.53,3.53,0,0,1,3.47,3.6v9.8" transform="translate(-6.55 -6.09)"/><path class="cls-1" d="M20.25,20.46V11.74A3.35,3.35,0,0,1,23.5,8.31h3.15a3.35,3.35,0,0,1,3.25,3.43v9" transform="translate(-6.55 -6.09)"/><path class="cls-1" d="M30.27,27.36a3.25,3.25,0,0,0,2.88,1.84h3.52a3.34,3.34,0,0,0,3.25-3.43V13.47A3.34,3.34,0,0,0,36.67,10H33.15a3.34,3.34,0,0,0-3.25,3.43v6.27" transform="translate(-6.55 -6.09)"/><path class="cls-1" d="M40,16.5a2.89,2.89,0,0,1,2.74-3h3a2.89,2.89,0,0,1,2.75,3V27.26a2.88,2.88,0,0,1-2.75,3h-3a2.73,2.73,0,0,1-2.43-1.6A9.44,9.44,0,0,1,40,27V16.5Z" transform="translate(-6.55 -6.09)"/><path class="cls-1" d="M48.45,29.2v9.73a4.34,4.34,0,0,1-1,2.78L42.7,47.39a3.47,3.47,0,0,0-.81,2.22V60.47" transform="translate(-6.55 -6.09)"/></svg>