<?xml version="1.0" encoding="utf-8"?>
<!-- Generator: Adobe Illustrator 23.0.1, SVG Export Plug-In . SVG Version: 6.00 Build 0)  -->
<svg version="1.1" id="Calque_1" xmlns="http://www.w3.org/2000/svg" xmlns:xlink="http://www.w3.org/1999/xlink" x="0px" y="0px"
	 viewBox="0 0 96 96" style="enable-background:new 0 0 96 96;" xml:space="preserve">
<style type="text/css">
	.st0{fill:#FF0000;}
	.st1{fill:#FFFFFF;}
</style>
<g>
	<path class="st0" d="M47.9,94.6c-26,0-47-21-47-47s21-47,47-47s47,21,47,47S73.8,94.6,47.9,94.6"/>
	<g>
		<g>
			<path class="st1" d="M28.5,25.6l-2.1,1.7c-0.7-0.9-1.3-1.4-1.7-1.8c-0.7-0.5-1.4-0.7-2.3-0.7c-3,0-4.6,2.2-4.6,6.5
				c0,4.3,1.5,6.5,4.6,6.5c0.9,0,1.6-0.2,2.3-0.7c0.4-0.3,1-0.9,1.7-1.7l2.1,1.7c-1,1.2-1.9,2-2.6,2.4c-1,0.6-2.2,0.9-3.5,0.9
				c-2.5,0-4.4-0.9-5.6-2.8c-1.1-1.6-1.6-3.7-1.6-6.3c0-2.6,0.5-4.7,1.6-6.3c1.3-1.9,3.2-2.8,5.6-2.8c1.3,0,2.5,0.3,3.5,0.9
				C26.6,23.6,27.5,24.5,28.5,25.6z"/>
			<path class="st1" d="M34.5,23.4c0,0.4-0.2,0.8-0.5,1.1c-0.3,0.3-0.7,0.5-1.1,0.5c-0.4,0-0.8-0.2-1.1-0.5
				c-0.3-0.3-0.5-0.7-0.5-1.1c0-0.4,0.2-0.8,0.5-1.1c0.3-0.3,0.7-0.5,1.1-0.5c0.4,0,0.8,0.2,1.1,0.5C34.4,22.6,34.5,23,34.5,23.4z
				 M34.3,40.2h-2.6V27.6h2.6V40.2z"/>
			<path class="st1" d="M48.6,27.6l-4.8,12.6h-2.2l-4.8-12.6h2.8l3.1,8.3l3.1-8.3H48.6z"/>
			<path class="st1" d="M54,23.4c0,0.4-0.2,0.8-0.5,1.1c-0.3,0.3-0.7,0.5-1.1,0.5c-0.4,0-0.8-0.2-1.1-0.5c-0.3-0.3-0.5-0.7-0.5-1.1
				c0-0.4,0.2-0.8,0.5-1.1c0.3-0.3,0.7-0.5,1.1-0.5c0.4,0,0.8,0.2,1.1,0.5C53.8,22.6,54,23,54,23.4z M53.7,40.2h-2.6V27.6h2.6V40.2z
				"/>
			<path class="st1" d="M67.4,38c-0.9,0.9-1.7,1.6-2.4,1.9c-0.7,0.3-1.5,0.5-2.4,0.5c-1.8,0-3.2-0.6-4.2-1.8c-1-1.2-1.5-2.7-1.5-4.6
				c0-1.9,0.5-3.5,1.5-4.7c1-1.2,2.4-1.8,4.2-1.8c0.9,0,1.7,0.2,2.4,0.5c0.7,0.3,1.5,1,2.4,1.9l-1.9,1.7c-0.6-0.6-1-1-1.3-1.2
				c-0.5-0.3-1-0.5-1.6-0.5c-1.1,0-1.9,0.4-2.4,1.1c-0.4,0.6-0.7,1.6-0.7,2.9c0,1.3,0.2,2.3,0.7,2.9c0.5,0.8,1.3,1.1,2.4,1.1
				c0.6,0,1.1-0.2,1.6-0.5c0.3-0.2,0.7-0.6,1.3-1.2L67.4,38z"/>
		</g>
		<g>
			<path class="st1" d="M29.1,51.1c0,1.8-0.6,3.1-1.7,4c-1.1,0.8-2.5,1.2-4.3,1.2h-4.2v7.3h-2.7V46h6.8c1.9,0,3.3,0.4,4.4,1.2
				C28.5,48,29.1,49.3,29.1,51.1z M26.4,51.1c0-1-0.3-1.7-1-2.1c-0.5-0.3-1.3-0.4-2.4-0.4h-4.1v5.4h4.1C25.2,53.9,26.4,53,26.4,51.1
				z"/>
			<path class="st1" d="M41.3,57.5c0,1.8-0.3,3.2-0.9,4.2c-0.9,1.5-2.5,2.2-4.5,2.2c-2.1,0-3.6-0.7-4.6-2.2c-0.6-1-0.9-2.3-0.9-4.1
				c0-1.8,0.3-3.2,0.9-4.1c0.9-1.5,2.5-2.3,4.6-2.3c2.1,0,3.6,0.8,4.5,2.3C41,54.3,41.3,55.7,41.3,57.5z M38.7,57.5
				c0-1.4-0.2-2.3-0.5-2.8c-0.4-0.7-1.2-1-2.3-1c-1.1,0-1.9,0.3-2.3,1c-0.3,0.5-0.5,1.5-0.5,2.8c0,1.3,0.2,2.3,0.5,2.8
				c0.4,0.7,1.2,1.1,2.3,1.1c1.1,0,1.9-0.4,2.3-1.1C38.5,59.8,38.7,58.9,38.7,57.5z"/>
			<path class="st1" d="M73.2,58.5h-7.9c0.1,0.8,0.2,1.4,0.5,1.8c0.5,0.8,1.4,1.1,2.6,1.1c1,0,1.9-0.4,2.6-1.2l2.1,1.6
				c-1.3,1.4-2.9,2.1-4.7,2.1c-2.2,0-3.8-0.8-4.8-2.3c-0.6-1-1-2.3-1-4.1c0-1.8,0.3-3.2,1-4.1c1-1.5,2.5-2.2,4.5-2.2
				c1.8,0,3.3,0.7,4.2,2.2c0.4,0.6,0.7,1.4,0.7,2.5C73.2,56.2,73.2,57.1,73.2,58.5z M70.6,56c-0.1-0.6-0.2-1-0.3-1.2
				c-0.5-0.7-1.2-1.1-2.1-1.1c-1.6,0-2.5,0.8-2.8,2.3H70.6z"/>
			<path class="st1" d="M83.7,51.8l-1.1,2.3c-0.6-0.3-1.2-0.5-1.7-0.5c-0.6,0-1.1,0.2-1.6,0.5c-0.5,0.3-0.8,0.8-0.8,1.3v8.3H76V51.3
				h2.5v0.4c0.7-0.3,1.5-0.5,2.4-0.5C81.8,51.1,82.7,51.4,83.7,51.8z"/>
			<g>
				<polygon class="st1" points="50.3,52.1 47.8,59.1 45.2,51.1 42.4,51.1 46.5,63.7 48.8,63.7 51.7,56 				"/>
				<polygon class="st1" points="51.8,55.8 54.8,63.7 57.1,63.7 63.7,43.1 60.9,43.1 55.9,59.1 53,51.1 50.7,51.1 50.3,52.1 
					51.7,56 				"/>
			</g>
		</g>
		<polygon class="st1" points="66.9,26.5 69.4,18.7 72.2,18.7 69.7,26.5 		"/>
	</g>
</g>
</svg>
