<?xml version="1.0" encoding="utf-8"?>
<!-- Generator: Adobe Illustrator 23.0.1, SVG Export Plug-In . SVG Version: 6.00 Build 0)  -->
<svg version="1.1" id="Calque_1" xmlns="http://www.w3.org/2000/svg" xmlns:xlink="http://www.w3.org/1999/xlink" x="0px" y="0px"
	 viewBox="0 0 275 166" style="enable-background:new 0 0 275 166;" xml:space="preserve">
<style type="text/css">
	.st0{fill:none;stroke:#FFFFFF;stroke-width:3;stroke-miterlimit:10;}
	.st1{fill:#1753FF;}
	.st2{fill:#FFFFFF;}
	.st3{fill:#FF1742;}
	.st4{fill:none;stroke:#FFFFFF;stroke-width:3;stroke-linecap:round;stroke-linejoin:round;stroke-miterlimit:10;}
	.st5{fill:none;stroke:#FFFFFF;stroke-width:3;stroke-linecap:round;stroke-miterlimit:10;}
</style>
<g>
	<line class="st0" x1="76.8" y1="58.8" x2="76.8" y2="38"/>
	<rect x="76.8" y="37.1" class="st0" width="18.7" height="11.2"/>
	<g>
		<rect x="77.5" y="37.3" class="st1" width="5.7" height="10.4"/>
		<rect x="83.2" y="37.3" class="st2" width="5.7" height="10.4"/>
		<rect x="88.9" y="37.3" class="st3" width="5.7" height="10.4"/>
	</g>
	<polygon class="st4" points="123,153.5 11.9,153.5 11.9,74 48.4,74 67.4,46.6 87.2,74.3 123,74.3 123,114.3 	"/>
	<line class="st0" x1="11.9" y1="113.5" x2="123" y2="113.5"/>
	<line class="st4" x1="48.4" y1="74" x2="48.4" y2="153.5"/>
	<line class="st4" x1="87.2" y1="74.3" x2="87.2" y2="153.5"/>
	<rect x="60.2" y="74.3" class="st4" width="14.5" height="19.8"/>
	<rect x="22.9" y="125.7" class="st4" width="15.6" height="15.6"/>
	<rect x="97.1" y="125.7" class="st4" width="15.6" height="15.6"/>
	<rect x="60.2" y="125.7" class="st4" width="14.5" height="27.8"/>
	<rect x="25.6" y="81.2" class="st2" width="2.7" height="9.5"/>
	<rect x="33.4" y="81.2" class="st2" width="2.7" height="9.5"/>
	<rect x="25.6" y="97.4" class="st2" width="2.7" height="9.5"/>
	<rect x="33.4" y="97.4" class="st2" width="2.7" height="9.5"/>
	<rect x="99.7" y="81.3" class="st2" width="2.7" height="9.5"/>
	<rect x="107.5" y="81.3" class="st2" width="2.7" height="9.5"/>
	<rect x="99.7" y="97.5" class="st2" width="2.7" height="9.5"/>
	<rect x="107.5" y="97.5" class="st2" width="2.7" height="9.5"/>
</g>
<g>
	<rect x="132.7" y="14.2" class="st5" width="67.3" height="115.2"/>
	<rect x="144.5" y="24.8" class="st0" width="15.4" height="15.4"/>
	<rect x="171.1" y="24.8" class="st0" width="15.4" height="15.4"/>
	<rect x="144.5" y="50.1" class="st0" width="15.4" height="15.4"/>
	<rect x="144.6" y="75.4" class="st0" width="15.4" height="15.4"/>
	<rect x="171.1" y="75.4" class="st0" width="15.4" height="15.4"/>
	<rect x="171.1" y="50.1" class="st0" width="15.4" height="15.4"/>
	<rect x="148.7" y="101.5" class="st0" width="16.8" height="28"/>
	<rect x="166.6" y="101.5" class="st0" width="16.8" height="28"/>
</g>
<g>
	<rect x="217.5" y="85.7" class="st4" width="15.4" height="15.4"/>
	<rect x="240.5" y="85.7" class="st4" width="15.4" height="15.4"/>
	<polygon class="st4" points="264.5,142.5 208.5,142.5 208.5,70.5 236.5,35.5 264.5,70.5 	"/>
	<path class="st4" d="M236.2,77.1c3.3-2.7,6.8-6,6.8-6c3.6-3.8,1.1-7.1,1.1-7.1c-3.3-4.4-7.9,0-7.9,0h0c0,0-4.7-4.4-7.9,0
		c0,0-2.5,3.3,1.1,7.1C229.4,71.1,233,74.4,236.2,77.1"/>
	<rect x="217.5" y="112.5" class="st4" width="38" height="29"/>
</g>
</svg>
