<svg id="Calque_1" data-name="Calque 1" xmlns="http://www.w3.org/2000/svg" viewBox="0 0 43.15 59.36"><defs><style>.cls-1{fill:none;stroke:#fff;stroke-linecap:round;stroke-linejoin:round;stroke-width:2px;}</style></defs><title>securise</title><path class="cls-1" d="M32.29,47.28a7.71,7.71,0,1,0-9.15.11" transform="translate(-6.42 -3.64)"/><path class="cls-1" d="M39.6,58c0-3.95-3.59-9.16-7.31-10.69a7.67,7.67,0,0,1-9.15.11c-3.58,1.58-7,6.72-7,10.58" transform="translate(-6.42 -3.64)"/><circle class="cls-1" cx="21.58" cy="37.79" r="20.58"/><path class="cls-1" d="M14.59,25.15V17.73A13.1,13.1,0,0,1,27.69,4.64H28A13.09,13.09,0,0,1,41.09,17.73v7.42" transform="translate(-6.42 -3.64)"/><path class="cls-1" d="M21.19,21.47V17a6.45,6.45,0,0,1,6.45-6.45h.15A6.45,6.45,0,0,1,34.24,17v4.46" transform="translate(-6.42 -3.64)"/></svg>