<svg id="Calque_1" data-name="Calque 1" xmlns="http://www.w3.org/2000/svg" viewBox="0 0 136.41 156.72"><defs><style>.cls-1{fill:none;stroke:#fff;stroke-linecap:round;stroke-miterlimit:10;stroke-width:3px;}</style></defs><title>voir-resultats</title><path class="cls-1" d="M59.84,149.52H16.73A10.17,10.17,0,0,1,6.59,139.38V16.83A10.17,10.17,0,0,1,16.73,6.69h96.35a10.17,10.17,0,0,1,10.14,10.14V73.59" transform="translate(-5.09 -5.19)"/><path class="cls-1" d="M23.49,48.11l5.34,6.18a.85.85,0,0,0,1.18,0l12.92-13" transform="translate(-5.09 -5.19)"/><line class="cls-1" x1="54.75" y1="49.69" x2="86.87" y2="49.69"/><line class="cls-1" x1="54.75" y1="36.63" x2="100.39" y2="36.63"/><path class="cls-1" d="M91.08,127.92l22.11-22.11a4.39,4.39,0,0,0-.14-6.34l0,0a4.41,4.41,0,0,0-6,.09l-18.64,18.2a1.62,1.62,0,0,1-2.25,0l-6.45-6.13a4.39,4.39,0,0,0-6.26.22h0a4.39,4.39,0,0,0,.24,6.17L84.3,128A4.87,4.87,0,0,0,91.08,127.92Z" transform="translate(-5.09 -5.19)"/><path class="cls-1" d="M135.38,113.66A42,42,0,1,1,93.43,71.71,41.94,41.94,0,0,1,135.38,113.66Z" transform="translate(-5.09 -5.19)"/><path class="cls-1" d="M129,136l8.4,8.53a9.2,9.2,0,0,1-.32,13.23l-.27.24a9.2,9.2,0,0,1-12.49,0l-8.92-8.29" transform="translate(-5.09 -5.19)"/></svg>