<svg id="Calque_1" data-name="Calque 1" xmlns="http://www.w3.org/2000/svg" viewBox="0 0 346 47.5"><defs><style>.cls-1{fill:red;}.cls-2{fill:#fff;}</style></defs><title>bt-connect</title><rect class="cls-1" width="346" height="47.5" rx="7"/><path class="cls-2" d="M55.56,29.89a6.9,6.9,0,0,1-2.72-2.58,7.5,7.5,0,0,1,0-7.45,6.8,6.8,0,0,1,2.72-2.57A8.68,8.68,0,0,1,62.74,17a6.52,6.52,0,0,1,2.47,1.83l-2.08,1.92a4.49,4.49,0,0,0-3.52-1.64,4.67,4.67,0,0,0-2.32.57,4.05,4.05,0,0,0-1.59,1.59,5,5,0,0,0,0,4.64,4.09,4.09,0,0,0,1.59,1.58,4.67,4.67,0,0,0,2.32.57,4.47,4.47,0,0,0,3.52-1.65l2.08,1.91a6.63,6.63,0,0,1-2.48,1.86,8.2,8.2,0,0,1-3.3.64A8,8,0,0,1,55.56,29.89Z" transform="translate(0 0.25)"/><path class="cls-2" d="M68.86,30a5.21,5.21,0,0,1-2.11-2,5.74,5.74,0,0,1,0-5.71,5.21,5.21,0,0,1,2.11-2,6.88,6.88,0,0,1,6.09,0,5.32,5.32,0,0,1,2.1,2,5.74,5.74,0,0,1,0,5.71A5.32,5.32,0,0,1,75,30a6.88,6.88,0,0,1-6.09,0Zm5-2.66a3,3,0,0,0,.77-2.16A3,3,0,0,0,73.88,23a2.81,2.81,0,0,0-3.95,0,3,3,0,0,0-.78,2.17,3,3,0,0,0,.78,2.16,2.81,2.81,0,0,0,3.95,0Z" transform="translate(0 0.25)"/><path class="cls-2" d="M89.66,20.87a4.76,4.76,0,0,1,1.23,3.56v6.15H87.77V24.91A2.81,2.81,0,0,0,87.21,23a2.07,2.07,0,0,0-1.62-.63,2.46,2.46,0,0,0-1.88.73,3,3,0,0,0-.7,2.17v5.31H79.89V19.83h3v1.26A4.13,4.13,0,0,1,84.41,20a5.46,5.46,0,0,1,2-.37A4.43,4.43,0,0,1,89.66,20.87Z" transform="translate(0 0.25)"/><path class="cls-2" d="M100.65,30.06a3.17,3.17,0,0,1-1.13.51,5.92,5.92,0,0,1-1.41.17,4.2,4.2,0,0,1-3-1,3.74,3.74,0,0,1-1-2.88V22.47H92.43v-2.4h1.66V17.46h3.12v2.61h2.68v2.4H97.21v4.37a1.42,1.42,0,0,0,.35,1.05,1.28,1.28,0,0,0,1,.37,2,2,0,0,0,1.26-.4Z" transform="translate(0 0.25)"/><path class="cls-2" d="M102.57,17.83a1.68,1.68,0,0,1,0-2.47,1.94,1.94,0,0,1,1.4-.5,2,2,0,0,1,1.4.48,1.54,1.54,0,0,1,.54,1.2,1.68,1.68,0,0,1-.54,1.28,2,2,0,0,1-1.4.51A1.94,1.94,0,0,1,102.57,17.83Zm-.16,2h3.12V30.58h-3.12Z" transform="translate(0 0.25)"/><path class="cls-2" d="M118.2,20.87a4.76,4.76,0,0,1,1.23,3.56v6.15h-3.12V24.91a2.81,2.81,0,0,0-.56-1.91,2.07,2.07,0,0,0-1.62-.63,2.46,2.46,0,0,0-1.88.73,3,3,0,0,0-.7,2.17v5.31h-3.12V19.83h3v1.26A4.13,4.13,0,0,1,113,20a5.46,5.46,0,0,1,2-.37A4.43,4.43,0,0,1,118.2,20.87Z" transform="translate(0 0.25)"/><path class="cls-2" d="M133.09,19.83V30.58h-3V29.3a4.23,4.23,0,0,1-1.48,1.07,4.64,4.64,0,0,1-1.86.37,4.57,4.57,0,0,1-3.36-1.22,4.84,4.84,0,0,1-1.24-3.61V19.83h3.12v5.62c0,1.73.72,2.59,2.18,2.59a2.35,2.35,0,0,0,1.8-.73,3.06,3.06,0,0,0,.68-2.16V19.83Z" transform="translate(0 0.25)"/><path class="cls-2" d="M146.47,26.08h-8.14a2.47,2.47,0,0,0,1,1.58,3.39,3.39,0,0,0,2,.58A4.08,4.08,0,0,0,142.9,28a3.61,3.61,0,0,0,1.21-.79l1.66,1.8a5.6,5.6,0,0,1-4.44,1.74,7,7,0,0,1-3.22-.71,5.1,5.1,0,0,1-2.16-2,5.38,5.38,0,0,1-.76-2.85,5.49,5.49,0,0,1,.75-2.85,5.17,5.17,0,0,1,2.06-2,6.38,6.38,0,0,1,5.79,0,5,5,0,0,1,2,1.95,5.89,5.89,0,0,1,.73,2.95S146.51,25.57,146.47,26.08Zm-7.3-3.45a2.53,2.53,0,0,0-.88,1.64h5.3A2.56,2.56,0,0,0,141,22,2.68,2.68,0,0,0,139.17,22.63Z" transform="translate(0 0.25)"/><path class="cls-2" d="M153.1,20.07a5.7,5.7,0,0,1,2.19-.4v2.88c-.35,0-.58,0-.7,0a2.84,2.84,0,0,0-2.1.75,3,3,0,0,0-.76,2.25v5.07h-3.12V19.83h3v1.42A3.44,3.44,0,0,1,153.1,20.07Z" transform="translate(0 0.25)"/><path class="cls-2" d="M171.07,20.86a4.56,4.56,0,0,1,1.34,3.59v6.13h-2.92V29.24a3.48,3.48,0,0,1-3.28,1.5,5.06,5.06,0,0,1-2.15-.42,3.21,3.21,0,0,1-1.39-1.16,3,3,0,0,1-.48-1.68,2.76,2.76,0,0,1,1.13-2.35,5.69,5.69,0,0,1,3.49-.86h2.48a2,2,0,0,0-.62-1.57,2.74,2.74,0,0,0-1.86-.55,5.38,5.38,0,0,0-1.69.27,4.27,4.27,0,0,0-1.41.73L162.59,21a6.84,6.84,0,0,1,2.11-1,9.71,9.71,0,0,1,2.53-.34A5.64,5.64,0,0,1,171.07,20.86Zm-2.66,7.41a2,2,0,0,0,.88-1.09v-1.1h-2.14q-1.92,0-1.92,1.26a1.1,1.1,0,0,0,.47.95,2.06,2.06,0,0,0,1.29.35A2.71,2.71,0,0,0,168.41,28.27Z" transform="translate(0 0.25)"/><path class="cls-2" d="M185.71,19.83l-4.54,10.75H178l-4.52-10.75h3.21l3,7.31,3.09-7.31Z" transform="translate(0 0.25)"/><path class="cls-2" d="M197.17,26.08H189a2.47,2.47,0,0,0,1,1.58,3.39,3.39,0,0,0,2,.58,4,4,0,0,0,1.48-.25,3.42,3.42,0,0,0,1.21-.79l1.66,1.8A5.56,5.56,0,0,1,192,30.74,7.11,7.11,0,0,1,188.8,30a5.14,5.14,0,0,1-2.15-2,5.39,5.39,0,0,1-.77-2.85,5.49,5.49,0,0,1,.75-2.85,5.19,5.19,0,0,1,2.07-2,6.38,6.38,0,0,1,5.79,0,5,5,0,0,1,2,1.95,5.89,5.89,0,0,1,.73,2.95S197.21,25.57,197.17,26.08Zm-7.3-3.45a2.49,2.49,0,0,0-.88,1.64h5.3a2.75,2.75,0,0,0-4.42-1.64Z" transform="translate(0 0.25)"/><path class="cls-2" d="M201.42,30a5.23,5.23,0,0,1-2.14-2,5.62,5.62,0,0,1,0-5.71,5.23,5.23,0,0,1,2.14-2,6.62,6.62,0,0,1,3.08-.71,6.05,6.05,0,0,1,3,.71,4.24,4.24,0,0,1,1.85,2l-2.42,1.3a2.64,2.64,0,0,0-2.42-1.48,2.77,2.77,0,0,0-2,.8,3,3,0,0,0-.79,2.18,2.94,2.94,0,0,0,.79,2.17,2.74,2.74,0,0,0,2,.8,2.62,2.62,0,0,0,2.42-1.48L209.33,28a4.32,4.32,0,0,1-1.85,2,6,6,0,0,1-3,.72A6.62,6.62,0,0,1,201.42,30Z" transform="translate(0 0.25)"/><path class="cls-2" d="M219.83,29.89a7,7,0,0,1-2.72-2.58,7.5,7.5,0,0,1,0-7.45,6.87,6.87,0,0,1,2.72-2.57,8.13,8.13,0,0,1,3.89-.93A8,8,0,0,1,227,17a6.37,6.37,0,0,1,2.47,1.83l-2.08,1.92a4.46,4.46,0,0,0-3.52-1.64,4.72,4.72,0,0,0-2.32.57A4.05,4.05,0,0,0,220,21.27a5,5,0,0,0,0,4.64,4.09,4.09,0,0,0,1.59,1.58,4.72,4.72,0,0,0,2.32.57,4.44,4.44,0,0,0,3.52-1.65l2.08,1.91A6.47,6.47,0,0,1,227,30.18a8.66,8.66,0,0,1-7.17-.29Z" transform="translate(0 0.25)"/><path class="cls-2" d="M231.6,17.83a1.68,1.68,0,0,1,0-2.47,2,2,0,0,1,1.4-.5,2,2,0,0,1,1.4.48,1.54,1.54,0,0,1,.54,1.2,1.68,1.68,0,0,1-.54,1.28,2.19,2.19,0,0,1-2.8,0Zm-.16,2h3.12V30.58h-3.12Z" transform="translate(0 0.25)"/><path class="cls-2" d="M248.14,19.83,243.6,30.58h-3.22l-4.52-10.75h3.22l3,7.31,3.08-7.31Z" transform="translate(0 0.25)"/><path class="cls-2" d="M249.58,17.83a1.68,1.68,0,0,1,0-2.47,2,2,0,0,1,1.4-.5,2,2,0,0,1,1.4.48,1.54,1.54,0,0,1,.54,1.2,1.68,1.68,0,0,1-.54,1.28,2.19,2.19,0,0,1-2.8,0Zm-.16,2h3.12V30.58h-3.12Z" transform="translate(0 0.25)"/><path class="cls-2" d="M257.55,30a5.42,5.42,0,0,1,0-9.65,6.7,6.7,0,0,1,3.09-.71,6,6,0,0,1,3,.71,4.15,4.15,0,0,1,1.85,2L263,23.71a2.63,2.63,0,0,0-2.42-1.48,2.77,2.77,0,0,0-2,.8,3,3,0,0,0-.8,2.18,3,3,0,0,0,.8,2.17,2.73,2.73,0,0,0,2,.8A2.6,2.6,0,0,0,263,26.7L265.46,28a4.22,4.22,0,0,1-1.85,2,5.89,5.89,0,0,1-3,.72A6.7,6.7,0,0,1,257.55,30Z" transform="translate(0 0.25)"/><path class="cls-2" d="M276.35,20.36a4.93,4.93,0,0,1,1.93,1.94,5.8,5.8,0,0,1,.7,2.91,5.79,5.79,0,0,1-.7,2.9,4.87,4.87,0,0,1-1.93,1.94,5.48,5.48,0,0,1-2.73.69,4.15,4.15,0,0,1-3.24-1.3v5h-3.12V19.83h3v1.24a4.16,4.16,0,0,1,3.38-1.4A5.48,5.48,0,0,1,276.35,20.36Zm-1.3,7a3,3,0,0,0,.77-2.16,3,3,0,0,0-.77-2.17,2.8,2.8,0,0,0-3.94,0,3,3,0,0,0-.77,2.17,3,3,0,0,0,.77,2.16,2.8,2.8,0,0,0,3.94,0Z" transform="translate(0 0.25)"/><path class="cls-2" d="M283.13,30a5.28,5.28,0,0,1-2.11-2,5.74,5.74,0,0,1,0-5.71,5.28,5.28,0,0,1,2.11-2,6.5,6.5,0,0,1,3.05-.71,6.4,6.4,0,0,1,3,.71,5.19,5.19,0,0,1,2.1,2,5.74,5.74,0,0,1,0,5.71,5.19,5.19,0,0,1-2.1,2,6.4,6.4,0,0,1-3,.71A6.5,6.5,0,0,1,283.13,30Zm5-2.66a3,3,0,0,0,.77-2.16,3,3,0,0,0-.77-2.17,2.59,2.59,0,0,0-2-.81,2.63,2.63,0,0,0-2,.81,3,3,0,0,0-.78,2.17,3,3,0,0,0,.78,2.16,2.63,2.63,0,0,0,2,.81A2.59,2.59,0,0,0,288.15,27.37Z" transform="translate(0 0.25)"/><path class="cls-2" d="M311.14,19.83l-3.9,10.75h-3l-2.42-6.67-2.5,6.67h-3l-3.88-10.75h2.94l2.54,7.27,2.64-7.27h2.64l2.56,7.27,2.62-7.27Z" transform="translate(0 0.25)"/><path class="cls-2" d="M322.78,26.08h-8.14a2.55,2.55,0,0,0,1,1.58,3.44,3.44,0,0,0,2,.58,4,4,0,0,0,1.49-.25,3.42,3.42,0,0,0,1.21-.79l1.66,1.8a5.57,5.57,0,0,1-4.44,1.74,7.1,7.1,0,0,1-3.22-.71,5.22,5.22,0,0,1-2.16-2,5.76,5.76,0,0,1,0-5.7,5.23,5.23,0,0,1,2.06-2,6.1,6.1,0,0,1,2.93-.71,6,6,0,0,1,2.86.68,4.84,4.84,0,0,1,2,1.95,5.79,5.79,0,0,1,.73,2.95S322.82,25.57,322.78,26.08Zm-7.3-3.45a2.58,2.58,0,0,0-.88,1.64h5.3a2.56,2.56,0,0,0-.88-1.63,2.6,2.6,0,0,0-1.76-.61A2.7,2.7,0,0,0,315.48,22.63Z" transform="translate(0 0.25)"/><path class="cls-2" d="M329.41,20.07a5.78,5.78,0,0,1,2.19-.4v2.88c-.34,0-.58,0-.7,0a2.87,2.87,0,0,0-2.1.75,3.06,3.06,0,0,0-.76,2.25v5.07h-3.12V19.83h3v1.42A3.55,3.55,0,0,1,329.41,20.07Z" transform="translate(0 0.25)"/><rect class="cls-2" x="7" y="6.11" width="36" height="35.96" rx="4"/><polygon class="cls-1" points="31.3 6.3 13.76 22.12 21.86 23.55 18.91 41.69 36.55 26.01 27.96 24.5 31.3 6.3"/></svg>