<?xml version="1.0" encoding="utf-8"?>
<!-- Generator: Adobe Illustrator 23.0.1, SVG Export Plug-In . SVG Version: 6.00 Build 0)  -->
<svg version="1.1" id="Calque_1" xmlns="http://www.w3.org/2000/svg" xmlns:xlink="http://www.w3.org/1999/xlink" x="0px" y="0px"
	 viewBox="0 0 50 50" style="enable-background:new 0 0 50 50;" xml:space="preserve">
<style type="text/css">
	.st0{fill:none;stroke:#FFFFFF;stroke-width:1.0995;stroke-linecap:round;stroke-linejoin:round;stroke-miterlimit:10;}
</style>
<g>
	<path class="st0" d="M35.2,39.8c-3,2-6.6,3.2-10.4,3.2C14.5,43,6.2,34.7,6.2,24.5c0-1.9,0.3-3.7,0.8-5.4"/>
	<path class="st0" d="M42.7,29.1c-1.1,4.4-3.8,8.2-7.5,10.7"/>
	<path class="st0" d="M15,8.8C17.8,7,21.2,6,24.7,6C35,6,43.2,14.3,43.2,24.5c0,1.6-0.2,3.1-0.6,4.6"/>
	<path class="st0" d="M8,13.2l2-5.9c0.4-1.1,1.7-1.4,2.5-0.6L15,9.1l2,1.9c0.7,0.6,0.4,1.8-0.5,2l-6.6,2.1C8.7,15.5,7.6,14.4,8,13.2
		z"/>
	<path class="st0" d="M23.7,30.4l9.4-9.4c0.8-0.8,0.7-2-0.1-2.7l0,0c-0.7-0.7-1.9-0.7-2.6,0l-8,7.8c-0.3,0.3-0.7,0.3-1,0l-2.8-2.6
		c-0.8-0.7-2-0.7-2.7,0.1l0,0c-0.7,0.8-0.6,1.9,0.1,2.6l4.6,4.3C21.7,31.2,22.9,31.2,23.7,30.4z"/>
</g>
</svg>
