<?xml version="1.0" encoding="utf-8"?>
<!-- Generator: Adobe Illustrator 23.0.1, SVG Export Plug-In . SVG Version: 6.00 Build 0)  -->
<svg version="1.1" id="Calque_1" xmlns="http://www.w3.org/2000/svg" xmlns:xlink="http://www.w3.org/1999/xlink" x="0px" y="0px"
	 viewBox="0 0 116 103" style="enable-background:new 0 0 116 103;" xml:space="preserve">
<style type="text/css">
	.st0{fill:none;stroke:#FFFFFF;stroke-width:3;stroke-linecap:round;stroke-linejoin:round;stroke-miterlimit:10;}
	.st1{fill:none;stroke:#FFFFFF;stroke-width:3;stroke-linecap:round;stroke-miterlimit:10;}
</style>
<path class="st0" d="M75.5,67.3h25.7c2.1,0,3.9,1.7,3.9,3.9v11.6c0,2.1-1.7,3.9-3.9,3.9H14.3c-2.1,0-3.9-1.7-3.9-3.9V71.2
	c0-2.1,1.7-3.9,3.9-3.9h21.4"/>
<line class="st0" x1="22.8" y1="76.8" x2="93.7" y2="76.8"/>
<path class="st0" d="M44.4,77L24.9,56.5c-1.3-1.3-1.3-3.5,0-4.8l40.4-40.4c1.3-1.3,3.5-1.3,4.8,0l28.3,28.3c1.3,1.3,1.3,3.5,0,4.8
	L65.8,77"/>
<path class="st1" d="M68.9,56.4V32.3c0-2.2-1.9-4-4.1-3.9l-0.1,0c-2.1,0.1-3.7,1.8-3.8,3.9l-0.3,19.5c0,0.8-0.6,1.4-1.4,1.4l-8,0.2
	c-2.2,0.1-3.9,1.9-3.8,4.1l0,0c0.1,2.2,1.9,3.8,4.1,3.8l13.2-0.4C67,60.7,68.9,58.8,68.9,56.4z"/>
</svg>
