<?xml version="1.0" encoding="utf-8"?>
<!-- Generator: Adobe Illustrator 23.0.1, SVG Export Plug-In . SVG Version: 6.00 Build 0)  -->
<svg version="1.1" xmlns="http://www.w3.org/2000/svg" xmlns:xlink="http://www.w3.org/1999/xlink" x="0px" y="0px"
	 viewBox="0 0 50 50" style="enable-background:new 0 0 50 50;" xml:space="preserve">
<style type="text/css">
	.st0{display:none;}
	.st1{display:inline;}
	.st2{fill:none;stroke:#1c6e7d;stroke-width:1.215;stroke-linecap:round;stroke-linejoin:round;stroke-miterlimit:10;}
	.st3{fill:none;stroke:#1c6e7d;stroke-linecap:round;stroke-linejoin:round;stroke-miterlimit:10;}
	.st4{fill:none;stroke:#1c6e7d;stroke-width:1.0995;stroke-linecap:round;stroke-linejoin:round;stroke-miterlimit:10;}
</style>
<g id="Calque_2" class="st0">
	<rect x="-19.5" y="-10" class="st1" width="86" height="76"/>
</g>
<g id="Calque_5" class="st0">
	<g class="st1">
		<path class="st2" d="M20.6,40.1h-8.4c-1.3,0-2.4-1.1-2.4-2.4V8.1c0-1.3,1.1-2.4,2.4-2.4h23.3c1.3,0,2.4,1.1,2.4,2.4v11.7"/>
		<path class="st2" d="M13.9,15.6l1.3,1.5c0.1,0.1,0.2,0.1,0.3,0l3.1-3.1"/>
		<line class="st2" x1="22.6" y1="17.3" x2="30.4" y2="17.3"/>
		<line class="st2" x1="22.6" y1="14.1" x2="33.7" y2="14.1"/>
		<path class="st3" d="M30.2,34.9l5.3-5.3c0.4-0.4,0.4-1.1,0-1.5l0,0c-0.4-0.4-1.1-0.4-1.5,0l-4.5,4.4c-0.2,0.1-0.4,0.1-0.5,0
			L27.4,31c-0.4-0.4-1.1-0.4-1.5,0.1l0,0c-0.4,0.4-0.4,1.1,0.1,1.5l2.6,2.4C29,35.4,29.7,35.3,30.2,34.9z"/>
		<path class="st2" d="M40.9,31.5c0,3.6-1.9,6.8-4.8,8.6c-1.5,1-3.4,1.5-5.3,1.5c-5.6,0-10.1-4.5-10.1-10.1s4.5-10.1,10.1-10.1
			S40.9,25.9,40.9,31.5z"/>
		<path class="st2" d="M39.3,36.8l2,2.1c0.9,0.9,0.8,2.3-0.1,3.2l-0.1,0.1c-0.9,0.8-2.2,0.8-3,0l-2.2-2"/>
	</g>
	<g class="st1">
		<g>
			<path class="st2" d="M28.5,33.2c1.2-0.9,2-2.3,2-4c0-2.7-2.2-5-5-5s-5,2.2-5,5c0,1.7,0.8,3.1,2.1,4"/>
			<path class="st2" d="M32.6,40.8v-1.4c0-2.5-1.7-5.3-4.1-6.2c-0.8,0.6-1.9,1-3,1c-1.1,0-2.1-0.4-2.9-0.9c-2.3,1-3.9,3.7-3.9,6.2
				v1.2"/>
		</g>
		<g>
			<circle class="st2" cx="25.7" cy="29.4" r="13.3"/>
			<path class="st2" d="M17.1,19.6v-5.4c0-4.7,3.8-8.4,8.4-8.4h0.2c4.7,0,8.4,3.8,8.4,8.4v5.4"/>
			<path class="st2" d="M21.3,16.6v-2.9c0-2.3,1.9-4.2,4.2-4.2h0.1c2.3,0,4.2,1.9,4.2,4.2v2.9"/>
		</g>
	</g>
</g>
<g id="Calque_6">
	<g>
		<g>
			<path class="st2" d="M28.5,33.2c1.2-0.9,2-2.3,2-4c0-2.7-2.2-5-5-5s-5,2.2-5,5c0,1.7,0.8,3.1,2.1,4"/>
			<path class="st2" d="M32.6,40.8v-1.4c0-2.5-1.7-5.3-4.1-6.2c-0.8,0.6-1.9,1-3,1c-1.1,0-2.1-0.4-2.9-0.9c-2.3,1-3.9,3.7-3.9,6.2
				v1.2"/>
		</g>
		<g>
			<circle class="st2" cx="25.7" cy="29.4" r="13.3"/>
			<path class="st2" d="M17.1,19.6v-5.4c0-4.7,3.8-8.4,8.4-8.4h0.2c4.7,0,8.4,3.8,8.4,8.4v5.4"/>
			<path class="st2" d="M21.3,16.6v-2.9c0-2.3,1.9-4.2,4.2-4.2h0.1c2.3,0,4.2,1.9,4.2,4.2v2.9"/>
		</g>
	</g>
</g>
<g id="Calque_4" class="st0">
	<g class="st1">
		<path class="st2" d="M20.6,40.1h-8.4c-1.3,0-2.4-1.1-2.4-2.4V8.1c0-1.3,1.1-2.4,2.4-2.4h23.3c1.3,0,2.4,1.1,2.4,2.4v11.7"/>
		<path class="st2" d="M13.9,15.6l1.3,1.5c0.1,0.1,0.2,0.1,0.3,0l3.1-3.1"/>
		<line class="st2" x1="22.6" y1="17.3" x2="30.4" y2="17.3"/>
		<line class="st2" x1="22.6" y1="14.1" x2="33.7" y2="14.1"/>
		<path class="st3" d="M30.2,34.9l5.3-5.3c0.4-0.4,0.4-1.1,0-1.5l0,0c-0.4-0.4-1.1-0.4-1.5,0l-4.5,4.4c-0.2,0.1-0.4,0.1-0.5,0
			L27.4,31c-0.4-0.4-1.1-0.4-1.5,0.1l0,0c-0.4,0.4-0.4,1.1,0.1,1.5l2.6,2.4C29,35.4,29.7,35.3,30.2,34.9z"/>
		<path class="st2" d="M40.9,31.5c0,3.6-1.9,6.8-4.8,8.6c-1.5,1-3.4,1.5-5.3,1.5c-5.6,0-10.1-4.5-10.1-10.1s4.5-10.1,10.1-10.1
			S40.9,25.9,40.9,31.5z"/>
		<path class="st2" d="M39.3,36.8l2,2.1c0.9,0.9,0.8,2.3-0.1,3.2l-0.1,0.1c-0.9,0.8-2.2,0.8-3,0l-2.2-2"/>
	</g>
</g>
<g id="Calque_3" class="st0">
	<g class="st1">
		<path class="st2" d="M24.1,29.6l9.4-9.4c0.8-0.8,0.7-2-0.1-2.7l0,0c-0.7-0.7-1.9-0.7-2.6,0l-8,7.8c-0.3,0.3-0.7,0.3-1,0l-2.8-2.6
			c-0.8-0.7-2-0.7-2.7,0.1l0,0c-0.7,0.8-0.6,1.9,0.1,2.6l4.6,4.3C22.1,30.4,23.3,30.4,24.1,29.6z"/>
		<path class="st2" d="M43,23.5c0,6.4-3.4,12.1-8.5,15.2c-2.7,1.7-5.9,2.7-9.4,2.7c-9.9,0-17.9-8-17.9-17.9s8-17.9,17.9-17.9
			S43,13.7,43,23.5z"/>
		<path class="st2" d="M40.3,33.1l3.6,3.6c1.6,1.6,1.5,4.1-0.1,5.6l-0.1,0.1c-1.5,1.4-3.8,1.4-5.3,0l-3.8-3.5"/>
	</g>
</g>
<g id="Calque_1" class="st0">
	<g class="st1">
		<path class="st4" d="M35.2,39.8c-3,2-6.6,3.2-10.4,3.2C14.5,43,6.2,34.7,6.2,24.5c0-1.9,0.3-3.7,0.8-5.4"/>
		<path class="st4" d="M42.7,29.1c-1.1,4.4-3.8,8.2-7.5,10.7"/>
		<path class="st4" d="M15,8.8C17.8,7,21.2,6,24.7,6C35,6,43.2,14.3,43.2,24.5c0,1.6-0.2,3.1-0.6,4.6"/>
		<path class="st4" d="M8,13.2l2-5.9c0.4-1.1,1.7-1.4,2.5-0.6L15,9.1l2,1.9c0.7,0.6,0.4,1.8-0.5,2l-6.6,2.1
			C8.7,15.5,7.6,14.4,8,13.2z"/>
		<path class="st4" d="M23.7,30.4l9.4-9.4c0.8-0.8,0.7-2-0.1-2.7l0,0c-0.7-0.7-1.9-0.7-2.6,0l-8,7.8c-0.3,0.3-0.7,0.3-1,0l-2.8-2.6
			c-0.8-0.7-2-0.7-2.7,0.1l0,0c-0.7,0.8-0.6,1.9,0.1,2.6l4.6,4.3C21.7,31.2,22.9,31.2,23.7,30.4z"/>
	</g>
</g>
</svg>
