<svg id="Calque_1" data-name="Calque 1" xmlns="http://www.w3.org/2000/svg" viewBox="0 0 242.65 55.61"><defs><style>.cls-1{fill:#fff;}.cls-2{fill:red;}</style></defs><title>logo-civicpower</title><path class="cls-1" d="M61.17,31.16a19.83,19.83,0,0,1-3.76,3.15,9.49,9.49,0,0,1-4.7,1.16,9.49,9.49,0,0,1-7.51-3.19,11.59,11.59,0,0,1-2.63-7.81,11.48,11.48,0,0,1,2.63-7.81,9.42,9.42,0,0,1,7.51-3.23,9.21,9.21,0,0,1,4.7,1.2,17.77,17.77,0,0,1,3.76,3.15l-4.23,3.89Q54.57,19,52.71,19c-2.79,0-4.18,1.82-4.18,5.44s1.39,5.44,4.18,5.44q1.86,0,4.23-2.64Z" transform="translate(-0.17 0.16)"/><path class="cls-1" d="M71.26,7.08a3.32,3.32,0,1,1-6.64,0,3.19,3.19,0,0,1,1-2.35,3.33,3.33,0,0,1,4.7,0A3.19,3.19,0,0,1,71.26,7.08Zm-.47,28H65.05V13.77h5.74Z" transform="translate(-0.17 0.16)"/><path class="cls-1" d="M95.38,13.77l-8.2,21.31H82.43L74.28,13.77h6.3l4.1,12.9L89,13.77Z" transform="translate(-0.17 0.16)"/><path class="cls-1" d="M105,7.08a3.33,3.33,0,0,1-3.32,3.33,3.19,3.19,0,0,1-2.35-1,3.18,3.18,0,0,1-1-2.35,3.31,3.31,0,0,1,3.32-3.32,3.23,3.23,0,0,1,2.35,1A3.19,3.19,0,0,1,105,7.08Zm-.48,28H98.83V13.77h5.73Z" transform="translate(-0.17 0.16)"/><path class="cls-1" d="M127.51,31.16a19.52,19.52,0,0,1-3.75,3.15,10.31,10.31,0,0,1-12.21-2,11.59,11.59,0,0,1-2.63-7.81,11.48,11.48,0,0,1,2.63-7.81,9.42,9.42,0,0,1,7.51-3.23,9.21,9.21,0,0,1,4.7,1.2,17.51,17.51,0,0,1,3.75,3.15l-4.22,3.89c-1.59-1.76-3-2.64-4.23-2.64-2.79,0-4.19,1.82-4.19,5.44s1.4,5.44,4.19,5.44c1.24,0,2.64-.88,4.23-2.64Z" transform="translate(-0.17 0.16)"/><path class="cls-1" d="M149.21,24.6a13.09,13.09,0,0,1-2,7.72q-2.34,3.24-7,3.24a5.38,5.38,0,0,1-2.9-.82v9.83H131.4V13.77h4.79l.21.86a6,6,0,0,1,3.8-1.33,7.91,7.91,0,0,1,7,3.45A13.81,13.81,0,0,1,149.21,24.6Zm-5.86,0a9.5,9.5,0,0,0-.48-3.5,2.65,2.65,0,0,0-2.71-1.81c-1.93,0-2.9.91-2.9,2.72v5.13c0,1.82,1,2.72,2.9,2.72a2.64,2.64,0,0,0,2.71-1.77A9.4,9.4,0,0,0,143.35,24.6Z" transform="translate(-0.17 0.16)"/><path class="cls-1" d="M171.56,24.47c0,3.36-.75,6-2.24,7.89q-2.5,3.15-7.42,3.15c-3.28,0-5.76-1-7.42-3.15-1.5-1.89-2.25-4.53-2.25-7.89s.75-6,2.25-7.94c1.66-2.1,4.14-3.15,7.42-3.15s5.75,1,7.42,3.15C170.81,18.46,171.56,21.1,171.56,24.47Zm-5.95,0q0-5.38-3.71-5.39c-2.48,0-3.71,1.8-3.71,5.39s1.23,5.35,3.71,5.35S165.61,28,165.61,24.47Z" transform="translate(-0.17 0.16)"/><path class="cls-1" d="M204.86,13.77l-7.11,21.31h-4.88L188.82,24l-4.06,11.08h-4.87l-7-21.31h6.3l3.28,12.3,4.23-12.3h4.27L195,26.11l3.54-12.34Z" transform="translate(-0.17 0.16)"/><path class="cls-1" d="M225,25.46v.39H212.63q.39,4.09,4.14,4.1c1.3,0,2.63-.76,4-2.29l4,3.93a16,16,0,0,1-3.58,2.84,10.28,10.28,0,0,1-11.95-2.15,11.59,11.59,0,0,1-2.63-7.81,11.69,11.69,0,0,1,2.55-7.81,9,9,0,0,1,7.37-3.23A7.69,7.69,0,0,1,221.09,15a8.84,8.84,0,0,1,3.1,3.84Q225,20.64,225,25.46Zm-5.44-3.28c-.28-2.21-1.38-3.32-3.28-3.32s-3.17,1.11-3.58,3.32Z" transform="translate(-0.17 0.16)"/><path class="cls-1" d="M242.83,14.85l-2.16,4.53a6.34,6.34,0,0,0-2.5-.6q-3.06,0-3.06,3V35.08h-5.83V13.77H234l.21.91a6.24,6.24,0,0,1,3.93-1.47A7.83,7.83,0,0,1,242.83,14.85Z" transform="translate(-0.17 0.16)"/><polygon class="cls-2" points="27.54 0 0 24.86 12.72 27.1 8.08 55.62 35.78 30.98 22.3 28.6 27.54 0"/></svg>