<?xml version="1.0" encoding="utf-8"?>
<!-- Generator: Adobe Illustrator 23.0.1, SVG Export Plug-In . SVG Version: 6.00 Build 0)  -->
<svg version="1.1" id="Calque_1" xmlns="http://www.w3.org/2000/svg" xmlns:xlink="http://www.w3.org/1999/xlink" x="0px" y="0px"
	 viewBox="0 0 175 46" style="enable-background:new 0 0 175 46;" xml:space="preserve">
<style type="text/css">
	.st0{fill:#4054B2;}
	.st1{fill:#FF2F3E;}
</style>
<g>
	<g>
		<path class="st0" d="M45.8,25c-1,1-1.9,1.8-2.6,2.2c-1,0.5-2,0.8-3.3,0.8c-2.2,0-3.9-0.7-5.2-2.2c-1.2-1.4-1.8-3.2-1.8-5.4
			c0-2.2,0.6-4,1.8-5.4c1.3-1.5,3-2.2,5.2-2.2c1.2,0,2.3,0.3,3.3,0.8c0.7,0.4,1.6,1.1,2.6,2.2l-2.9,2.7c-1.1-1.2-2.1-1.8-2.9-1.8
			c-1.9,0-2.9,1.3-2.9,3.8s1,3.8,2.9,3.8c0.9,0,1.8-0.6,2.9-1.8L45.8,25z"/>
		<path class="st0" d="M52.8,8.4c0,0.6-0.2,1.2-0.7,1.6c-0.4,0.4-1,0.7-1.6,0.7c-0.6,0-1.2-0.2-1.6-0.7c-0.4-0.4-0.7-1-0.7-1.6
			c0-0.6,0.2-1.2,0.7-1.6c0.4-0.4,1-0.7,1.6-0.7c0.6,0,1.2,0.2,1.6,0.7C52.5,7.2,52.8,7.7,52.8,8.4z M52.4,27.8h-4V13h4V27.8z"/>
		<path class="st0" d="M69.5,13l-5.7,14.8h-3.3L54.9,13h4.4l2.8,8.9l3-8.9H69.5z"/>
		<path class="st0" d="M76.2,8.4c0,0.6-0.2,1.2-0.7,1.6c-0.4,0.4-1,0.7-1.6,0.7c-0.6,0-1.2-0.2-1.6-0.7c-0.4-0.4-0.7-1-0.7-1.6
			c0-0.6,0.2-1.2,0.7-1.6c0.4-0.4,1-0.7,1.6-0.7c0.6,0,1.2,0.2,1.6,0.7C76,7.2,76.2,7.7,76.2,8.4z M75.9,27.8h-4V13h4V27.8z"/>
		<path class="st0" d="M91.8,25c-1,1-1.9,1.8-2.6,2.2c-1,0.5-2,0.8-3.3,0.8c-2.2,0-3.9-0.7-5.2-2.2c-1.2-1.4-1.8-3.2-1.8-5.4
			c0-2.2,0.6-4,1.8-5.4c1.3-1.5,3-2.2,5.2-2.2c1.2,0,2.3,0.3,3.3,0.8c0.7,0.4,1.6,1.1,2.6,2.2l-2.9,2.7c-1.1-1.2-2.1-1.8-2.9-1.8
			c-1.9,0-2.9,1.3-2.9,3.8s1,3.8,2.9,3.8c0.9,0,1.8-0.6,2.9-1.8L91.8,25z"/>
		<path class="st0" d="M106.8,20.5c0,2.3-0.5,4-1.4,5.4c-1.1,1.5-2.7,2.2-4.9,2.2c-0.7,0-1.4-0.2-2-0.6v6.8h-4.1V13h3.3l0.1,0.6
			c0.8-0.6,1.7-0.9,2.6-0.9c2.2,0,3.8,0.8,4.9,2.4C106.4,16.4,106.8,18.2,106.8,20.5z M102.7,20.5c0-1.1-0.1-1.9-0.3-2.4
			c-0.3-0.8-0.9-1.3-1.9-1.3c-1.3,0-2,0.6-2,1.9v3.6c0,1.3,0.7,1.9,2,1.9c0.9,0,1.6-0.4,1.9-1.2C102.6,22.4,102.7,21.6,102.7,20.5z"
			/>
		<path class="st0" d="M122.3,20.4c0,2.3-0.5,4.2-1.6,5.5c-1.2,1.5-2.9,2.2-5.1,2.2c-2.3,0-4-0.7-5.1-2.2c-1-1.3-1.6-3.1-1.6-5.5
			c0-2.3,0.5-4.2,1.6-5.5c1.2-1.5,2.9-2.2,5.1-2.2c2.3,0,4,0.7,5.1,2.2C121.8,16.2,122.3,18.1,122.3,20.4z M118.2,20.4
			c0-2.5-0.9-3.7-2.6-3.7c-1.7,0-2.6,1.2-2.6,3.7c0,2.5,0.9,3.7,2.6,3.7C117.3,24.1,118.2,22.9,118.2,20.4z"/>
		<path class="st0" d="M145.4,13l-4.9,14.8h-3.4l-2.8-7.7l-2.8,7.7h-3.4L123.2,13h4.4l2.3,8.5l2.9-8.5h3l2.8,8.6L141,13H145.4z"/>
		<path class="st0" d="M159.3,21.1v0.3h-8.6c0.2,1.9,1.1,2.8,2.9,2.8c0.9,0,1.8-0.5,2.8-1.6l2.8,2.7c-0.9,0.9-1.7,1.6-2.5,2
			c-0.9,0.5-1.9,0.7-3.1,0.7c-2.2,0-3.9-0.7-5.2-2.2c-1.2-1.4-1.8-3.2-1.8-5.4c0-2.2,0.6-4,1.8-5.4c1.2-1.5,2.9-2.2,5.1-2.2
			c1.1,0,2.2,0.4,3.2,1.1c1,0.7,1.7,1.6,2.2,2.7C159.2,17.3,159.3,18.9,159.3,21.1z M155.6,18.8c-0.2-1.5-1-2.3-2.3-2.3
			c-1.4,0-2.2,0.8-2.5,2.3H155.6z"/>
		<path class="st0" d="M171.7,13.7l-1.5,3.1c-0.6-0.3-1.2-0.4-1.7-0.4c-1.4,0-2.1,0.7-2.1,2.1v9.2h-4V13h3.3l0.1,0.6
			c0.9-0.7,1.8-1,2.7-1C169.6,12.6,170.7,13,171.7,13.7z"/>
	</g>
	<polygon class="st1" points="22.6,3.3 3.5,20.6 12.3,22.1 9.1,41.9 28.3,24.8 18.9,23.2 	"/>
</g>
</svg>
