<?xml version="1.0" encoding="utf-8"?>
<!-- Generator: Adobe Illustrator 23.0.1, SVG Export Plug-In . SVG Version: 6.00 Build 0)  -->
<svg version="1.1" xmlns="http://www.w3.org/2000/svg" xmlns:xlink="http://www.w3.org/1999/xlink" x="0px" y="0px"
	 viewBox="0 0 50 55" style="enable-background:new 0 0 50 55;" xml:space="preserve">
<style type="text/css">
	.st0{display:none;}
	.st1{display:inline;}
	.st2{fill:none;stroke:#1C6E7D;stroke-width:1.215;stroke-miterlimit:10;}
	.st3{fill:none;stroke:#1C6E7D;stroke-width:1.215;stroke-linecap:round;stroke-linejoin:round;stroke-miterlimit:10;}
	.st4{fill:none;stroke:#1C6E7D;stroke-width:1.1314;stroke-linecap:round;stroke-linejoin:round;stroke-miterlimit:10;}
</style>
<g id="Calque_1" class="st0">
	<g class="st1">
		<circle class="st2" cx="20.1" cy="16.5" r="4.6"/>
		<path class="st2" d="M40.7,35.2c-0.2,2.4-1.4,4.3-1.4,4.3c-2.9,4.7-7.4,3.4-9.7,2.3c-0.8-0.4-1.6-0.9-2.2-1.6l-7.5-7.4
			c-0.2-0.2-0.2-0.5-0.1-0.7c1.7-3,4.2-1.5,5.4-0.7c0.1,0.1,0.3,0.3,0.4,0.4l1.2,1.2c0.1,0.1,0.3,0,0.3-0.1v-12c0-1.2,1-2.2,2.2-2.2
			h0c1.2,0,2.2,1,2.2,2.2V27l6.5,2.2c0.7,0.2,1.3,0.6,1.8,1.2C39.8,30.4,41.1,31.7,40.7,35.2z"/>
		<path class="st3" d="M24.3,27c-1.9,0.8-4,1.1-6.1,0.7c-6.1-1-10.2-6.9-9.1-13.2s6.9-10.4,13-9.4c5.3,0.9,9.1,5.5,9.3,10.8"/>
	</g>
</g>
<g id="Calque_2">
	<g>
		<path class="st3" d="M32.8,35.7c-2.2,1.5-4.8,2.3-7.6,2.3c-7.5,0-13.5-6-13.5-13.5c0-1.4,0.2-2.7,0.6-3.9"/>
		<path class="st3" d="M38.3,27.8c-0.8,3.2-2.8,6-5.5,7.8"/>
		<path class="st3" d="M18.1,13c2.1-1.3,4.5-2,7.1-2c7.5,0,13.5,6,13.5,13.5c0,1.1-0.1,2.3-0.4,3.3"/>
		<path class="st3" d="M13,16.3l1.4-4.3c0.3-0.8,1.2-1,1.8-0.4l1.8,1.7l1.5,1.4c0.5,0.5,0.3,1.3-0.3,1.5l-4.8,1.5
			C13.6,17.9,12.8,17.1,13,16.3z"/>
		<path class="st3" d="M24.5,28.8l6.9-6.9c0.6-0.6,0.5-1.5,0-2l0,0c-0.5-0.5-1.4-0.5-1.9,0l-5.8,5.7c-0.2,0.2-0.5,0.2-0.7,0l-2-1.9
			c-0.6-0.5-1.4-0.5-2,0.1l0,0c-0.5,0.6-0.5,1.4,0.1,1.9l3.3,3.1C23,29.4,23.9,29.4,24.5,28.8z"/>
	</g>
</g>
<g id="Calque_3" class="st0">
	<g class="st1">
		<path class="st3" d="M24.1,28.9l7.2-7.2c0.6-0.6,0.6-1.5,0-2.1l0,0c-0.6-0.5-1.4-0.5-2,0l-6.1,5.9c-0.2,0.2-0.5,0.2-0.7,0l-2.1-2
			c-0.6-0.5-1.5-0.5-2,0.1l0,0c-0.5,0.6-0.5,1.5,0.1,2l3.5,3.3C22.5,29.5,23.5,29.5,24.1,28.9z"/>
		<path class="st3" d="M38.5,24.3c0,4.9-2.6,9.2-6.5,11.6c-2.1,1.3-4.5,2-7.1,2c-7.5,0-13.6-6.1-13.6-13.6s6.1-13.6,13.6-13.6
			S38.5,16.8,38.5,24.3z"/>
		<path class="st3" d="M36.4,31.5l2.7,2.8c1.2,1.2,1.1,3.2-0.1,4.3l-0.1,0.1c-1.1,1.1-2.9,1.1-4.1,0L32,36"/>
	</g>
</g>
<g id="Calque_4" class="st0">
	<g class="st1">
		<path class="st4" d="M22.1,42.3h-7.8c-1.3,0-2.3-1-2.3-2.3V12.5c0-1.3,1-2.3,2.3-2.3h21.7c1.3,0,2.3,1,2.3,2.3v10.9"/>
		<path class="st4" d="M15.8,19.5l1.2,1.4c0.1,0.1,0.2,0.1,0.3,0l2.9-2.9"/>
		<line class="st4" x1="24" y1="21" x2="31.2" y2="21"/>
		<line class="st4" x1="24" y1="18.1" x2="34.2" y2="18.1"/>
		<path class="st4" d="M31,37.4l5-5c0.4-0.4,0.4-1,0-1.4l0,0c-0.4-0.4-1-0.3-1.4,0l-4.2,4.1c-0.1,0.1-0.4,0.1-0.5,0l-1.5-1.4
			c-0.4-0.4-1-0.4-1.4,0l0,0c-0.4,0.4-0.3,1,0.1,1.4l2.4,2.3C29.9,37.9,30.6,37.9,31,37.4z"/>
		<path class="st4" d="M41,34.2c0,3.4-1.8,6.4-4.5,8c-1.4,0.9-3.1,1.4-4.9,1.4c-5.2,0-9.4-4.2-9.4-9.4s4.2-9.4,9.4-9.4
			S41,29,41,34.2z"/>
		<path class="st4" d="M39.5,39.3l1.9,1.9c0.8,0.8,0.8,2.2-0.1,3l-0.1,0.1c-0.8,0.7-2,0.7-2.8,0l-2-1.9"/>
	</g>
</g>
<g id="Calque_5">
</g>
</svg>
