<?xml version="1.0" encoding="utf-8"?>
<!-- Generator: Adobe Illustrator 23.0.1, SVG Export Plug-In . SVG Version: 6.00 Build 0)  -->
<svg version="1.1" xmlns="http://www.w3.org/2000/svg" xmlns:xlink="http://www.w3.org/1999/xlink" x="0px" y="0px"
	 viewBox="0 0 40 40" style="enable-background:new 0 0 40 40;" xml:space="preserve">
<style type="text/css">
	.st0{fill:#262626;}
	.st1{display:none;}
	.st2{display:inline;fill:#262626;}
	.st3{display:inline;}
</style>
<g id="Calque_1">
	<g>
		<path class="st0" d="M20.2,34.5c-7.7,0-14-6.3-14-14s6.3-14,14-14s14,6.3,14,14S27.9,34.5,20.2,34.5z M20.2,9
			C13.8,9,8.7,14.1,8.7,20.5S13.8,32,20.2,32s11.5-5.2,11.5-11.5S26.5,9,20.2,9z"/>
	</g>
</g>
<g id="Calque_1_-_copie" class="st1">
	<path class="st2" d="M29.4,14.8c-0.7,0.3-1.4,0.5-2.2,0.6c0.8-0.5,1.4-1.2,1.7-2.1c-0.7,0.4-1.5,0.7-2.4,0.9
		c-0.7-0.7-1.7-1.2-2.8-1.2c-2.1,0-3.8,1.7-3.8,3.7c0,0.3,0,0.6,0.1,0.9c-3.1-0.2-5.9-1.6-7.8-3.9c-0.3,0.6-0.5,1.2-0.5,1.9
		c0,1.3,0.7,2.4,1.7,3.1c-0.6,0-1.2-0.2-1.7-0.5c0,0,0,0,0,0c0,1.8,1.3,3.3,3,3.7c-0.3,0.1-0.7,0.1-1,0.1c-0.2,0-0.5,0-0.7-0.1
		c0.5,1.5,1.9,2.6,3.5,2.6c-1.3,1-2.9,1.6-4.7,1.6c-0.3,0-0.6,0-0.9-0.1c1.7,1.1,3.7,1.7,5.8,1.7c7,0,10.8-5.7,10.8-10.6
		c0-0.2,0-0.3,0-0.5C28.3,16.3,28.9,15.6,29.4,14.8z"/>
</g>
<g id="Calque_2" class="st1">
	<g class="st3">
		<path class="st0" d="M23.7,11.1c0,0-1.6,0-2.7,0c-1.6,0-3.4,0.7-3.4,3.3c0,0.9,0,1.7,0,2.7h-1.9v3.2h1.9v9.3h3.5v-9.3h2.3l0.2-3.2
			h-2.6c0,0,0-1.4,0-1.8c0-1,1-0.9,1-0.9c0.5,0,1.3,0,1.6,0L23.7,11.1L23.7,11.1L23.7,11.1z"/>
	</g>
</g>
<g id="Calque_3">
	<g>
		<g>
			<path class="st0" d="M14.8,13c-0.9,0-1.5,0.6-1.5,1.4c0,0.8,0.6,1.4,1.5,1.4c0.9,0,1.5-0.6,1.5-1.4C16.3,13.6,15.7,13,14.8,13z
				 M13.4,26.4h2.8v-9.6h-2.8V26.4z M23.8,17c-0.9,0-1.8-0.2-2.8,1.3h-0.1l0-1.5h-2.5c0,0.8,0,2,0,3.1v6.5h2.8v-5.5
				c0-0.3,0-0.5,0.1-0.7c0.2-0.5,0.6-1.1,1.4-1.1c1,0,1.4,0.8,1.4,2v5.3H27v-5.7C27,18.1,25.6,17,23.8,17z"/>
		</g>
	</g>
</g>
</svg>
