<?xml version="1.0" encoding="utf-8"?>
<!-- Generator: Adobe Illustrator 23.0.1, SVG Export Plug-In . SVG Version: 6.00 Build 0)  -->
<svg version="1.1" xmlns="http://www.w3.org/2000/svg" xmlns:xlink="http://www.w3.org/1999/xlink" x="0px" y="0px"
	 viewBox="0 0 246 42" style="enable-background:new 0 0 246 42;" xml:space="preserve">
<style type="text/css">
	.st0{display:none;}
	.st1{display:inline;fill:none;}
	.st2{display:inline;fill:#FFFFFF;}
	.st3{font-family:'Damion';}
	.st4{font-size:30px;}
	.st5{display:inline;}
	.st6{fill:#FFFFFF;}
</style>
<g id="Calque_1" class="st0">
	<rect x="6" y="8.5" class="st1" width="134" height="26.5"/>
	<text transform="matrix(1 0 0 1 7.4189 27.918)" class="st2 st3 st4">Bienvenue !</text>
</g>
<g id="Calque_2" class="st0">
	<g class="st5">
		<path class="st6" d="M29.3,8.6c0.1-0.3,0.3-0.6,0.5-0.8s0.4-0.4,0.7-0.6s0.5-0.3,0.7-0.3s0.5-0.1,0.7-0.1c0.3,0,0.6,0.1,0.8,0.2
			S33,7.4,33,7.7c0,0.2-0.1,0.5-0.2,0.8c-0.5,1.2-1.1,2.4-1.7,3.5s-1.1,2.3-1.7,3.5s-1.1,2.2-1.7,3.3s-1.1,2-1.6,2.9s-1,1.7-1.4,2.4
			s-0.8,1.3-1.2,1.8c0.8-0.1,1.6-0.1,2.3-0.2s1.4-0.2,2-0.3s1.3-0.3,2-0.4s1.4-0.3,2.1-0.5c0,0,0.1,0,0.2,0s0.1,0,0.2,0
			c0.3,0,0.5,0.1,0.7,0.4s0.3,0.5,0.3,0.8c0,0.2-0.2,0.4-0.5,0.6s-0.8,0.4-1.4,0.6s-1.3,0.4-2.2,0.6s-1.7,0.4-2.7,0.5s-2,0.3-3,0.3
			s-2.1,0.1-3.1,0.1c-1.2,0-2.2-0.1-3.1-0.2s-1.6-0.4-2.1-0.7s-1-0.6-1.2-1s-0.4-0.8-0.4-1.3c0-0.5,0.1-0.8,0.3-1.2s0.4-0.6,0.7-0.8
			s0.6-0.3,1.1-0.4s0.8-0.1,1.3-0.1c0.4,0,0.8,0.1,1.2,0.2s0.8,0.3,1.2,0.5s0.8,0.5,1.1,0.7s0.7,0.5,0.9,0.8c0.2-0.6,0.5-1.2,0.8-2
			s0.7-1.5,1-2.3s0.8-1.6,1.2-2.4s0.8-1.7,1.2-2.5s0.8-1.6,1.2-2.3s0.8-1.4,1.1-2.1s0.6-1.2,0.9-1.7S29.1,8.8,29.3,8.6z M16.2,24.9
			c0,0.1,0.1,0.3,0.2,0.4s0.3,0.3,0.6,0.4s0.7,0.2,1.1,0.3s1,0.1,1.6,0.1c-0.3-0.2-0.6-0.3-0.9-0.5s-0.6-0.3-0.9-0.5
			s-0.5-0.3-0.7-0.4s-0.4-0.1-0.6-0.1C16.4,24.6,16.2,24.7,16.2,24.9z"/>
		<path class="st6" d="M38.6,17.3c0.8,0,1.4,0.2,1.8,0.6s0.6,0.9,0.6,1.6c0,0.4-0.1,0.8-0.3,1.3s-0.6,0.9-1.1,1.4s-1.2,0.9-2.1,1.4
			s-2,1-3.3,1.5c0,0.3,0.2,0.5,0.5,0.7s0.6,0.2,1,0.2c0.4,0,0.9-0.1,1.4-0.2s1-0.3,1.5-0.5s1-0.4,1.5-0.7s0.9-0.5,1.3-0.7
			s0.7-0.4,1-0.6s0.4-0.3,0.5-0.3c0.1-0.1,0.2-0.1,0.2-0.1s0.1,0,0.2,0c0.1,0,0.2,0,0.3,0.1s0.1,0.1,0.2,0.2s0.1,0.2,0.1,0.2
			s0,0.2,0,0.2c0,0.1,0,0.2,0,0.3s-0.1,0.3-0.2,0.4c0,0-0.2,0.2-0.5,0.4s-0.6,0.5-1.1,0.8s-0.9,0.6-1.5,0.9s-1.2,0.6-1.8,0.9
			s-1.3,0.5-2,0.7s-1.4,0.3-2.1,0.3c-0.6,0-1.1-0.1-1.6-0.3s-0.8-0.5-1.2-0.9s-0.6-0.8-0.7-1.3s-0.2-1-0.2-1.6
			c0-0.4,0.1-0.9,0.2-1.4s0.4-1,0.7-1.5s0.7-1,1.1-1.5s1-0.9,1.5-1.3s1.2-0.7,1.9-0.9S37.8,17.3,38.6,17.3z M38,19.3
			c0,0-0.1,0-0.1,0s-0.1,0-0.1,0c-0.4,0-0.7,0.1-1,0.2s-0.6,0.3-0.9,0.6s-0.5,0.5-0.7,0.8s-0.4,0.6-0.6,0.9s-0.3,0.6-0.4,0.9
			s-0.2,0.5-0.3,0.7c0.3-0.2,0.7-0.4,1.1-0.6s0.7-0.4,1-0.6s0.6-0.4,0.8-0.6s0.4-0.3,0.5-0.3c0.4-0.3,0.7-0.5,0.9-0.8
			s0.2-0.4,0.2-0.6c0-0.1,0-0.3-0.1-0.4S38.2,19.3,38,19.3z"/>
		<path class="st6" d="M64.8,21c0.1-0.1,0.3-0.1,0.4-0.2s0.2-0.1,0.3-0.1c0.2,0,0.4,0.1,0.5,0.2s0.2,0.4,0.2,0.6
			c0,0.3-0.1,0.5-0.2,0.8s-0.3,0.5-0.6,0.7c-1,0.8-2,1.5-2.8,2.1s-1.6,1.2-2.3,1.7s-1.4,0.8-2.1,1.1s-1.4,0.4-2.2,0.4
			c-0.7,0-1.3-0.1-1.7-0.4s-0.6-0.6-0.6-1.1c0,0,0-0.1,0-0.1s0-0.1,0-0.1c0-0.3,0.2-0.6,0.5-1s0.6-0.8,1-1.2s0.8-0.8,1.2-1.2
			s0.8-0.8,1.2-1.2s0.7-0.7,0.9-1s0.4-0.6,0.4-0.8c0-0.1,0-0.2-0.1-0.3s-0.3-0.1-0.5-0.1c-0.4,0-0.8,0.1-1.2,0.3s-0.8,0.4-1.2,0.7
			s-0.8,0.6-1.2,1s-0.7,0.8-1.1,1.2s-0.6,0.8-0.9,1.2s-0.5,0.8-0.7,1.1c-0.1,0.1-0.1,0.3-0.2,0.5S51.2,26,51,26.2s-0.3,0.5-0.4,0.8
			s-0.3,0.5-0.4,0.7s-0.2,0.4-0.3,0.6s-0.2,0.3-0.2,0.4c0,0.1-0.1,0.3-0.2,0.5s-0.2,0.5-0.4,0.9s-0.3,0.7-0.5,1s-0.3,0.7-0.5,1
			s-0.3,0.6-0.4,0.8s-0.2,0.4-0.2,0.5c-0.1,0.3-0.2,0.5-0.3,0.7s-0.3,0.4-0.5,0.6s-0.4,0.3-0.6,0.4c-0.2,0.1-0.5,0.2-0.7,0.2
			c-0.4,0-0.6-0.1-0.9-0.2s-0.3-0.4-0.3-0.8c0-0.2,0-0.4,0.1-0.6s0.1-0.4,0.2-0.6s0.2-0.4,0.3-0.6c0.1-0.2,0.2-0.4,0.3-0.5
			c0.5-1,1.1-2,1.6-2.9s1.1-2,1.6-2.9s1-1.9,1.4-2.8s0.8-1.8,1.1-2.7c0.1-0.2,0.2-0.4,0.3-0.7s0.3-0.6,0.5-1s0.4-0.6,0.6-0.8
			s0.5-0.3,0.7-0.3c0.4,0,0.7,0.1,0.8,0.2s0.3,0.4,0.3,0.7c0,0.1,0,0.2,0,0.3s0,0.3-0.1,0.4s-0.1,0.3-0.1,0.4S53.7,20,53.7,20
			c0.4-0.3,0.8-0.7,1.2-1s0.9-0.6,1.3-0.9s0.9-0.5,1.4-0.6s0.9-0.2,1.4-0.2c0.3,0,0.6,0,1,0.1s0.6,0.2,0.8,0.3s0.5,0.3,0.6,0.6
			s0.2,0.5,0.2,0.8c0,0.4-0.1,0.8-0.4,1.3s-0.5,0.9-0.9,1.4s-0.8,0.9-1.2,1.3s-0.8,0.8-1.2,1.2s-0.7,0.7-0.9,0.9s-0.4,0.4-0.4,0.5
			c0,0.1,0,0.2,0.1,0.3s0.2,0.1,0.4,0.1c0.2,0,0.4-0.1,0.7-0.2s0.8-0.4,1.4-0.8s1.3-0.9,2.2-1.6S63.5,22,64.8,21z"/>
		<path class="st6" d="M70.1,17.3c0.4,0,0.8,0,1.2,0.1s0.8,0.3,1.2,0.5s0.7,0.5,0.9,0.9s0.4,0.9,0.4,1.4c0,0.3,0,0.6-0.1,1
			s-0.2,0.8-0.4,1.2c0.1,0.1,0.2,0.2,0.3,0.2s0.3,0.1,0.4,0.1c0.2,0,0.4-0.1,0.7-0.2s0.5-0.3,0.8-0.5s0.5-0.4,0.8-0.6
			s0.5-0.5,0.7-0.7s0.4-0.5,0.6-0.7s0.3-0.4,0.5-0.5c0.1-0.1,0.2-0.1,0.2-0.1c0.1,0,0.3,0.1,0.4,0.2s0.2,0.3,0.2,0.6
			s-0.1,0.5-0.2,0.9s-0.4,0.7-0.8,1c-0.2,0.3-0.5,0.5-0.8,0.9s-0.6,0.6-1,0.9s-0.7,0.5-1.1,0.7s-0.7,0.3-1.1,0.3
			c-0.3,0-0.5,0-0.7-0.1s-0.5-0.2-0.7-0.4c-0.4,0.5-0.8,1-1.2,1.5s-0.9,0.8-1.5,1.2s-1.1,0.6-1.8,0.8s-1.3,0.3-2,0.3
			c-0.3,0-0.6-0.1-1-0.2s-0.7-0.3-1-0.5s-0.6-0.6-0.8-1s-0.3-0.9-0.3-1.5c0-0.4,0.1-0.9,0.2-1.4s0.3-1.1,0.6-1.7s0.6-1.2,1-1.7
			s0.9-1.1,1.4-1.5s1.2-0.8,1.9-1.1S69.2,17.3,70.1,17.3z M69.3,19.8c-0.5,0-0.9,0.1-1.3,0.3s-0.8,0.5-1.1,0.9s-0.6,0.8-0.8,1.3
			s-0.3,1-0.3,1.5c0,0.2,0,0.4,0,0.6s0.1,0.4,0.2,0.6s0.2,0.3,0.4,0.5s0.4,0.2,0.7,0.2c0.4,0,0.9-0.1,1.3-0.4s0.8-0.6,1.1-0.9
			s0.6-0.8,0.8-1.3s0.3-1,0.3-1.5c0-0.2,0-0.4,0-0.6s-0.1-0.4-0.2-0.6S70.2,20.1,70,20S69.6,19.8,69.3,19.8z"/>
		<path class="st6" d="M91.7,24.4c-0.4,0.5-0.9,1-1.5,1.4c-0.6,0.5-1.2,0.9-1.8,1.2s-1.2,0.7-1.8,0.9s-1.1,0.3-1.6,0.3
			s-0.8-0.1-1.1-0.4s-0.4-0.7-0.4-1.3c0-0.4,0.1-1,0.2-1.6c-0.3,0.4-0.6,0.8-1,1.2s-0.8,0.7-1.3,1.1s-1,0.6-1.6,0.8s-1.3,0.3-2,0.3
			c-0.3,0-0.6,0-0.9-0.1s-0.6-0.2-0.8-0.4s-0.4-0.4-0.5-0.7s-0.2-0.6-0.2-1c0,0,0-0.2,0.1-0.4s0.2-0.7,0.4-1.4s0.5-1.4,1-2.4
			s1.1-2.2,1.9-3.6c0.2-0.4,0.4-0.6,0.7-0.8s0.6-0.2,0.9-0.2c0.1,0,0.3,0,0.4,0.1s0.3,0.1,0.4,0.2s0.2,0.2,0.3,0.3s0.1,0.2,0.1,0.4
			c0,0.1,0,0.2,0,0.3c0,0.2-0.2,0.4-0.3,0.7s-0.3,0.6-0.6,0.9s-0.4,0.7-0.7,1.1s-0.5,0.8-0.7,1.2s-0.4,0.9-0.5,1.3s-0.2,0.9-0.2,1.3
			c0,0.2,0,0.3,0.1,0.5s0.3,0.2,0.5,0.2c0.6,0,1.2-0.2,1.8-0.5s1.1-0.8,1.6-1.3s0.9-1.1,1.3-1.7s0.7-1.1,1-1.6
			c0.2-0.3,0.3-0.7,0.5-1.1c0.1-0.4,0.3-0.7,0.5-1.1s0.4-0.6,0.6-0.8s0.5-0.3,0.8-0.3c0.4,0,0.6,0.1,0.8,0.3s0.3,0.5,0.3,0.8
			c0,0.2-0.1,0.4-0.2,0.7c-0.1,0.3-0.3,0.7-0.5,1.1c-0.2,0.4-0.4,0.8-0.7,1.3s-0.5,0.9-0.7,1.4s-0.4,0.9-0.5,1.4
			c-0.1,0.4-0.2,0.9-0.2,1.2c0,0.4,0.2,0.5,0.6,0.5c0.3,0,0.7-0.1,1.1-0.3s0.9-0.4,1.4-0.7s1-0.7,1.5-1.1c0.5-0.4,0.9-0.9,1.3-1.4
			L91.7,24.4z"/>
		<path class="st6" d="M102.4,24.6c-0.7,0.6-1.5,1-2.2,1.3s-1.5,0.5-2.4,0.5c-0.3,0-0.6-0.1-0.8-0.2s-0.6-0.3-1.1-0.6
			c-0.6,0.8-1.3,1.5-1.9,1.9c-0.7,0.4-1.3,0.7-2,0.7c-0.3,0-0.7-0.1-1-0.2s-0.6-0.3-0.8-0.5s-0.4-0.5-0.6-0.9
			c-0.1-0.4-0.2-0.8-0.2-1.3c0-0.6,0.1-1.2,0.2-1.9c0.1-0.7,0.3-1.3,0.5-2s0.4-1.2,0.5-1.8s0.3-1,0.4-1.3c0.2-0.4,0.4-0.7,0.7-0.9
			s0.6-0.3,0.9-0.3c0.1,0,0.3,0,0.4,0.1c0.1,0,0.3,0.1,0.4,0.2s0.2,0.2,0.3,0.3s0.1,0.2,0.1,0.4c0,0.1,0,0.2-0.1,0.3
			c-0.1,0.5-0.3,1-0.5,1.5s-0.4,1.1-0.6,1.7s-0.3,1.1-0.4,1.6c-0.1,0.5-0.2,1-0.2,1.5c0,0.1,0,0.2,0,0.3s0,0.2,0.1,0.3
			s0.1,0.2,0.1,0.3s0.1,0.1,0.2,0.1c0.3,0,0.5-0.1,0.8-0.4s0.7-0.7,1-1.2c0.3-0.3,0.6-0.7,0.9-1.2c0.3-0.5,0.6-0.9,0.8-1.4
			c0.3-0.5,0.5-1,0.7-1.4s0.5-0.9,0.7-1.3s0.5-0.7,0.7-0.9s0.5-0.3,0.7-0.3c0.4,0,0.7,0.1,0.8,0.4s0.2,0.6,0.2,0.9
			c0,0.4-0.1,0.8-0.2,1.1c-0.1,0.3-0.3,0.7-0.5,1.1s-0.5,0.8-0.8,1.2c-0.3,0.4-0.6,1-1,1.6c0.2,0.2,0.4,0.3,0.7,0.3
			c0.4,0,0.7,0,1.1-0.1s0.8-0.2,1.1-0.4s0.7-0.4,1.1-0.6c0.4-0.2,0.7-0.5,1.1-0.8c0.1-0.1,0.3-0.1,0.4-0.1c0.2,0,0.3,0.1,0.4,0.2
			s0.2,0.4,0.2,0.6c0,0.3-0.1,0.5-0.2,0.9S102.7,24.4,102.4,24.6z"/>
		<path class="st6" d="M107.8,17.3c0.4,0,0.8,0,1.2,0.1c0.4,0.1,0.8,0.3,1.2,0.5s0.7,0.5,0.9,0.9s0.4,0.9,0.4,1.4c0,0.3,0,0.6-0.1,1
			s-0.2,0.8-0.4,1.2c0.1,0.1,0.2,0.2,0.3,0.2s0.3,0.1,0.4,0.1c0.2,0,0.4-0.1,0.7-0.2c0.2-0.1,0.5-0.3,0.8-0.5s0.5-0.4,0.8-0.6
			s0.5-0.5,0.7-0.7s0.4-0.5,0.6-0.7c0.2-0.2,0.3-0.4,0.5-0.5c0.1-0.1,0.2-0.1,0.2-0.1c0.1,0,0.3,0.1,0.4,0.2s0.2,0.3,0.2,0.6
			s-0.1,0.5-0.2,0.9c-0.2,0.3-0.4,0.7-0.8,1c-0.2,0.3-0.5,0.5-0.8,0.9s-0.6,0.6-1,0.9s-0.7,0.5-1.1,0.7s-0.7,0.3-1.1,0.3
			c-0.3,0-0.5,0-0.7-0.1c-0.2-0.1-0.5-0.2-0.7-0.4c-0.4,0.5-0.8,1-1.2,1.5s-1,0.8-1.5,1.2c-0.6,0.3-1.1,0.6-1.8,0.8
			c-0.6,0.2-1.3,0.3-2,0.3c-0.3,0-0.6-0.1-1-0.2s-0.7-0.3-1-0.5s-0.6-0.6-0.8-1s-0.3-0.9-0.3-1.5c0-0.4,0.1-0.9,0.2-1.4
			s0.3-1.1,0.6-1.7c0.3-0.6,0.6-1.2,1-1.7c0.4-0.6,0.9-1.1,1.4-1.5s1.2-0.8,1.9-1.1S106.9,17.3,107.8,17.3z M107,19.8
			c-0.5,0-0.9,0.1-1.3,0.3c-0.4,0.2-0.8,0.5-1.1,0.9c-0.3,0.4-0.6,0.8-0.8,1.3s-0.3,1-0.3,1.5c0,0.2,0,0.4,0,0.6s0.1,0.4,0.2,0.6
			c0.1,0.2,0.2,0.3,0.4,0.5s0.4,0.2,0.7,0.2c0.4,0,0.9-0.1,1.3-0.4c0.4-0.2,0.8-0.6,1.1-0.9s0.6-0.8,0.8-1.3s0.3-1,0.3-1.5
			c0-0.2,0-0.4,0-0.6c0-0.2-0.1-0.4-0.2-0.6c-0.1-0.2-0.2-0.3-0.4-0.4S107.3,19.8,107,19.8z"/>
		<path class="st6" d="M115.8,18.5c0.2-0.3,0.4-0.5,0.6-0.6s0.4-0.2,0.7-0.2c0.4,0,0.7,0.1,1,0.4s0.4,0.5,0.4,0.9c0,0.1,0,0.2,0,0.3
			c0,0.1,0,0.2-0.1,0.3c-0.1,0.3-0.2,0.5-0.3,0.6s-0.2,0.3-0.2,0.5c-0.1,0.2-0.1,0.3-0.2,0.4s-0.2,0.3-0.2,0.5
			c-0.1,0.2-0.2,0.5-0.4,0.8s-0.3,0.6-0.4,0.9c-0.1,0.3-0.2,0.6-0.3,0.9c-0.1,0.3-0.1,0.6-0.1,0.8c0,0.3,0.1,0.4,0.2,0.5
			c0.1,0.1,0.3,0.1,0.6,0.1c0.3,0,0.6-0.1,0.9-0.2s0.6-0.3,0.9-0.5s0.6-0.4,0.9-0.6s0.6-0.5,0.8-0.7c0.3-0.2,0.5-0.5,0.7-0.7
			c0.2-0.2,0.4-0.4,0.5-0.6c0.2-0.2,0.4-0.3,0.6-0.3c0.2,0,0.3,0.1,0.4,0.2c0.1,0.2,0.2,0.4,0.2,0.6c0,0.2-0.1,0.5-0.2,0.7
			c-0.1,0.3-0.3,0.5-0.5,0.7c-0.5,0.5-1,1-1.5,1.5s-1,0.9-1.6,1.2c-0.5,0.4-1.1,0.6-1.6,0.9s-1.1,0.3-1.7,0.3
			c-0.8,0-1.4-0.2-1.9-0.6c-0.5-0.4-0.7-1-0.7-1.9c0-0.4,0.1-0.9,0.2-1.3s0.3-0.8,0.5-1.3s0.4-0.8,0.6-1.2s0.4-0.7,0.5-1.1
			c0-0.1,0.1-0.3,0.3-0.6s0.3-0.5,0.4-0.8C115.4,19.2,115.6,18.9,115.8,18.5z M117.4,15.2c0-0.2,0-0.5,0.1-0.7
			c0.1-0.2,0.2-0.5,0.4-0.7s0.4-0.4,0.6-0.5c0.2-0.1,0.5-0.2,0.9-0.2c0.6,0,1,0.1,1.2,0.3s0.3,0.5,0.3,0.8c0,0.2,0,0.4-0.1,0.6
			c-0.1,0.2-0.2,0.4-0.3,0.6s-0.3,0.3-0.6,0.5s-0.5,0.2-0.8,0.2c-0.6,0-1-0.1-1.3-0.3S117.4,15.6,117.4,15.2z"/>
		<path class="st6" d="M126,19.4c0.4-0.2,0.8-0.4,1.2-0.6c0.4-0.2,0.8-0.4,1.2-0.5s0.7-0.3,1.1-0.3s0.7-0.1,0.9-0.1
			c0.4,0,0.8,0.1,1,0.3c0.2,0.2,0.4,0.6,0.4,1.1c0,0.1,0,0.2,0,0.3s0,0.3-0.1,0.4c0,0.3-0.2,0.6-0.4,0.9s-0.5,0.7-0.9,1.1
			s-0.7,0.7-1.1,1.1s-0.7,0.7-1,1c-0.3,0.3-0.6,0.6-0.8,0.8c-0.2,0.2-0.3,0.4-0.3,0.5c0,0.1,0,0.1,0,0.2s0.1,0,0.1,0
			c0.5-0.2,1.1-0.5,1.8-0.8s1.3-0.6,1.9-1s1.3-0.7,1.8-1s1.1-0.6,1.5-0.8c0.1,0,0.2-0.1,0.3-0.1s0.2-0.1,0.3-0.1
			c0.2,0,0.3,0.1,0.4,0.2s0.2,0.3,0.2,0.5c0,0.2-0.1,0.5-0.3,0.8c-0.2,0.3-0.5,0.6-1,0.9c-0.3,0.2-0.7,0.5-1.2,0.7
			c-0.4,0.3-0.9,0.5-1.3,0.8c-0.5,0.3-0.9,0.6-1.4,0.8c-0.5,0.3-0.9,0.5-1.4,0.7s-0.9,0.4-1.2,0.5c-0.4,0.1-0.7,0.2-1,0.2
			c-0.7,0-1.2-0.2-1.5-0.5c-0.3-0.3-0.5-0.7-0.5-1.2c0-0.1,0-0.1,0-0.2c0.1-0.4,0.2-0.8,0.4-1.2s0.4-0.8,0.6-1.1s0.5-0.7,0.7-1
			s0.5-0.6,0.7-0.9s0.4-0.6,0.5-0.8s0.2-0.5,0.2-0.7c0,0,0-0.1,0-0.1s-0.1-0.1-0.1-0.1c-0.1,0-0.3,0-0.6,0.1
			c-0.3,0.1-0.6,0.2-0.9,0.4s-0.6,0.3-0.9,0.5s-0.5,0.4-0.6,0.6c-0.2,0.3-0.3,0.6-0.5,1s-0.4,0.9-0.6,1.3c-0.2,0.5-0.4,0.9-0.6,1.4
			s-0.4,0.8-0.5,1.2c-0.1,0.3-0.3,0.5-0.5,0.8c-0.2,0.2-0.4,0.4-0.6,0.6s-0.5,0.3-0.7,0.4s-0.4,0.1-0.6,0.1c-0.2,0-0.4-0.1-0.5-0.2
			c-0.1-0.1-0.2-0.3-0.2-0.6c0-0.1,0-0.2,0.1-0.4s0.1-0.3,0.2-0.5c0.2-0.3,0.4-0.7,0.5-1.1c0.2-0.4,0.4-0.8,0.6-1.3s0.5-1.1,0.8-1.7
			c0.3-0.6,0.7-1.4,1.1-2.2c-0.1-0.1-0.3-0.3-0.3-0.4s-0.1-0.4-0.1-0.6c0-0.2,0-0.4,0.1-0.6s0.2-0.3,0.4-0.4s0.4-0.2,0.6-0.2
			c0.2-0.1,0.5-0.1,0.7-0.1c0.3,0,0.5,0,0.8,0.1s0.5,0.1,0.7,0.2c0.2,0.1,0.4,0.2,0.5,0.3s0.2,0.3,0.2,0.4c0,0,0,0.1,0,0.1
			s0,0.1-0.1,0.2c0,0.1,0,0.1-0.1,0.2S125.9,19.3,126,19.4C125.9,19.4,125.9,19.4,126,19.4L126,19.4L126,19.4z"/>
		<path class="st6" d="M149.2,24.9C149.2,25,149.2,25,149.2,24.9c0,0.1,0,0.1,0,0.1c0,0.2,0,0.4,0.1,0.5s0.2,0.3,0.4,0.3
			c0.1,0,0.1,0,0.2,0c0.6-0.2,1.1-0.4,1.7-0.8c0.6-0.4,1.1-0.8,1.6-1.2s1-0.9,1.5-1.3s0.8-0.8,1.1-1.2c0.1-0.2,0.3-0.2,0.5-0.2
			c0.1,0,0.3,0.1,0.4,0.2c0.1,0.1,0.2,0.3,0.2,0.6c0,0.2-0.1,0.4-0.2,0.7c-0.1,0.3-0.3,0.5-0.5,0.8c-0.6,0.6-1.2,1.2-1.8,1.8
			s-1.2,1.1-1.8,1.6s-1.2,0.8-1.8,1.1s-1.2,0.4-1.8,0.4c-0.7,0-1.3-0.2-1.7-0.6s-0.6-1-0.6-1.8c0,0,0-0.1,0-0.2s0-0.1,0-0.2
			c-0.2,0.4-0.5,0.8-0.9,1.1s-0.7,0.6-1.2,0.9s-0.9,0.4-1.3,0.6s-0.9,0.2-1.3,0.2c-0.4,0-0.7,0-1-0.1s-0.6-0.3-0.8-0.5
			c-0.2-0.2-0.4-0.5-0.5-0.8c-0.1-0.3-0.2-0.7-0.2-1.2c0-0.8,0.1-1.6,0.4-2.3s0.6-1.4,1-2s0.9-1.2,1.4-1.7c0.5-0.5,1.1-0.9,1.7-1.3
			c0.6-0.3,1.2-0.6,1.7-0.8s1.1-0.3,1.6-0.3c0.6,0,1,0.1,1.4,0.3c0.2,0.1,0.4,0.2,0.5,0.4c0-0.1,0.1-0.2,0.1-0.2
			c0.1-0.2,0.2-0.4,0.3-0.6s0.1-0.3,0.2-0.4c0-0.1,0.1-0.3,0.2-0.6s0.3-0.7,0.5-1.1c0.2-0.4,0.4-0.9,0.6-1.4c0.2-0.5,0.4-1,0.6-1.4
			s0.3-0.8,0.5-1.1s0.2-0.5,0.2-0.6c0.1-0.2,0.2-0.5,0.3-0.7s0.3-0.4,0.4-0.6c0.2-0.2,0.3-0.3,0.6-0.4s0.5-0.2,0.7-0.2
			c0.4,0,0.7,0.1,0.9,0.2s0.4,0.5,0.4,0.9c0,0.2,0,0.4-0.1,0.6s-0.1,0.4-0.2,0.6c-0.1,0.2-0.1,0.4-0.2,0.5c-0.1,0.2-0.1,0.3-0.2,0.5
			c-0.5,1-1,2-1.5,3.2s-1.1,2.3-1.6,3.5s-1,2.3-1.5,3.4S149.5,24.1,149.2,24.9z M148.7,19.2c-0.6,0-1.2,0.1-1.8,0.4
			c-0.7,0.3-1.4,0.6-2,1.1s-1.1,1.1-1.6,1.9c-0.4,0.7-0.7,1.6-0.7,2.5c0,0.4,0.2,0.6,0.5,0.6c0.4,0,0.8-0.1,1.2-0.3s0.7-0.4,1.1-0.7
			c0.3-0.3,0.7-0.6,0.9-1s0.6-0.8,0.8-1.2c0.2-0.4,0.5-0.8,0.7-1.2s0.4-0.8,0.5-1.1c0-0.1,0.1-0.3,0.2-0.5
			C148.5,19.7,148.6,19.5,148.7,19.2z"/>
		<path class="st6" d="M164.5,7.9c-0.4,0.6-0.8,1.1-1.2,1.6c-0.4,0.5-0.7,1-1.1,1.6c-0.4,0.5-0.7,1-1.1,1.6s-0.8,1.1-1.1,1.6
			c-0.2,0.2-0.3,0.4-0.5,0.5s-0.3,0.1-0.5,0.1s-0.3,0-0.4-0.1s-0.1-0.2-0.1-0.3c0-0.1,0-0.1,0-0.2c0.2-0.6,0.4-1.1,0.6-1.6
			c0.2-0.5,0.4-1,0.6-1.6s0.4-1,0.6-1.6c0.2-0.5,0.4-1.1,0.6-1.6c0.1-0.2,0.2-0.4,0.3-0.5s0.3-0.3,0.5-0.4s0.4-0.2,0.7-0.2
			s0.5-0.1,0.7-0.1c0.2,0,0.4,0,0.6,0.1s0.3,0.1,0.5,0.2s0.2,0.2,0.3,0.2c0.1,0.1,0.1,0.2,0.1,0.3C164.7,7.6,164.6,7.7,164.5,7.9z"
			/>
		<path class="st6" d="M179.3,23.7c-0.2,0.2-0.4,0.4-0.7,0.7s-0.6,0.6-1,1c-0.4,0.3-0.8,0.7-1.2,1c-0.4,0.3-0.9,0.7-1.3,0.9
			s-0.9,0.5-1.3,0.7s-0.8,0.3-1.2,0.3c-0.3,0-0.6-0.1-0.9-0.2s-0.4-0.3-0.6-0.6c-0.2-0.2-0.3-0.5-0.4-0.8s-0.1-0.6-0.1-0.9
			c0-0.2,0-0.4,0-0.6s0.1-0.4,0.1-0.6c-0.3,0.4-0.6,0.8-1,1.3s-0.8,0.8-1.2,1.2c-0.4,0.4-0.9,0.6-1.4,0.9c-0.5,0.2-1,0.3-1.5,0.3
			c-0.3,0-0.5-0.1-0.9-0.2c-0.3-0.1-0.7-0.3-1-0.5s-0.6-0.5-0.8-0.9s-0.3-0.8-0.3-1.4c0-0.4,0.1-0.9,0.2-1.4
			c0.1-0.6,0.3-1.1,0.6-1.7c0.2-0.6,0.6-1.2,1-1.8s0.8-1.1,1.4-1.6s1.1-0.8,1.8-1.1s1.4-0.4,2.3-0.4c0.4,0,0.8,0.1,1.1,0.2
			s0.6,0.2,0.8,0.4c0.3,0.2,0.5,0.3,0.7,0.5c0.2-0.1,0.3-0.2,0.5-0.2c0.1-0.1,0.3-0.1,0.5-0.2c0.2-0.1,0.3-0.1,0.4-0.1
			c0.4,0,0.7,0.1,0.9,0.3s0.4,0.4,0.4,0.7c0,0.1,0,0.1,0,0.2c0,0.2-0.1,0.4-0.2,0.7c-0.1,0.3-0.2,0.6-0.3,0.9s-0.3,0.7-0.4,1.1
			c-0.1,0.4-0.3,0.7-0.4,1.1s-0.2,0.7-0.3,1s-0.1,0.6-0.1,0.8c0,0.3,0,0.5,0.1,0.7s0.3,0.3,0.5,0.3c0.1,0,0.3,0,0.5-0.1
			s0.4-0.2,0.7-0.4s0.5-0.3,0.7-0.5c0.2-0.2,0.5-0.4,0.7-0.6c0.5-0.5,1.1-1,1.7-1.7c0.2-0.1,0.3-0.2,0.5-0.2c0.2,0,0.4,0.1,0.5,0.3
			c0.1,0.2,0.2,0.4,0.2,0.6C179.6,23.3,179.5,23.5,179.3,23.7z M169.2,19.9c-0.5,0-0.9,0.1-1.3,0.4s-0.8,0.5-1.1,0.9
			s-0.6,0.8-0.8,1.3s-0.3,0.9-0.3,1.4c0,0.2,0,0.4,0,0.6s0.1,0.4,0.2,0.6s0.2,0.3,0.4,0.4c0.2,0.1,0.4,0.2,0.7,0.2
			c0.2,0,0.5-0.1,0.8-0.3c0.3-0.2,0.6-0.4,0.9-0.7c0.3-0.3,0.6-0.6,0.9-1s0.6-0.7,0.8-1s0.4-0.6,0.6-0.9s0.2-0.5,0.2-0.6
			c0-0.2-0.1-0.4-0.2-0.5s-0.3-0.3-0.5-0.4s-0.4-0.2-0.6-0.2S169.3,19.9,169.2,19.9z"/>
		<path class="st6" d="M184.6,17.3c0.4,0,0.8,0.1,1.1,0.2s0.6,0.2,0.8,0.4c0.3,0.2,0.5,0.3,0.7,0.5c0.1-0.1,0.3-0.2,0.4-0.2
			c0.1-0.1,0.3-0.1,0.5-0.2s0.3-0.1,0.5-0.1c0.4,0,0.8,0.1,1,0.3s0.4,0.4,0.4,0.6c0,0.1,0,0.3-0.1,0.4l-3.4,6.5l0.3-0.2
			c1.2-0.7,2.1-1.2,2.8-1.6s1.3-0.7,1.8-0.9s0.8-0.3,0.9-0.3c0.2,0,0.3-0.1,0.4-0.1c0.2,0,0.4,0.1,0.5,0.3c0.1,0.2,0.2,0.4,0.2,0.6
			c0,0.3-0.1,0.6-0.2,0.9c-0.2,0.3-0.4,0.5-0.7,0.6c-0.4,0.2-1,0.5-1.5,0.7s-1.2,0.5-1.8,0.9s-1.3,0.7-1.9,1s-1.2,0.8-1.8,1.3
			l-2.8,5.1c-0.2,0.6-0.4,1-0.6,1.4c-0.2,0.4-0.4,0.6-0.6,0.8s-0.4,0.3-0.6,0.4s-0.4,0.1-0.7,0.1c-0.4,0-0.7-0.1-0.9-0.4
			c-0.2-0.3-0.3-0.6-0.3-1c0-0.4,0.1-0.8,0.3-1.4s0.4-1.1,0.8-1.7c0.3-0.6,0.7-1.2,1.2-1.9s1-1.3,1.6-2l1.8-2.3
			c-0.4,0.3-0.7,0.6-1.1,0.9s-0.7,0.4-1,0.6s-0.6,0.3-0.9,0.3s-0.5,0.1-0.8,0.1c-0.4,0-0.8-0.1-1.1-0.3s-0.6-0.4-0.9-0.8
			s-0.4-0.7-0.6-1.1s-0.2-0.9-0.2-1.4c0-1.1,0.2-2,0.6-2.9s0.9-1.6,1.6-2.2c0.6-0.6,1.4-1.1,2.2-1.4S183.8,17.3,184.6,17.3z
			 M184,19.8c-0.5,0-0.9,0.1-1.3,0.3s-0.8,0.5-1.1,0.9s-0.6,0.8-0.8,1.3s-0.3,1-0.3,1.5c0,0.2,0,0.3,0,0.5c0,0.2,0.1,0.3,0.2,0.5
			s0.2,0.3,0.4,0.4c0.2,0.1,0.4,0.2,0.7,0.2c0.2,0,0.4-0.1,0.7-0.3c0.3-0.2,0.6-0.4,0.9-0.7c0.3-0.3,0.6-0.6,0.9-0.9s0.5-0.7,0.8-1
			c0.2-0.3,0.4-0.6,0.5-0.9s0.2-0.5,0.2-0.6c0-0.2-0.1-0.4-0.2-0.6s-0.3-0.3-0.4-0.4c-0.2-0.1-0.4-0.2-0.5-0.2
			C184.3,19.9,184.2,19.8,184,19.8z"/>
		<path class="st6" d="M193.5,18.5c0.2-0.3,0.4-0.5,0.6-0.6s0.4-0.2,0.7-0.2c0.4,0,0.7,0.1,1,0.4s0.4,0.5,0.4,0.9c0,0.1,0,0.2,0,0.3
			c0,0.1,0,0.2-0.1,0.3c-0.1,0.3-0.2,0.5-0.3,0.6s-0.2,0.3-0.2,0.5c-0.1,0.2-0.1,0.3-0.2,0.4s-0.2,0.3-0.2,0.5
			c-0.1,0.2-0.2,0.5-0.4,0.8s-0.3,0.6-0.4,0.9c-0.1,0.3-0.2,0.6-0.3,0.9c-0.1,0.3-0.1,0.6-0.1,0.8c0,0.3,0.1,0.4,0.2,0.5
			c0.1,0.1,0.3,0.1,0.6,0.1c0.3,0,0.6-0.1,0.9-0.2s0.6-0.3,0.9-0.5s0.6-0.4,0.9-0.6s0.6-0.5,0.8-0.7c0.3-0.2,0.5-0.5,0.7-0.7
			c0.2-0.2,0.4-0.4,0.5-0.6c0.2-0.2,0.4-0.3,0.6-0.3c0.2,0,0.3,0.1,0.4,0.2c0.1,0.2,0.2,0.4,0.2,0.6c0,0.2-0.1,0.5-0.2,0.7
			c-0.1,0.3-0.3,0.5-0.5,0.7c-0.5,0.5-1,1-1.5,1.5s-1,0.9-1.6,1.2c-0.5,0.4-1.1,0.6-1.6,0.9s-1.1,0.3-1.7,0.3
			c-0.8,0-1.4-0.2-1.9-0.6c-0.5-0.4-0.7-1-0.7-1.9c0-0.4,0.1-0.9,0.2-1.3s0.3-0.8,0.5-1.3s0.4-0.8,0.6-1.2s0.4-0.7,0.5-1.1
			c0-0.1,0.1-0.3,0.3-0.6s0.3-0.5,0.4-0.8C193.2,19.2,193.4,18.9,193.5,18.5z M195.2,15.2c0-0.2,0-0.5,0.1-0.7
			c0.1-0.2,0.2-0.5,0.4-0.7s0.4-0.4,0.6-0.5c0.2-0.1,0.5-0.2,0.9-0.2c0.6,0,1,0.1,1.2,0.3s0.3,0.5,0.3,0.8c0,0.2,0,0.4-0.1,0.6
			c-0.1,0.2-0.2,0.4-0.3,0.6s-0.3,0.3-0.6,0.5s-0.5,0.2-0.8,0.2c-0.6,0-1-0.1-1.3-0.3S195.2,15.6,195.2,15.2z"/>
		<path class="st6" d="M203.8,19.4c0.4-0.2,0.8-0.4,1.2-0.6c0.4-0.2,0.8-0.4,1.2-0.5s0.7-0.3,1.1-0.3s0.7-0.1,0.9-0.1
			c0.4,0,0.8,0.1,1,0.3c0.2,0.2,0.4,0.6,0.4,1.1c0,0.1,0,0.2,0,0.3s0,0.3-0.1,0.4c0,0.3-0.2,0.6-0.4,0.9s-0.5,0.7-0.9,1.1
			s-0.7,0.7-1.1,1.1s-0.7,0.7-1,1c-0.3,0.3-0.6,0.6-0.8,0.8c-0.2,0.2-0.3,0.4-0.3,0.5c0,0.1,0,0.1,0,0.2s0.1,0,0.1,0
			c0.5-0.2,1.1-0.5,1.8-0.8s1.3-0.6,1.9-1s1.3-0.7,1.8-1s1.1-0.6,1.5-0.8c0.1,0,0.2-0.1,0.3-0.1s0.2-0.1,0.3-0.1
			c0.2,0,0.3,0.1,0.4,0.2s0.2,0.3,0.2,0.5c0,0.2-0.1,0.5-0.3,0.8c-0.2,0.3-0.5,0.6-1,0.9c-0.3,0.2-0.7,0.5-1.2,0.7
			c-0.4,0.3-0.9,0.5-1.3,0.8c-0.5,0.3-0.9,0.6-1.4,0.8c-0.5,0.3-0.9,0.5-1.4,0.7s-0.9,0.4-1.2,0.5c-0.4,0.1-0.7,0.2-1,0.2
			c-0.7,0-1.2-0.2-1.5-0.5c-0.3-0.3-0.5-0.7-0.5-1.2c0-0.1,0-0.1,0-0.2c0.1-0.4,0.2-0.8,0.4-1.2s0.4-0.8,0.6-1.1s0.5-0.7,0.7-1
			s0.5-0.6,0.7-0.9s0.4-0.6,0.5-0.8s0.2-0.5,0.2-0.7c0,0,0-0.1,0-0.1s-0.1-0.1-0.1-0.1c-0.1,0-0.3,0-0.6,0.1
			c-0.3,0.1-0.6,0.2-0.9,0.4s-0.6,0.3-0.9,0.5s-0.5,0.4-0.6,0.6c-0.2,0.3-0.3,0.6-0.5,1s-0.4,0.9-0.6,1.3c-0.2,0.5-0.4,0.9-0.6,1.4
			s-0.4,0.8-0.5,1.2c-0.1,0.3-0.3,0.5-0.5,0.8c-0.2,0.2-0.4,0.4-0.6,0.6s-0.5,0.3-0.7,0.4s-0.4,0.1-0.6,0.1c-0.2,0-0.4-0.1-0.5-0.2
			c-0.1-0.1-0.2-0.3-0.2-0.6c0-0.1,0-0.2,0.1-0.4s0.1-0.3,0.2-0.5c0.2-0.3,0.4-0.7,0.5-1.1c0.2-0.4,0.4-0.8,0.6-1.3s0.5-1.1,0.8-1.7
			c0.3-0.6,0.7-1.4,1.1-2.2c-0.1-0.1-0.3-0.3-0.3-0.4s-0.1-0.4-0.1-0.6c0-0.2,0-0.4,0.1-0.6s0.2-0.3,0.4-0.4s0.4-0.2,0.6-0.2
			c0.2-0.1,0.5-0.1,0.7-0.1c0.3,0,0.5,0,0.8,0.1s0.5,0.1,0.7,0.2c0.2,0.1,0.4,0.2,0.5,0.3s0.2,0.3,0.2,0.4c0,0,0,0.1,0,0.1
			s0,0.1-0.1,0.2c0,0.1,0,0.1-0.1,0.2S203.7,19.3,203.8,19.4C203.7,19.4,203.7,19.4,203.8,19.4L203.8,19.4L203.8,19.4z"/>
		<path class="st6" d="M225.9,25.9c0,0.3-0.1,0.6-0.3,0.9s-0.3,0.5-0.5,0.7s-0.5,0.4-0.7,0.5s-0.6,0.2-0.8,0.2
			c-0.4,0-0.8-0.1-1.1-0.4s-0.4-0.6-0.4-1.1c0-0.3,0.1-0.6,0.2-0.9s0.3-0.6,0.5-0.8s0.5-0.4,0.8-0.5s0.6-0.2,0.9-0.2
			c0.4,0,0.8,0.1,1,0.4s0.4,0.6,0.4,1c0,0,0,0.1,0,0.1S225.9,25.8,225.9,25.9z M232.8,10.3c-0.5,1-1,1.9-1.5,2.8s-0.9,1.6-1.3,2.4
			s-0.8,1.6-1.3,2.4s-0.9,1.7-1.5,2.8c-0.1,0.3-0.4,0.5-0.6,0.6s-0.5,0.2-0.8,0.2c-0.2,0-0.4,0-0.5-0.1c-0.1-0.1-0.2-0.2-0.2-0.4
			c0-0.1,0-0.2,0.1-0.3c0.3-0.7,0.6-1.3,0.8-1.9s0.5-1.1,0.7-1.7c0.2-0.5,0.5-1.1,0.7-1.6s0.4-1,0.7-1.6s0.5-1.1,0.7-1.7
			s0.5-1.2,0.8-1.9c0.1-0.2,0.2-0.3,0.3-0.5s0.3-0.3,0.5-0.3s0.4-0.2,0.6-0.2s0.4-0.1,0.6-0.1c0.3,0,0.6,0.1,0.8,0.2
			c0.2,0.1,0.3,0.3,0.3,0.6C232.8,10.1,232.8,10.2,232.8,10.3z"/>
	</g>
</g>
<g id="Calque_3">
	<g>
		<path class="st6" d="M73.2,14.6c-0.2,0.3-0.4,0.7-0.7,1.2s-0.6,1.1-0.9,1.7s-0.7,1.3-1.1,2s-0.8,1.4-1.3,2.1S68.4,23,68,23.6
			s-0.9,1.3-1.3,1.9c1.1-0.1,2.1-0.4,3-0.8s1.9-1,2.7-1.6s1.6-1.4,2.3-2.2s1.3-1.6,1.8-2.5s0.9-1.7,1.2-2.6s0.4-1.7,0.4-2.4
			c0-0.6-0.1-1.2-0.2-1.8s-0.4-1-0.7-1.4s-0.7-0.7-1.3-0.9S74.8,9,74.2,9c-0.6,0-1.3,0.1-1.9,0.2S71,9.5,70.4,9.7s-1.1,0.4-1.6,0.7
			s-0.9,0.6-1.3,0.9c-0.4,0.4-0.7,0.9-1,1.3s-0.6,0.8-0.9,1.2s-0.6,0.6-0.9,0.8s-0.7,0.3-1.2,0.3c-0.8,0-1.3-0.4-1.3-1.1
			c0-0.5,0.2-1,0.5-1.5s0.7-1.1,1.3-1.6s1.2-1,1.9-1.5s1.6-0.9,2.5-1.3s1.9-0.7,2.9-0.9s2.1-0.3,3.1-0.3c1.2,0,2.3,0.2,3.3,0.6
			s1.7,0.9,2.3,1.5s1.1,1.4,1.4,2.3s0.4,1.8,0.4,2.8s-0.2,2.1-0.5,3.2s-0.9,2.2-1.5,3.3s-1.5,2.1-2.5,3.1s-2.1,1.8-3.4,2.5
			s-2.7,1.3-4.2,1.7s-3.2,0.6-5,0.6c-0.4,0-0.7-0.1-0.9-0.4s-0.3-0.6-0.3-0.9c0-0.3,0-0.6,0.1-0.8s0.2-0.5,0.4-0.7l6-12
			c0.3-0.4,0.6-0.8,0.8-1.1s0.5-0.5,0.8-0.6s0.5-0.2,0.6-0.3s0.3-0.1,0.4-0.1c0.4,0,0.8,0.1,0.9,0.4s0.3,0.6,0.3,0.9
			c0,0.3,0,0.6-0.1,0.9S73.4,14.3,73.2,14.6z"/>
		<path class="st6" d="M88.6,17.1c0.8,0,1.4,0.2,1.8,0.6s0.6,0.9,0.6,1.6c0,0.4-0.1,0.8-0.3,1.3s-0.6,0.9-1.1,1.4s-1.2,0.9-2.1,1.4
			s-2,1-3.3,1.5c0,0.3,0.2,0.5,0.5,0.7s0.6,0.2,1,0.2c0.4,0,0.9-0.1,1.4-0.2s1-0.3,1.5-0.5s1-0.4,1.5-0.7s0.9-0.5,1.3-0.7
			s0.7-0.4,1-0.6c0.3-0.2,0.4-0.3,0.5-0.3c0.1-0.1,0.2-0.1,0.2-0.1c0.1,0,0.1,0,0.2,0c0.1,0,0.2,0,0.3,0.1s0.1,0.1,0.2,0.2
			c0.1,0.1,0.1,0.2,0.1,0.2s0,0.2,0,0.2c0,0.1,0,0.2,0,0.3s-0.1,0.3-0.2,0.4c0,0-0.2,0.2-0.5,0.4c-0.3,0.2-0.6,0.5-1.1,0.8
			s-0.9,0.6-1.5,0.9s-1.2,0.6-1.8,0.9s-1.3,0.5-2,0.7s-1.4,0.3-2.1,0.3c-0.6,0-1.1-0.1-1.6-0.3s-0.8-0.5-1.2-0.9s-0.6-0.8-0.7-1.3
			s-0.2-1-0.2-1.6c0-0.4,0.1-0.9,0.2-1.4s0.4-1,0.7-1.5s0.7-1,1.1-1.5s1-0.9,1.5-1.3s1.2-0.7,1.9-0.9S87.8,17.1,88.6,17.1z
			 M88.1,19.1c0,0-0.1,0-0.1,0s-0.1,0-0.1,0c-0.4,0-0.7,0.1-1,0.2s-0.6,0.3-0.9,0.6s-0.5,0.5-0.7,0.8s-0.4,0.6-0.6,0.9
			s-0.3,0.6-0.4,0.9S84,23,83.9,23.2c0.3-0.2,0.7-0.4,1.1-0.6s0.7-0.4,1-0.6s0.6-0.4,0.8-0.6s0.4-0.3,0.5-0.3
			c0.4-0.3,0.7-0.5,0.9-0.8s0.2-0.4,0.2-0.6c0-0.1,0-0.3-0.1-0.4S88.2,19.1,88.1,19.1z M90.3,14c0.4-0.6,0.7-1.2,1.1-1.8
			s0.7-1.2,1-1.8c0.4-0.6,0.8-1,1.1-1.3s0.7-0.4,1.1-0.4c0.3,0,0.5,0.1,0.7,0.3s0.3,0.4,0.3,0.7c0,0.2,0,0.4-0.1,0.6
			S95.2,10.7,95,11c-0.5,0.6-1.1,1.2-1.6,1.8c-0.5,0.6-1.1,1.2-1.6,1.8c-0.3,0.3-0.5,0.6-0.8,0.7s-0.5,0.2-0.7,0.2
			c-0.3,0-0.5-0.2-0.5-0.5C89.8,14.9,90,14.5,90.3,14z"/>
		<path class="st6" d="M96.6,27.3c0-0.5,0.1-0.9,0.3-1.4s0.5-1,0.8-1.5s0.7-1,1.1-1.6s0.7-1.1,1.1-1.6c0.1-0.2,0.2-0.3,0.2-0.4
			s0.1-0.3,0.1-0.4c0-0.2,0-0.3-0.1-0.4s-0.2-0.2-0.4-0.2c-0.4,0-0.8,0.1-1.2,0.3s-0.7,0.4-1.1,0.7s-0.7,0.6-1,1
			c-0.3,0.4-0.6,0.7-0.9,1.1s-0.5,0.8-0.8,1.1s-0.4,0.7-0.6,1c-0.2,0.3-0.3,0.7-0.5,1.1s-0.3,0.7-0.5,1.1c-0.2,0.3-0.4,0.6-0.6,0.8
			s-0.5,0.3-0.8,0.3c-0.4,0-0.6-0.1-0.8-0.3s-0.3-0.5-0.3-0.8c0-0.2,0.1-0.4,0.2-0.8s0.3-0.8,0.5-1.3s0.4-1,0.7-1.6s0.5-1.1,0.8-1.7
			c0.2-0.5,0.5-1.1,0.7-1.5c0.2-0.5,0.4-0.9,0.5-1.2c0.2-0.4,0.4-0.7,0.7-0.9s0.6-0.3,0.9-0.3c0.2,0,0.5,0.1,0.7,0.3
			c0.2,0.2,0.3,0.4,0.3,0.8c0,0.3-0.1,0.5-0.2,0.8c0.3-0.2,0.5-0.5,0.8-0.8s0.6-0.5,1-0.8s0.8-0.4,1.2-0.6s0.9-0.2,1.5-0.2
			c0.3,0,0.5,0,0.8,0.1s0.5,0.2,0.7,0.3c0.2,0.1,0.3,0.3,0.5,0.6s0.2,0.5,0.2,0.8c0.2-0.2,0.5-0.4,0.7-0.7s0.5-0.4,0.9-0.6
			c0.3-0.2,0.6-0.3,1-0.4s0.8-0.2,1.2-0.2c0.3,0,0.6,0,0.9,0.1s0.6,0.2,0.8,0.3s0.4,0.4,0.5,0.6c0.1,0.3,0.2,0.6,0.2,0.9
			c0,0.6-0.1,1.1-0.4,1.7c-0.3,0.5-0.6,1-0.9,1.5c-0.1,0.1-0.3,0.3-0.5,0.6s-0.4,0.5-0.6,0.7s-0.3,0.5-0.5,0.8s-0.2,0.5-0.2,0.8
			c0,0.2,0.1,0.4,0.2,0.4c0.1,0.1,0.3,0.1,0.5,0.1c0.4,0,0.9-0.1,1.3-0.4s0.9-0.5,1.4-0.9c0.5-0.3,0.9-0.7,1.3-1.1
			c0.4-0.4,0.7-0.7,0.9-0.9c0.1-0.1,0.1-0.1,0.2-0.1s0.2,0,0.2,0c0.2,0,0.3,0.1,0.5,0.2s0.2,0.4,0.2,0.6c0,0.2-0.1,0.4-0.2,0.6
			s-0.3,0.5-0.6,0.7c-0.5,0.5-1.1,1-1.6,1.5c-0.6,0.5-1.1,0.9-1.7,1.2c-0.6,0.4-1.1,0.6-1.7,0.9s-1.1,0.3-1.7,0.3
			c-0.7,0-1.3-0.2-1.8-0.5s-0.7-0.9-0.7-1.6c0-0.5,0.1-0.9,0.3-1.4s0.4-0.8,0.7-1.2s0.6-0.8,0.9-1.1s0.6-0.7,0.8-1.1
			c0.1-0.2,0.2-0.3,0.2-0.4s0.1-0.3,0.1-0.4c0-0.2,0-0.3-0.1-0.4s-0.2-0.2-0.4-0.2c-0.4,0-0.8,0.1-1.2,0.3s-0.7,0.4-1.1,0.7
			s-0.7,0.6-1,1c-0.3,0.4-0.6,0.7-0.9,1.1c-0.3,0.4-0.5,0.8-0.8,1.1s-0.4,0.7-0.6,1c-0.2,0.3-0.3,0.7-0.5,1.1s-0.3,0.7-0.5,1.1
			s-0.4,0.6-0.6,0.8s-0.5,0.3-0.8,0.3c-0.1,0-0.2,0-0.4-0.1S97.1,28,97,27.9s-0.2-0.2-0.3-0.3C96.7,27.5,96.6,27.4,96.6,27.3z"/>
		<path class="st6" d="M117.6,17.1c0.4,0,0.8,0,1.2,0.1c0.4,0.1,0.8,0.3,1.2,0.5s0.7,0.5,0.9,0.9s0.4,0.9,0.4,1.4c0,0.3,0,0.6-0.1,1
			s-0.2,0.8-0.4,1.2c0.1,0.1,0.2,0.2,0.3,0.2s0.3,0.1,0.4,0.1c0.2,0,0.4-0.1,0.7-0.2c0.2-0.1,0.5-0.3,0.8-0.5s0.5-0.4,0.8-0.6
			s0.5-0.5,0.7-0.7s0.4-0.5,0.6-0.7c0.2-0.2,0.3-0.4,0.5-0.5c0.1-0.1,0.2-0.1,0.2-0.1c0.1,0,0.3,0.1,0.4,0.2s0.2,0.3,0.2,0.6
			s-0.1,0.5-0.2,0.9c-0.2,0.3-0.4,0.7-0.8,1c-0.2,0.3-0.5,0.5-0.8,0.9s-0.6,0.6-1,0.9s-0.7,0.5-1.1,0.7s-0.7,0.3-1.1,0.3
			c-0.3,0-0.5,0-0.7-0.1c-0.2-0.1-0.5-0.2-0.7-0.4c-0.4,0.5-0.8,1-1.2,1.5s-1,0.8-1.5,1.2c-0.6,0.3-1.1,0.6-1.8,0.8
			c-0.6,0.2-1.3,0.3-2,0.3c-0.3,0-0.6-0.1-1-0.2s-0.7-0.3-1-0.5s-0.6-0.6-0.8-1s-0.3-0.9-0.3-1.5c0-0.4,0.1-0.9,0.2-1.4
			s0.3-1.1,0.6-1.7c0.3-0.6,0.6-1.2,1-1.7c0.4-0.6,0.9-1.1,1.4-1.5s1.2-0.8,1.9-1.1S116.7,17.1,117.6,17.1z M116.8,19.7
			c-0.5,0-0.9,0.1-1.3,0.3c-0.4,0.2-0.8,0.5-1.1,0.9c-0.3,0.4-0.6,0.8-0.8,1.3s-0.3,1-0.3,1.5c0,0.2,0,0.4,0,0.6s0.1,0.4,0.2,0.6
			c0.1,0.2,0.2,0.3,0.4,0.5s0.4,0.2,0.7,0.2c0.4,0,0.9-0.1,1.3-0.4c0.4-0.2,0.8-0.6,1.1-0.9s0.6-0.8,0.8-1.3s0.3-1,0.3-1.5
			c0-0.2,0-0.4,0-0.6c0-0.2-0.1-0.4-0.2-0.6c-0.1-0.2-0.2-0.3-0.4-0.4S117.1,19.7,116.8,19.7z"/>
		<path class="st6" d="M131.9,18.5c0,0.3,0,0.6-0.1,1s-0.2,0.7-0.3,1s-0.4,0.6-0.6,0.8s-0.5,0.3-0.9,0.3c-0.2,0-0.3,0-0.4-0.1
			c-0.1-0.1-0.1-0.2-0.1-0.3c0-0.1,0-0.2,0-0.4s0-0.3,0-0.5c0-0.2,0-0.3-0.1-0.4s-0.2-0.2-0.4-0.2c-0.2,0-0.5,0.1-0.8,0.3
			c-0.3,0.2-0.6,0.4-0.8,0.7c-0.3,0.3-0.5,0.6-0.8,0.9s-0.5,0.7-0.7,1.1s-0.4,0.7-0.5,1s-0.2,0.6-0.2,0.8c0,0.3,0.1,0.6,0.4,0.8
			s0.6,0.3,1,0.3c0.4,0,0.9-0.1,1.4-0.2s1-0.3,1.5-0.6s1-0.5,1.4-0.7s0.9-0.5,1.3-0.8c0.4-0.2,0.7-0.4,0.9-0.6s0.4-0.3,0.5-0.3
			c0.2-0.1,0.3-0.1,0.4-0.1c0.1,0,0.2,0,0.3,0.1s0.1,0.1,0.2,0.2s0.1,0.2,0.1,0.2s0,0.2,0,0.2c0,0.1,0,0.2,0,0.3s-0.1,0.3-0.2,0.4
			c0,0.1-0.2,0.2-0.5,0.4c-0.3,0.2-0.6,0.5-1,0.8c-0.4,0.3-0.9,0.7-1.5,1s-1.1,0.7-1.8,1c-0.6,0.3-1.3,0.6-2,0.8s-1.3,0.3-2,0.3
			c-0.5,0-0.9-0.1-1.3-0.2c-0.4-0.2-0.7-0.4-1-0.6s-0.5-0.6-0.6-0.9s-0.2-0.7-0.2-1.1c0-0.4,0.1-0.9,0.3-1.5s0.5-1.2,0.8-1.8
			s0.8-1.2,1.3-1.8s1-1.1,1.6-1.5c0.6-0.4,1.2-0.8,1.8-1.1s1.2-0.4,1.9-0.4c0.2,0,0.4,0,0.6,0.1c0.2,0,0.4,0.1,0.5,0.2
			s0.3,0.2,0.3,0.4C131.8,18,131.9,18.2,131.9,18.5z"/>
		<path class="st6" d="M138.2,19.2c0.4-0.2,0.8-0.4,1.2-0.6c0.4-0.2,0.8-0.4,1.2-0.5s0.7-0.3,1.1-0.3s0.7-0.1,0.9-0.1
			c0.4,0,0.8,0.1,1,0.3c0.2,0.2,0.4,0.6,0.4,1.1c0,0.1,0,0.2,0,0.3s0,0.3-0.1,0.4c0,0.3-0.2,0.6-0.4,0.9s-0.5,0.7-0.9,1.1
			s-0.7,0.7-1.1,1.1s-0.7,0.7-1,1c-0.3,0.3-0.6,0.6-0.8,0.8c-0.2,0.2-0.3,0.4-0.3,0.5c0,0.1,0,0.1,0,0.2s0.1,0,0.1,0
			c0.5-0.2,1.1-0.5,1.8-0.8s1.3-0.6,1.9-1s1.3-0.7,1.8-1s1.1-0.6,1.5-0.8c0.1,0,0.2-0.1,0.3-0.1s0.2-0.1,0.3-0.1
			c0.2,0,0.3,0.1,0.4,0.2s0.2,0.3,0.2,0.5c0,0.2-0.1,0.5-0.3,0.8c-0.2,0.3-0.5,0.6-1,0.9c-0.3,0.2-0.7,0.5-1.2,0.7
			c-0.4,0.3-0.9,0.5-1.3,0.8c-0.5,0.3-0.9,0.6-1.4,0.8c-0.5,0.3-0.9,0.5-1.4,0.7s-0.9,0.4-1.2,0.5c-0.4,0.1-0.7,0.2-1,0.2
			c-0.7,0-1.2-0.2-1.5-0.5c-0.3-0.3-0.5-0.7-0.5-1.2c0-0.1,0-0.1,0-0.2c0.1-0.4,0.2-0.8,0.4-1.2s0.4-0.8,0.6-1.1s0.5-0.7,0.7-1
			s0.5-0.6,0.7-0.9s0.4-0.6,0.5-0.8s0.2-0.5,0.2-0.7c0,0,0-0.1,0-0.1s-0.1-0.1-0.1-0.1c-0.1,0-0.3,0-0.6,0.1
			c-0.3,0.1-0.6,0.2-0.9,0.4s-0.6,0.3-0.9,0.5s-0.5,0.4-0.6,0.6c-0.2,0.3-0.3,0.6-0.5,1s-0.4,0.9-0.6,1.3c-0.2,0.5-0.4,0.9-0.6,1.4
			s-0.4,0.8-0.5,1.2c-0.1,0.3-0.3,0.5-0.5,0.8c-0.2,0.2-0.4,0.4-0.6,0.6s-0.5,0.3-0.7,0.4s-0.4,0.1-0.6,0.1c-0.2,0-0.4-0.1-0.5-0.2
			c-0.1-0.1-0.2-0.3-0.2-0.6c0-0.1,0-0.2,0.1-0.4s0.1-0.3,0.2-0.5c0.2-0.3,0.4-0.7,0.5-1.1c0.2-0.4,0.4-0.8,0.6-1.3s0.5-1.1,0.8-1.7
			c0.3-0.6,0.7-1.4,1.1-2.2c-0.1-0.1-0.3-0.3-0.3-0.4s-0.1-0.4-0.1-0.6c0-0.2,0-0.4,0.1-0.6s0.2-0.3,0.4-0.4s0.4-0.2,0.6-0.2
			c0.2-0.1,0.5-0.1,0.7-0.1c0.3,0,0.5,0,0.8,0.1s0.5,0.1,0.7,0.2c0.2,0.1,0.4,0.2,0.5,0.3s0.2,0.3,0.2,0.4c0,0,0,0.1,0,0.1
			s0,0.1-0.1,0.2c0,0.1,0,0.1-0.1,0.2S138.1,19.2,138.2,19.2C138.1,19.2,138.1,19.2,138.2,19.2L138.2,19.2L138.2,19.2z"/>
		<path class="st6" d="M161.3,23.5c-0.2,0.2-0.4,0.4-0.7,0.7s-0.6,0.6-1,1c-0.4,0.3-0.8,0.7-1.2,1c-0.4,0.3-0.9,0.7-1.3,0.9
			s-0.9,0.5-1.3,0.7s-0.8,0.3-1.2,0.3c-0.3,0-0.6-0.1-0.9-0.2s-0.4-0.3-0.6-0.6c-0.2-0.2-0.3-0.5-0.4-0.8s-0.1-0.6-0.1-0.9
			c0-0.2,0-0.4,0-0.6s0.1-0.4,0.1-0.6c-0.3,0.4-0.6,0.8-1,1.3s-0.8,0.8-1.2,1.2c-0.4,0.4-0.9,0.6-1.4,0.9c-0.5,0.2-1,0.3-1.5,0.3
			c-0.3,0-0.5-0.1-0.9-0.2c-0.3-0.1-0.7-0.3-1-0.5s-0.6-0.5-0.8-0.9s-0.3-0.8-0.3-1.4c0-0.4,0.1-0.9,0.2-1.4
			c0.1-0.6,0.3-1.1,0.6-1.7c0.2-0.6,0.6-1.2,1-1.8s0.8-1.1,1.4-1.6s1.1-0.8,1.8-1.1s1.4-0.4,2.3-0.4c0.4,0,0.8,0.1,1.1,0.2
			s0.6,0.2,0.8,0.4c0.3,0.2,0.5,0.3,0.7,0.5c0.2-0.1,0.3-0.2,0.5-0.2c0.1-0.1,0.3-0.1,0.5-0.2c0.2-0.1,0.3-0.1,0.4-0.1
			c0.4,0,0.7,0.1,0.9,0.3s0.4,0.4,0.4,0.7c0,0.1,0,0.1,0,0.2c0,0.2-0.1,0.4-0.2,0.7c-0.1,0.3-0.2,0.6-0.3,0.9s-0.3,0.7-0.4,1.1
			c-0.1,0.4-0.3,0.7-0.4,1.1s-0.2,0.7-0.3,1s-0.1,0.6-0.1,0.8c0,0.3,0,0.5,0.1,0.7s0.3,0.3,0.5,0.3c0.1,0,0.3,0,0.5-0.1
			s0.4-0.2,0.7-0.4s0.5-0.3,0.7-0.5c0.2-0.2,0.5-0.4,0.7-0.6c0.5-0.5,1.1-1,1.7-1.7c0.2-0.1,0.3-0.2,0.5-0.2c0.2,0,0.4,0.1,0.5,0.3
			c0.1,0.2,0.2,0.4,0.2,0.6C161.6,23.1,161.5,23.3,161.3,23.5z M151.2,19.8c-0.5,0-0.9,0.1-1.3,0.4s-0.8,0.5-1.1,0.9
			s-0.6,0.8-0.8,1.3s-0.3,0.9-0.3,1.4c0,0.2,0,0.4,0,0.6s0.1,0.4,0.2,0.6s0.2,0.3,0.4,0.4c0.2,0.1,0.4,0.2,0.7,0.2
			c0.2,0,0.5-0.1,0.8-0.3c0.3-0.2,0.6-0.4,0.9-0.7c0.3-0.3,0.6-0.6,0.9-1s0.6-0.7,0.8-1s0.4-0.6,0.6-0.9s0.2-0.5,0.2-0.6
			c0-0.2-0.1-0.4-0.2-0.5s-0.3-0.3-0.5-0.4s-0.4-0.2-0.6-0.2S151.3,19.8,151.2,19.8z"/>
		<path class="st6" d="M164.2,19.6c-0.4,0.7-0.7,1.4-1,2.1s-0.6,1.3-0.9,1.9c-0.1,0.2-0.2,0.5-0.3,0.8s-0.2,0.6-0.2,0.8
			c0,0.1,0,0.2,0.1,0.3c0.1,0.1,0.2,0.1,0.3,0.1c0.2,0,0.5-0.1,0.8-0.2s0.6-0.3,1-0.5s0.7-0.4,1.1-0.7s0.8-0.5,1.2-0.8
			c0.4-0.3,0.8-0.6,1.1-0.8s0.7-0.5,0.9-0.8c0.2-0.1,0.3-0.2,0.4-0.2c0.2,0,0.3,0.1,0.4,0.2s0.2,0.3,0.2,0.6s-0.1,0.5-0.2,0.7
			s-0.3,0.5-0.6,0.7c-0.6,0.6-1.3,1.1-1.9,1.6c-0.7,0.5-1.3,1-1.9,1.4c-0.6,0.4-1.3,0.7-1.9,0.9s-1.2,0.4-1.8,0.4
			c-0.4,0-0.7-0.1-1-0.2s-0.5-0.2-0.6-0.4c-0.2-0.2-0.3-0.4-0.3-0.6s-0.1-0.5-0.1-0.8c0-0.5,0.1-1,0.2-1.5s0.4-1,0.6-1.4
			c0.3-0.6,0.6-1.2,0.9-1.8c0.3-0.6,0.6-1.2,0.8-1.7h-0.6c-0.5,0-0.9-0.1-1.1-0.3s-0.3-0.4-0.3-0.6c0-0.1,0-0.2,0.1-0.4
			s0.2-0.3,0.3-0.4c0.1-0.1,0.3-0.2,0.4-0.3s0.4-0.1,0.6-0.1h1.6l3.1-6.1c0.2-0.4,0.4-0.6,0.7-0.8c0.3-0.2,0.6-0.2,0.9-0.2
			c0.3,0,0.6,0.1,0.8,0.2s0.4,0.4,0.4,0.8c0,0.2,0,0.4-0.1,0.6s-0.2,0.4-0.3,0.7c-0.1,0.2-0.2,0.4-0.3,0.6s-0.3,0.5-0.4,0.7
			s-0.3,0.5-0.4,0.8s-0.3,0.6-0.4,0.8c-0.3,0.6-0.7,1.3-1.1,2h4.8c0.2,0,0.4,0,0.6,0s0.4,0.1,0.5,0.1s0.3,0.2,0.3,0.3
			s0.1,0.3,0.1,0.5c0,0.1,0,0.2-0.1,0.3c0,0.1-0.1,0.2-0.2,0.3s-0.2,0.2-0.4,0.2c-0.2,0.1-0.4,0.1-0.6,0.1L164.2,19.6z"/>
		<path class="st6" d="M169.5,18.4c0.2-0.3,0.4-0.5,0.6-0.6s0.4-0.2,0.7-0.2c0.4,0,0.7,0.1,1,0.4s0.4,0.5,0.4,0.9c0,0.1,0,0.2,0,0.3
			c0,0.1,0,0.2-0.1,0.3c-0.1,0.3-0.2,0.5-0.3,0.6s-0.2,0.3-0.2,0.5c-0.1,0.2-0.1,0.3-0.2,0.4s-0.2,0.3-0.2,0.5
			c-0.1,0.2-0.2,0.5-0.4,0.8s-0.3,0.6-0.4,0.9c-0.1,0.3-0.2,0.6-0.3,0.9c-0.1,0.3-0.1,0.6-0.1,0.8c0,0.3,0.1,0.4,0.2,0.5
			c0.1,0.1,0.3,0.1,0.6,0.1c0.3,0,0.6-0.1,0.9-0.2s0.6-0.3,0.9-0.5s0.6-0.4,0.9-0.6s0.6-0.5,0.8-0.7c0.3-0.2,0.5-0.5,0.7-0.7
			c0.2-0.2,0.4-0.4,0.5-0.6c0.2-0.2,0.4-0.3,0.6-0.3c0.2,0,0.3,0.1,0.4,0.2c0.1,0.2,0.2,0.4,0.2,0.6c0,0.2-0.1,0.5-0.2,0.7
			c-0.1,0.3-0.3,0.5-0.5,0.7c-0.5,0.5-1,1-1.5,1.5s-1,0.9-1.6,1.2c-0.5,0.4-1.1,0.6-1.6,0.9s-1.1,0.3-1.7,0.3
			c-0.8,0-1.4-0.2-1.9-0.6c-0.5-0.4-0.7-1-0.7-1.9c0-0.4,0.1-0.9,0.2-1.3s0.3-0.8,0.5-1.3s0.4-0.8,0.6-1.2s0.4-0.7,0.5-1.1
			c0-0.1,0.1-0.3,0.3-0.6s0.3-0.5,0.4-0.8C169.1,19.1,169.3,18.7,169.5,18.4z M171.1,15.1c0-0.2,0-0.5,0.1-0.7
			c0.1-0.2,0.2-0.5,0.4-0.7s0.4-0.4,0.6-0.5c0.2-0.1,0.5-0.2,0.9-0.2c0.6,0,1,0.1,1.2,0.3s0.3,0.5,0.3,0.8c0,0.2,0,0.4-0.1,0.6
			c-0.1,0.2-0.2,0.4-0.3,0.6s-0.3,0.3-0.6,0.5s-0.5,0.2-0.8,0.2c-0.6,0-1-0.1-1.3-0.3S171.1,15.4,171.1,15.1z"/>
		<path class="st6" d="M181.2,17.1c0.8,0,1.4,0.2,1.8,0.6s0.6,0.9,0.6,1.6c0,0.4-0.1,0.8-0.3,1.3s-0.6,0.9-1.1,1.4s-1.2,0.9-2.1,1.4
			c-0.9,0.5-2,1-3.3,1.5c0,0.3,0.2,0.5,0.5,0.7s0.6,0.2,1,0.2c0.4,0,0.9-0.1,1.4-0.2c0.5-0.1,1-0.3,1.5-0.5c0.5-0.2,1-0.4,1.5-0.7
			s0.9-0.5,1.3-0.7s0.7-0.4,1-0.6s0.4-0.3,0.5-0.3c0.1-0.1,0.2-0.1,0.2-0.1c0.1,0,0.1,0,0.2,0c0.1,0,0.2,0,0.3,0.1s0.1,0.1,0.2,0.2
			c0.1,0.1,0.1,0.2,0.1,0.2s0,0.2,0,0.2c0,0.1,0,0.2,0,0.3s-0.1,0.3-0.2,0.4c0,0-0.2,0.2-0.5,0.4c-0.3,0.2-0.6,0.5-1.1,0.8
			s-1,0.6-1.5,0.9s-1.2,0.6-1.8,0.9s-1.3,0.5-2,0.7s-1.4,0.3-2.1,0.3c-0.6,0-1.1-0.1-1.6-0.3c-0.5-0.2-0.8-0.5-1.2-0.9
			s-0.6-0.8-0.7-1.3s-0.2-1-0.2-1.6c0-0.4,0.1-0.9,0.2-1.4s0.4-1,0.7-1.5s0.7-1,1.1-1.5c0.5-0.5,1-0.9,1.5-1.3s1.2-0.7,1.9-0.9
			S180.4,17.1,181.2,17.1z M180.6,19.1c0,0-0.1,0-0.1,0s-0.1,0-0.1,0c-0.4,0-0.7,0.1-1,0.2s-0.6,0.3-0.9,0.6
			c-0.3,0.2-0.5,0.5-0.7,0.8s-0.4,0.6-0.6,0.9s-0.3,0.6-0.4,0.9c-0.1,0.3-0.2,0.5-0.3,0.7c0.3-0.2,0.7-0.4,1.1-0.6
			c0.4-0.2,0.7-0.4,1-0.6s0.6-0.4,0.8-0.6s0.4-0.3,0.5-0.3c0.4-0.3,0.7-0.5,0.9-0.8s0.2-0.4,0.2-0.6c0-0.1,0-0.3-0.1-0.4
			S180.8,19.1,180.6,19.1z"/>
		<path class="st6" d="M192.7,25.7c0,0.3-0.1,0.6-0.3,0.9s-0.3,0.5-0.5,0.7s-0.5,0.4-0.7,0.5s-0.6,0.2-0.8,0.2
			c-0.4,0-0.8-0.1-1.1-0.4s-0.4-0.6-0.4-1.1c0-0.3,0.1-0.6,0.2-0.9s0.3-0.6,0.5-0.8s0.5-0.4,0.8-0.5s0.6-0.2,0.9-0.2
			c0.4,0,0.8,0.1,1,0.4s0.4,0.6,0.4,1c0,0,0,0.1,0,0.1S192.7,25.7,192.7,25.7z M199.6,10.2c-0.5,1-1,1.9-1.5,2.8s-0.9,1.6-1.3,2.4
			s-0.8,1.6-1.3,2.4s-0.9,1.7-1.5,2.8c-0.1,0.3-0.4,0.5-0.6,0.6s-0.5,0.2-0.8,0.2c-0.2,0-0.4,0-0.5-0.1c-0.1-0.1-0.2-0.2-0.2-0.4
			c0-0.1,0-0.2,0.1-0.3c0.3-0.7,0.6-1.3,0.8-1.9s0.5-1.1,0.7-1.7c0.2-0.5,0.5-1.1,0.7-1.6s0.4-1,0.7-1.6s0.5-1.1,0.7-1.7
			s0.5-1.2,0.8-1.9c0.1-0.2,0.2-0.3,0.3-0.5s0.3-0.3,0.5-0.3s0.4-0.2,0.6-0.2s0.4-0.1,0.6-0.1c0.3,0,0.6,0.1,0.8,0.2
			c0.2,0.1,0.3,0.3,0.3,0.6C199.7,9.9,199.7,10,199.6,10.2z"/>
	</g>
</g>
</svg>
