<?xml version="1.0" encoding="utf-8"?>
<!-- Generator: Adobe Illustrator 23.0.1, SVG Export Plug-In . SVG Version: 6.00 Build 0)  -->
<svg version="1.1" id="Calque_1" xmlns="http://www.w3.org/2000/svg" xmlns:xlink="http://www.w3.org/1999/xlink" x="0px" y="0px"
	 viewBox="0 0 261 272" style="enable-background:new 0 0 261 272;" xml:space="preserve">
<style type="text/css">
	.st0{fill:#E0752D;}
	.st1{fill:#2E0C00;}
	.st2{fill:#ADADAA;}
	.st3{fill:#4B6CAF;}
	.st4{fill:#D1D1D1;}
	.st5{fill:#E0E0E0;}
	.st6{fill:#F4F4F4;}
	
		.st7{opacity:0.47;fill:none;stroke:#000000;stroke-width:0.1989;stroke-linecap:round;stroke-linejoin:round;stroke-miterlimit:10;}
	.st8{fill:#000A2D;}
	.st9{fill:#999998;}
	.st10{fill:#515050;}
	.st11{fill:#FF927C;}
	.st12{fill:#D3D3D3;}
	.st13{fill:#84A51C;}
	.st14{fill:#EAEAEA;}
	.st15{fill:#686868;}
	.st16{fill:#303030;}
	.st17{fill:#232830;}
	.st18{fill:#D9D9DB;}
	.st19{fill:#4054B2;}
	.st20{fill:none;stroke:#4054B2;stroke-width:1.7899;stroke-miterlimit:10;}
	.st21{fill:#2E0400;}
	.st22{fill:#9B9179;}
	.st23{fill:#FF2F3E;}
	.st24{fill:#888889;stroke:#888889;stroke-width:2.427;stroke-linecap:round;stroke-linejoin:round;stroke-miterlimit:10;}
	.st25{fill:none;stroke:#2E0C00;stroke-width:2.882;stroke-miterlimit:10;}
</style>
<ellipse class="st0" cx="130.8" cy="226.9" rx="123.8" ry="25.1"/>
<path class="st1" d="M189.8,235.2l-5.9-17.9l-11.1,0.2l10.7,18.6c0.2,0.4,0.7,0.7,1.2,0.7h3.9C189.5,236.8,190,236,189.8,235.2z"/>
<path class="st2" d="M66.8,171.6l4.9,41c0.3,2.3,2.2,4,4.5,4l4.7,0l105.4,1.1c2.2,0,4.1-1.5,4.5-3.7l9.4-45.6l-27.4-29.4L92,138.5"
	/>
<path class="st1" d="M75,234.4l5.9-17.9l11.1,0.2l-10.7,18.6c-0.2,0.4-0.7,0.7-1.2,0.7h-3.9C75.4,236,74.8,235.2,75,234.4z"/>
<path class="st2" d="M181.9,148.3H84.9c-1.3,0-2.4-1.1-2.4-2.4v-32.2c0-17.6,14.4-32,32-32h37.8c17.6,0,32,14.4,32,32v32.2
	C184.3,147.2,183.2,148.3,181.9,148.3z"/>
<path class="st3" d="M125.4,150.3l-38.7,15.2c-1,0.4-2.2-0.1-2.6-1.1l-16.2-38.7c-0.4-1,0.1-2.2,1.1-2.6l39.7-15.2
	c1-0.4,2.2,0.1,2.6,1.1l15.2,38.7C126.9,148.7,126.4,149.9,125.4,150.3z"/>
<g>
	<path class="st4" d="M54.6,158.6H23.8c-0.1,0-0.2-0.1-0.2-0.2v-2.6c0-0.1,0.1-0.2,0.2-0.2h30.8c0.1,0,0.2,0.1,0.2,0.2v2.6
		C54.8,158.5,54.7,158.6,54.6,158.6z"/>
	<path class="st5" d="M54,155.6H23.2c-0.1,0-0.2-0.1-0.2-0.2v-2.6c0-0.1,0.1-0.2,0.2-0.2H54c0.1,0,0.2,0.1,0.2,0.2v2.6
		C54.2,155.6,54.2,155.6,54,155.6z"/>
	<path class="st6" d="M55.8,152.7H25c-0.1,0-0.2-0.1-0.2-0.2v-2.6c0-0.1,0.1-0.2,0.2-0.2h30.8c0.1,0,0.2,0.1,0.2,0.2v2.6
		C56,152.6,55.9,152.7,55.8,152.7z"/>
	<line class="st7" x1="26.1" y1="156.3" x2="26.1" y2="157.9"/>
	<line class="st7" x1="52.5" y1="156.3" x2="52.5" y2="157.9"/>
	<line class="st7" x1="52" y1="153.4" x2="52" y2="154.9"/>
	<line class="st7" x1="53.5" y1="150.4" x2="53.5" y2="152"/>
	<line class="st7" x1="37.8" y1="156.1" x2="37.8" y2="157.7"/>
	<line class="st7" x1="38.2" y1="156.3" x2="38.2" y2="157.5"/>
	<line class="st7" x1="35.8" y1="153.4" x2="35.8" y2="154.9"/>
	<line class="st7" x1="36.2" y1="153.6" x2="36.2" y2="154.7"/>
	<line class="st7" x1="39.2" y1="150.4" x2="39.2" y2="152"/>
	<line class="st7" x1="39.6" y1="150.6" x2="39.6" y2="151.8"/>
	<line class="st7" x1="25.5" y1="156.3" x2="25.5" y2="157.9"/>
	<line class="st7" x1="26.9" y1="150.4" x2="26.9" y2="152"/>
	<line class="st7" x1="26.3" y1="150.4" x2="26.3" y2="152"/>
	<line class="st7" x1="24.9" y1="153.4" x2="24.9" y2="154.9"/>
	<line class="st7" x1="24.3" y1="153.4" x2="24.3" y2="154.9"/>
</g>
<path class="st8" d="M69,164.4H21.8c-1.2,0-2.2-1-2.2-2.2V161c0-1.2,1-2.2,2.2-2.2H69c1.2,0,2.2,1,2.2,2.2v1.2
	C71.1,163.4,70.2,164.4,69,164.4z"/>
<polyline class="st9" points="86.5,159.6 90.8,180.5 175.8,180.3 178.1,159.6 "/>
<circle class="st2" cx="190.2" cy="158.9" r="17.4"/>
<path class="st10" d="M169.6,221.9c4.2-0.2,7.6,0,7.6,0s4.4,0,5.8-0.4c0,0,2.6-0.8,3.8-1.2c0,0,4-2,7.6-1.6c0,0,4.2,0.6,5.8,3.2
	c0,0,2.4,3.2,1.6,8.2l-23.7,7l-12.7-0.2c0,0-6-2.2-6-4.6L169.6,221.9z"/>
<path class="st11" d="M125.6,58l-6,8.8c0,0-0.8,17.5,11.3,19.9c0,0,2.7,0.3,5.7-1.7c2.2-1.5,4.6-4.4,6-9.6c0,0,0.8-3-0.4-6.4
	l0.4-9.5L125.6,58z"/>
<g>
	<g>
		<path class="st11" d="M128.8,103.9c0.4,0,0.4-0.6,0-0.6C128.4,103.3,128.4,103.9,128.8,103.9L128.8,103.9z"/>
	</g>
</g>
<polygon class="st12" points="99.8,122.6 161.6,122.6 158.3,157.8 137.4,166.8 104.8,166.2 "/>
<path class="st13" d="M125,90.2l-10.3,2.2c-2.5,0.6-4.7,2.2-6.1,4.4c-1.9,2.9-4.4,7.7-6.9,12.3l-6.2,11.5c0,0-4,7-3.6,10.5
	c0,0,1.6,11.7,5.2,15.5l6.6,8.4l-2.6-29.8c0,0-0.4-2,1.4-2.6h7.8l2-2.4l1,2.4h35.6l0.8-2.2l1.4,2.2h7.6c0,0,2.6-0.2,2.4,2.2
	l-2.6,29.2c0,0,8-8.6,9.5-14.1c0,0,2-5.4,1.6-10.3c0,0-1.6-6.4-5-11.7l-10.1-18.7c0,0-3-6.6-9.5-7.4L135,90"/>
<circle class="st14" cx="131.3" cy="147.8" r="7.4"/>
<path class="st11" d="M125.2,99.2c0,0,6.4,5.6,13.3,0c0,0,2.8-2.4,1-6.2c0,0-3.2-4.6-2.8-8.2l-10.5-0.2c0,0,0,4.2-2,7
	C124.2,91.6,121.7,95.4,125.2,99.2z"/>
<path class="st11" d="M117.7,210.1c0,0,4,7.2,5.8,9.5l2.8,3.8c0,0,1.8,2.4,2,2.8c0,0,3.6,3.6,7.2,2.6c0,0,2.4-1,3.2-2.4
	c0,0,0.6-2.4,0-3.2c0,0-4.6-3.6-6.2-4.8c0,0-2.2-2.2-3-3.4c0,0-1.8-4.8-2.8-8.6L117.7,210.1z"/>
<path class="st15" d="M155.3,234c0,0,0.8-1.3,3.1-1c0,0,1.6,0.8,2.8,1c0,0,3.2,2.6,5.8,2.8c0,0-5.2,0.4-8.8,0
	C158.3,236.8,154.3,236.4,155.3,234z"/>
<path class="st15" d="M155.5,229.4l-2-6.8c0,0,0.4-0.8,1-0.6c0,0,3,0.6,4,1.8c0,0,2.4-2.4,5-2.4c0,0,0-1.6,0.8-4
	c0,0,0.4-1.8,1.2-0.8c0,0,4,4.6,4,5c0,0,0.1,0.1,0.2,0.2c0.4,0.5,1.1,1.9,0.8,4.4c0,0-0.2,4-3,6.4c0,0-1.4,1.4-4.2,1.6
	c0,0-2.8,0.2-5.8-1.8C157.5,232.4,156.1,231.4,155.5,229.4z"/>
<ellipse transform="matrix(0.8437 -0.5369 0.5369 0.8437 -98.1471 124.3968)" class="st16" cx="164.5" cy="230.7" rx="1.1" ry="0.7"/>
<path class="st15" d="M188.9,221.5c0,0,7.4-2.4,10.9,2.4c0,0,2.8,3.6,1.4,8.2c0,0-1.4,5.6-7.8,9.9c0,0-6,4.6-14.1,5.2
	c0,0-7.6,0.4-10.1-0.8c0,0-1.8-1.2-1.4-2.4c0,0,0-2.2,2.6-2.4c0,0,3-0.4,5.4-0.4c0,0,4.4-0.4,6-0.6c0,0,5-1,5.8-1.6h-7.4
	c0,0-2.8-0.4-2.4-2.4c0,0,0.2-1.6,2.8-1.6h3c0,0-1.6-4.6-0.6-7.4C182.9,227.6,184.3,222.9,188.9,221.5z"/>
<circle class="st9" cx="190.2" cy="158.3" r="4.3"/>
<path class="st17" d="M134.6,234.6c0,0,3.4,3.4,9.1,1.4c0,0,2.8-1.4,2.8-3.8c0,0,0.4-3-3.2-6.4c0,0-2.2-2.2-4.8-2.8
	c0,0,0.6,3.2-1.3,4.7c0,0-2.1,1.7-4.6,1.1c0,0-3.9-1.6-4.5-2.6C128.2,226.2,131.4,232.2,134.6,234.6z"/>
<path class="st18" d="M131.2,50.6c20.2,0,11.1,26.3,11.1,26.3l0,0c-0.2-7.6-1.2-11.1-1.2-11.1l-1-3.6l-4.2,1.6l-5,2l-7.8,2.8l-2-3.2
	c0,0-1.6,5.4-0.2,11.3l-3-7.2C118.1,69.5,112.3,50.6,131.2,50.6z"/>
<rect x="44.3" y="162.6" class="st8" width="3.2" height="74"/>
<path class="st19" d="M38.9,158.8h-9.5c-1.3,0-2.4-1.1-2.4-2.4v-11.1h14.3v11.1C41.3,157.8,40.2,158.8,38.9,158.8z"/>
<circle class="st20" cx="41.9" cy="151.5" r="4"/>
<path class="st21" d="M123.8,96.8"/>
<path class="st8" d="M61.3,236.6H30.5c-0.9,0-1.7-0.8-1.7-1.7l0,0c0-0.9,0.8-1.7,1.7-1.7h30.8c0.9,0,1.7,0.8,1.7,1.7l0,0
	C63,235.8,62.2,236.6,61.3,236.6z"/>
<path class="st22" d="M87.9,172.2"/>
<polyline class="st9" points="91.1,168.7 119.5,169.1 177.2,170.3 176,180.9 122.2,180.4 88.7,180.4 88.7,171.6 88.7,168.7 "/>
<path class="st11" d="M122.5,171.6l-14.9,5.4l-6.6-3.7c0,0-3.7,0.7-2.1,5.1c0,0,1,3.3,5.1,4.2l21-1.2L122.5,171.6z"/>
<path class="st17" d="M100.6,172c0,0-3-10.1,2.8-14.1c0,0,5.8-3.6,10.9,2c0,0,1.6,2,3,6.4l17.5,0.2l12.7-6.6c0,0,10.7-5.4,13.3-6
	c0,0,5.6-2.6,9.1-0.6c0,0,4.6,2.2,4.8,6.6c0,0,0.6,4.6-4.6,8.2c0,0-5.4,4.4-17.1,7.4c0,0-12.7,3-16.5,3.8l-11.7,2
	c0,0-2.6-8.8-2.4-9.5l-3.4,1.4c0,0,1.8,8.6,2.4,11.9c0,0,2.2,10.1,2.8,13.1l2.4,8.6l-8.9,3.6c0,0-9.7-17.7-9.7-18.3
	C107.9,191.8,103.4,183.3,100.6,172z"/>
<circle class="st2" cx="76.6" cy="158.9" r="17.4"/>
<circle class="st9" cx="76.6" cy="158.3" r="4.3"/>
<path class="st17" d="M92.4,170.6c0,0,5.5-0.7,8.2,1.7l0.3,0.8c0,0-2.3,0.4-2.5,2.5c0,0-0.5,2.9,1.6,4.8c0,0,1.9,1.7,3.9,2.1
	l0.1,0.5c0,0-6.2,0.3-8.4-0.1c0,0-3.6-0.2-6.4-3.8c0,0-1.8-2.2-1.2-5.2C88,173.9,88.8,170.8,92.4,170.6z"/>
<path class="st23" d="M137.4,139.5v-3.7c0-3.5-2.8-6.3-6.3-6.3H131c-3.5,0-6.3,2.8-6.3,6.3v3.9c-2.1,1.8-3.4,4.5-3.4,7.5
	c0,5.4,4.4,9.8,9.8,9.8c5.4,0,9.8-4.4,9.8-9.8C141,144.1,139.6,141.3,137.4,139.5z M127.9,135.4c0-1.7,1.4-3.1,3.1-3.1h0.1
	c1.7,0,3.1,1.4,3.1,3.1v2.3c-0.9-0.3-1.9-0.5-3-0.5c-1.2,0-2.3,0.2-3.3,0.6L127.9,135.4z M136.2,152.3h-10c-0.1,0-0.2-0.1-0.1-0.2
	c0.1-1.8,1.2-3.7,2.9-4.4c-0.9-0.7-1.5-1.8-1.5-3c0-2.2,1.9-3.9,4.1-3.7c1.7,0.2,3,1.5,3.2,3.2c0.2,1.4-0.4,2.6-1.4,3.4
	c1.7,0.7,3,2.6,3,4.5C136.3,152.3,136.2,152.3,136.2,152.3z"/>
<line class="st24" x1="214" y1="215" x2="214.5" y2="31.5"/>
<path class="st24" d="M175.6,20l-23.1,10.9c0,0,13.3,4.9,23.1,14.6V20l37.2,18.1"/>
<path class="st25" d="M228.4,58"/>
<ellipse transform="matrix(0.5 -0.866 0.866 0.5 47.5192 161.0194)" class="st12" cx="163.2" cy="39.4" rx="3.5" ry="13.5"/>
<line class="st24" x1="195.8" y1="216" x2="233.6" y2="216"/>
<ellipse class="st18" cx="130" cy="49.5" rx="5" ry="3.5"/>
</svg>
