<?xml version="1.0" encoding="utf-8"?>
<!-- Generator: Adobe Illustrator 23.0.1, SVG Export Plug-In . SVG Version: 6.00 Build 0)  -->
<svg version="1.1" id="Calque_1" xmlns="http://www.w3.org/2000/svg" xmlns:xlink="http://www.w3.org/1999/xlink" x="0px" y="0px"
	 viewBox="0 0 458 272" style="enable-background:new 0 0 458 272;" xml:space="preserve">
<style type="text/css">
	.st0{opacity:0.25;fill:#FFFFFF;}
	.st1{opacity:0.25;}
	.st2{fill:#9BB8CC;}
	.st3{fill:#FFFFFF;}
	.st4{fill:#FF8B77;}
	.st5{fill:#917146;}
	.st6{fill:#C93705;}
	.st7{fill:#FF8971;}
	.st8{fill:#3E516D;}
	.st9{fill:#4B5B3B;}
	.st10{fill:#232830;stroke:#232830;stroke-width:1.7514;stroke-miterlimit:10;}
	.st11{fill:#939393;}
	.st12{fill:#5F6C75;}
	.st13{opacity:0.43;fill:#5F6C75;}
	.st14{fill:#1B85CC;}
	.st15{font-family:'AauxProBlack';}
	.st16{font-size:7.823px;}
	.st17{fill:#EDE9E8;}
	.st18{fill:#E74500;}
	.st19{fill:#B9A100;}
	.st20{fill:#FF927C;}
	.st21{fill:#00398B;}
	.st22{fill:#262628;}
	.st23{fill:#FF8A72;}
	.st24{fill:#D8450B;}
	.st25{fill:#844D04;}
	.st26{fill:#403F76;}
	.st27{fill:#FF8D71;}
	.st28{fill:#A9DFE0;}
	.st29{fill:#DD0A2D;}
	.st30{fill:#898888;}
	.st31{fill:#999696;}
	.st32{fill:#FFB149;}
	.st33{fill:#FF884D;}
	.st34{fill:#26265A;}
	.st35{fill:#FF2F3E;}
	.st36{fill:#FFB100;}
	.st37{fill:#0F9FAA;}
	.st38{fill:#FF8C76;}
	.st39{fill:#FF8B73;}
	.st40{fill:#2F2427;}
	.st41{fill:#006C73;}
	.st42{fill:#8B003A;}
	.st43{fill:#24191C;}
	.st44{fill:#0050FF;}
	.st45{fill:#FF0038;}
</style>
<path class="st0" d="M123.5,241.1h85v-69v-70.3h-63l-16.4-23.1l-0.1-22.6h29.2V36.3H129l0-0.1l-3.8,0l0.1,37.1l-14.5-20.4
	l-33.5,48.2H13v140h85 M50.9,113.8h4.7v16.7h-4.7V113.8z M50.9,142.3h4.7V159h-4.7V142.3z M37.1,113.8h4.7v16.7h-4.7V113.8z
	 M37.1,142.3h4.7V159h-4.7V142.3z M123.5,136.6H98v-34.8h25.4V136.6z M181.3,114h4.7v16.7h-4.7V114z M181.3,142.4h4.7v16.7h-4.7
	V142.4z M167.5,114h4.7v16.7h-4.7V114z M167.5,142.4h4.7v16.7h-4.7V142.4z"/>
<path class="st0" d="M310.1,242.4h27.3V39.6H218.9v202.8H247 M239.7,58.3h27.1v27.1h-27.1V58.3z M239.7,102.9h27.1V130h-27.1V102.9z
	 M267,174.5h-27.1v-27.1H267V174.5z M313.6,174.5h-27.1v-27.1h27.1V174.5z M313.6,130h-27.1v-27.1h27.1V130z M313.6,85.4h-27.1V58.3
	h27.1V85.4z"/>
<g class="st1">
	<rect x="363.9" y="143" class="st2" width="27.1" height="27.1"/>
	<rect x="404.4" y="143" class="st2" width="27.1" height="27.1"/>
	<path class="st3" d="M397.4,54.6l-49.3,61.6v126.7h98.5V116.2L397.4,54.6z M408.9,117.3c0,0-6.3,5.8-12,10.6c0,0,0,0,0,0h0
		c0,0,0,0,0,0c-5.8-4.8-12-10.6-12-10.6c-6.3-6.7-1.9-12.5-1.9-12.5c5.7-7.6,13.7-0.3,14,0c0.3-0.3,8.3-7.6,14,0
		C410.9,104.8,415.2,110.6,408.9,117.3z"/>
</g>
<path class="st0" d="M19.5,47.2c0,0,2.7-4.6,7.3-4.2c0,0,8.5-11.9,16.1,1.9c0,0,0.4-11.5,11.9-12.3c0,0,9.2-1.2,11.9,7.7
	c0,0,11.5-6.5,14.6,5.8c0,0,0-3.5,5-1.2c0,0,5-6.5,11.9,1.5"/>
<path class="st0" d="M348.9,48.7c0,0,2.7-4.6,7.3-4.2c0,0,8.5-11.9,16.1,1.9c0,0,0.4-11.5,11.9-12.3c0,0,9.2-1.2,11.9,7.7
	c0,0,11.5-6.5,14.6,5.8c0,0,0-3.5,5-1.2c0,0,5-6.5,11.9,1.5"/>
<path class="st0" d="M133.3,22.7c0,0,2.7-4.6,7.3-4.2c0,0,8.5-11.9,16.1,1.9c0,0,0.4-11.5,11.9-12.3c0,0,9.2-1.2,11.9,7.7
	c0,0,11.5-6.5,14.6,5.8c0,0,0-3.5,5-1.2c0,0,5-6.5,11.9,1.5"/>
<path class="st4" d="M345.1,182.2l-1.7,1l0.6,0.7c-0.2,0.3-0.4,0.6-0.4,1c-0.1,1.2,0.7,2.2,1.8,2.4c1.2,0.1,2.2-0.7,2.4-1.8
	c0.1-1.2-0.7-2.2-1.8-2.4c-0.2,0-0.5,0-0.7,0L345.1,182.2z"/>
<rect x="340.7" y="177.7" transform="matrix(-0.5 -0.866 0.866 -0.5 359.7229 596.8522)" class="st3" width="23" height="33.7"/>
<path class="st5" d="M52.9,172.7c0.3-0.2,0.7-0.4,0.9-0.6c0.3-0.3,0.4-0.7,0.7-0.9c0.8-0.8,2.4-0.5,2.7,0.6c0.4,1.3-0.7,2.5-2,2.4
	c-0.4,0-0.7-0.3-1.1-0.3c-0.2,0-0.6,0.2-0.8,0.1C53.1,173.8,53,173,52.9,172.7z"/>
<path class="st6" d="M53.3,172.5c0,0-6.5,3.5-12.7,1.5l-0.4,2.7c0,0,8.8,1.9,14.6-2.7L53.3,172.5z"/>
<polygon class="st3" points="44.4,193.2 61.1,191.4 73.1,154.5 56.3,156.4 "/>
<path d="M39.8,155.4c-2.3-0.2-4.5-0.3-6.8-0.3c0.5-0.5,0.6-1.1,0.6-1.7c0.3-2.5,0.5-4.9,0.5-7.4c0-0.3,3.7-1.3,4.2-1.2
	c1.3,0.3,1.4,1.8,1.4,2.6C39.8,150.1,39.7,152.8,39.8,155.4z"/>
<path class="st5" d="M30.9,147c-1.5,2-2.1,4.7-1.6,7.2c0.2,1.1,0.7,2.3,1.5,3.1c0.3,0.3,0.6,0.5,0.8,0.8c0.2,0.3,0.2,0.6,0.4,0.9
	c0.5,1,0.7,2.4,1.8,2.4c0.4,0,2-1.4,2.3-1.7c0.3-0.4,0.1-1.3-0.2-1.6s-0.6-0.7-0.9-1c-1.1-1-1.3-2.1-1.2-3.6c0-0.2,0-0.5,0.1-0.7
	c0.3-0.4,0.8-0.3,1.3-0.4c1.1-0.1,2.1-0.9,2.6-1.9c0.5-1,0.7-2.1,0.9-3.2c0.3-2-0.1-4-2.5-3.6C34.1,144.3,32.2,145.3,30.9,147z"/>
<path class="st7" d="M351.1,136.8c0,0-0.4,5.8,1.5,7.3c0,0,0.4,0.4,1.2,0.4c0,0,1.5-0.4,1.5,1.5c0,0,0.4,1.6-1.2,2.7
	c0,0-3.1,2.7-0.4,4.6c0,0,5.4,0,5.8-2.7c0,0,0.4-1.9-1.5-3.1c0,0-0.8-5.8-2.7-7.3C355.4,140.2,354.6,137.2,351.1,136.8z"/>
<polygon class="st3" points="102.4,150.4 95.4,152.1 95.4,196.3 112.7,193.3 114.6,182.5 110.7,159 "/>
<path class="st8" d="M112.3,187.5l6.5,66.5h-4.2l-13.1-53.4l-1.9,53h-4.2l-4.2-44.2l-1.5-21.1C89.6,188.3,103.5,196.3,112.3,187.5z"
	/>
<path d="M165.9,250.5l3.1,0.4l0.8-54.9c0,0,13.1,53.4,14.2,54.6h2.7l-7.9-70.5l-19.8,0.6c0,0-1.2,9.2,0.8,19.6L165.9,250.5z"/>
<path class="st3" d="M169.8,151l1.5,0.4l7.7,5.4l0.4,25c0,0-3.8,4.2-10.8,2.7l-1.5-30.4"/>
<path class="st9" d="M169.8,151c0,0,7.3,3.1,8.1,8.1c0,0,0.8,3.1,0,12.3c0,0-0.4,4.6,0.8,6.1l0.8,11.1c0,0,1.9-1.5,1.2-8.5
	l-0.4-18.1c0,0,8.1,3.1,13.8-2.7c0,0,5.8-5.4,5.8-13.8h-2.3c0,0-1.2,6.9-4.2,9.2c0,0-6.1,5.4-12.3,2.3c0,0-8.3-6.2-11.5-7.3
	L169.8,151z"/>
<path class="st10" d="M271.1,249.9h-49c-6.4,0-11.7-5.3-11.7-11.7V123.5c0-6.4,5.3-11.7,11.7-11.7h49c6.4,0,11.7,5.3,11.7,11.7
	v114.8C282.7,244.7,277.5,249.9,271.1,249.9z"/>
<g>
	<path class="st11" d="M256.2,242h-17c-1.3,0-1.6-0.4-1.6-0.9c0-0.5,0.4-0.9,0.9-0.9h17c0.5,0,0.9,0.4,0.9,0.9
		C256.3,241.7,255.9,242,256.2,242z"/>
</g>
<rect x="225.8" y="175.6" class="st12" width="43.2" height="3.7"/>
<rect x="225.8" y="173" class="st13" width="43.2" height="3.7"/>
<path class="st14" d="M259.6,197.7h-24.3c-3.1,0-5.5-2.5-5.5-5.5v0c0-3.1,2.5-5.5,5.5-5.5h24.3c3.1,0,5.5,2.5,5.5,5.5v0
	C265.1,195.2,262.6,197.7,259.6,197.7z"/>
<text transform="matrix(1 0 0 0.99 238.3457 195.2578)" class="st3 st15 st16">VOTE</text>
<g>
	<path class="st11" d="M255.5,121.8h-19c-0.5,0-1-0.4-1-1s0.4-1,1-1h19c0.5,0,1,0.4,1,1S256,121.8,255.5,121.8z"/>
</g>
<g>
	<path class="st11" d="M259.8,123.4c-1.3,0-2.3-1-2.3-2.3s1-2.3,2.3-2.3s2.3,1,2.3,2.3S261.1,123.4,259.8,123.4z M259.8,120.4
		c-0.4,0-0.7,0.3-0.7,0.7c0,0.4,0.3,0.7,0.7,0.7s0.7-0.3,0.7-0.7C260.5,120.7,260.2,120.4,259.8,120.4z"/>
</g>
<polyline class="st17" points="239.8,179.3 229.3,175.7 245.3,129.3 278.8,140.8 265.5,179.4 "/>
<path class="st18" d="M25.2,163.7c0.5,1.6,1.4,3,2,4.6c0.5,1.4,2.2,4.4,1.5,3.1c-0.1-0.3,1,2.3,1.3,3c0.3,0.7,0.3,1.6-0.1,2.2
	c-0.9,0.6-1.7,1.2-2.5,1.9c-1.1,0.9-2.2,2-2.8,3.3c-0.6,1.3-0.7,2.9,0,4.1c0.8,1.3,2.4,1.9,3.9,2.2c3.2,0.8,6.6,0.9,9.9,0.5
	c0.7-0.1,1.5-0.2,2.1-0.7c1.5-1,1.7-3.1,1.5-4.8c-0.2-1.6-0.6-3.1-0.8-4.7c-0.3-3,0.4-6,0.7-9.1c0.3-3,0.2-6.3-1.5-8.8
	c-1.5-2.3-4.1-3.6-6.7-4.6c0.2,0.6,0.7,1.1,1.2,1.6c0.4,0.5,0.8,1.2,0.6,1.8c-0.2,0.5-0.7,0.9-1.3,0.9c-0.5,0.1-1.1,0-1.6-0.1
	c-2.2-0.5-4.7-1.2-6.9-1.3c-1.1,0-1.1,0.8-1.1,1.9C24.7,161.7,24.9,162.7,25.2,163.7z"/>
<path class="st18" d="M51.8,174.4c0,0-6.5,3.5-12.7,1.5l-0.4,2.7c0,0,8.8,1.9,14.6-2.7L51.8,174.4z"/>
<path class="st19" d="M29.1,253.2l-6.5-56.5c0,0-1.5-6.9,1.5-11.5c0,0,12.2,4.6,17.7,0.4c0,0,5.4,17.7,6.5,31.5c0,0,1.9,20.7,0,36.1
	h-3.5c0,0,0-34.6-8.8-45c0,0-3.8,18.8-4.2,45H29.1z"/>
<path class="st20" d="M166.8,250.9l-0.1,6.5h4.6c0,0,0-3.5-2.7-4.6v-1.9"/>
<path d="M167.1,252.8c0,0-1.2-0.4-1.2,1.2v3.8c0,0.2,0.2,0.4,0.4,0.4h8.3c0.3,0,0.5-0.3,0.3-0.6c-0.4-0.7-1.3-1.6-3.6-1.4
	c0,0-0.4,0.5-1,0.8c-0.4,0.2-0.9-0.1-1-0.6C169.2,255.6,168.7,253.9,167.1,252.8z"/>
<path class="st20" d="M184.4,250.5l-0.1,6.5h4.6c0,0,0-3.5-2.7-4.6v-1.9"/>
<path d="M184.8,252.4c0,0-1.2-0.4-1.2,1.2v3.8c0,0.2,0.2,0.4,0.4,0.4h8.3c0.3,0,0.5-0.3,0.3-0.6c-0.4-0.7-1.3-1.6-3.6-1.4
	c0,0-0.4,0.5-1,0.8c-0.4,0.2-0.9-0.1-1-0.6C186.9,255.2,186.4,253.5,184.8,252.4z"/>
<path class="st20" d="M29.6,253.2l-0.1,6.5h4.6c0,0,0-3.5-2.7-4.6v-1.9"/>
<path class="st21" d="M29.9,255.1c0,0-1.2-0.4-1.2,1.2v3.8c0,0.2,0.2,0.4,0.4,0.4h8.3c0.3,0,0.5-0.3,0.3-0.6
	c-0.4-0.7-1.3-1.6-3.6-1.4c0,0-0.4,0.5-1,0.8c-0.4,0.2-0.9-0.1-1-0.6C32,257.9,31.5,256.2,29.9,255.1z"/>
<path class="st20" d="M46.1,252.8l-0.1,6.5h4.6c0,0,0-3.5-2.7-4.6v-1.9"/>
<path class="st21" d="M46.4,254.7c0,0-1.2-0.4-1.2,1.2v3.8c0,0.2,0.2,0.4,0.4,0.4h8.3c0.3,0,0.5-0.3,0.3-0.6
	c-0.4-0.7-1.3-1.6-3.6-1.4c0,0-0.4,0.5-1,0.8c-0.4,0.2-0.9-0.1-1-0.6C48.5,257.5,48.1,255.8,46.4,254.7z"/>
<path class="st20" d="M356.5,219l1,32.3c-2.7,1.2-2.7,4.6-2.7,4.6h4.6l-0.1-5l4.5-32.3"/>
<path class="st22" d="M359,251.3c0,0,1.2-0.4,1.2,1.2v3.8c0,0.2-0.2,0.4-0.4,0.4h-8.3c-0.3,0-0.5-0.3-0.3-0.6
	c0.4-0.7,1.3-1.6,3.6-1.4c0,0,0.4,0.5,1,0.8c0.4,0.2,0.9-0.1,1-0.6C356.9,254,357.4,252.4,359,251.3z"/>
<path class="st20" d="M343.5,215.2l-3.6,36.1c-2.7,1.2-2.7,4.6-2.7,4.6h4.6l-0.1-6.5l8.7-31.5"/>
<path class="st22" d="M341.4,251.3c0,0,1.2-0.4,1.2,1.2v3.8c0,0.2-0.2,0.4-0.4,0.4h-8.3c-0.3,0-0.5-0.3-0.3-0.6
	c0.4-0.7,1.3-1.6,3.6-1.4c0,0,0.4,0.5,1,0.8c0.4,0.2,0.9-0.1,1-0.6C339.3,254,339.7,252.4,341.4,251.3z"/>
<path class="st23" d="M174.4,140.2c0,0,1.5,7.7-3.8,7.7h-0.4c0,0-0.8,1.9-0.4,2.7c0,0,1.2,1.5,2.3,2.3c0,0,1.9,1.5,0,3.1
	c0,0-2.3,0.8-3.5-0.4c0,0-1.2-6.1-1.9-6.9l1.5-7.7l3.8-1.9L174.4,140.2z"/>
<path class="st5" d="M52.2,174.9c0.2-0.3,0.6-0.6,0.7-0.9c0.2-0.3,0.2-0.7,0.4-1.1c0.6-1,2.1-1.1,2.8-0.1c0.8,1.2,0,2.6-1.3,2.8
	c-0.4,0.1-0.8-0.1-1.1,0c-0.2,0-0.5,0.4-0.7,0.4C52.8,175.9,52.4,175.1,52.2,174.9z"/>
<path d="M39.7,146.4c0.1-2-0.2-4.2-1.7-5.5c-1.1-1-2.7-1.3-4.2-1.4c-1.5-0.1-2.3,0-3.7,0.6c-1.4,0.6-2.6,1.9-2.8,3.4
	c-0.2,1.3-0.5,2.7-0.8,4c-0.3,1.2-0.4,1.9-0.9,3c-1.7,3.5-2.9,5.4-4,8.1c2.7,0.5,3.9,0.9,6.4,1.7c1.7,0.5,3.4,1.1,5.1,0.9
	c-0.4-1-0.8-2-1.2-3.1c-0.4-1.1-0.8-2.2-1-3.3c-0.5-2.3-0.3-4.8,0-7.1c0-0.2,0-0.3,0.1-0.4c0.1-0.2,0.3-0.2,0.5-0.3
	c1.5-0.6,3.2-0.8,4.8-0.8"/>
<path class="st24" d="M174.6,142l-6.4-1l-0.4,11l-7.7-2.5c0,0,1.5-5.8,3.8-10.4c0,0,1.9-4.2,7.7-2.3
	C171.7,136.8,175.2,137.9,174.6,142z"/>
<path class="st9" d="M169.8,159.4c0,0-0.4-4.6-1.9-7.7l-3.1-0.8c0,0-1.2,0.8-9.2,8.5c0,0-7.7,5.8-3.8,16.9c0,0,3.1,6.5,5.8,8.8v6.1
	c0,0,6.9,1.9,10.4-3.1c0,0,1.9-1.9,1.9-9.2C169.8,179,170.2,167.1,169.8,159.4z M157.5,180.6c-3.1-2.7-3.1-8.8-3.1-8.8
	c0.4-6.1,4.6-8.1,4.6-8.1L157.5,180.6z"/>
<path class="st23" d="M159.8,187.1l1.2-1.9c0,0,0.4,0.4,1.5,0.4c0,0,2.7,0.4,1.5,3.1c0,0-1.5,1.9-3.1,0
	C160.9,188.6,160.6,187.5,159.8,187.1z"/>
<path class="st23" d="M202.4,143.3c0,0-0.4,0.8-2.7,1.5v0.8H198l-0.6-2.3c0,0-1.2-2.3,0.8-3.5C198.2,139.8,203.2,137.5,202.4,143.3z
	"/>
<path class="st23" d="M106.5,139.1c0,0,0.4,4.2-1.2,6.5c0,0-0.8,1.2-1.9,1.5c0,0-1.5,0.4-1.9,1.2c0,0-1.2,1.9,0,3.5l1.9,1.9
	c0,0,1.5,1.2,0.4,2.3c0,0-2.3,1.2-5.4-1.2c0,0-1.2-3.8-1.5-4.6c0,0,0.8-1.9,0.8-3.5l-1.2-4.6l1.9-3.1H106.5z"/>
<path class="st25" d="M100.4,134.1c-3.8,0-3.1,2.7-3.1,2.7c-4.6,0.4-3.5,3.8-3.5,3.8l2.7,6.5h1.2v-2.7l-0.4-0.4
	c-0.8-0.8,0-1.2,0-1.2c1.2-0.4,1.5,1.2,1.5,1.2h1.2l-1.2-5h10l-1.9-2.7L100.4,134.1z"/>
<path class="st26" d="M114.7,185.3c0,0,0.6,6.4-2.1,8l-0.4-5.8c0,0,1.2-1.5,0.8-3.8L114.7,185.3z"/>
<polyline class="st27" points="96.2,253.6 96.2,256.7 98.8,256.7 98.8,253.6 "/>
<path class="st28" d="M100,255.9l1.9,1.5c0,0,2.7-0.4,3.5,0.8c0,0,0,0,0.1,0.1c0.4,0.6-0.1,1.5-0.8,1.5h-8.5c0,0-0.8-0.4-0.8-2.3
	c0,0,0-1.5,0.4-1.9c0,0,0.8-0.4,1.2,0.4c0,0,0,0.4,1.2,0.4c0,0,0.8,0,1.2-0.4C99.2,255.9,99.6,255.5,100,255.9z"/>
<polyline class="st27" points="117.7,254 117.7,257 115,257 115,254 "/>
<path class="st28" d="M118.8,256.3l1.9,1.5c0,0,2.7-0.4,3.5,0.8c0,0,0,0,0.1,0.1c0.4,0.6-0.1,1.5-0.8,1.5H115c0,0-0.8-0.4-0.8-2.3
	c0,0,0-1.5,0.4-1.9c0,0,0.8-0.4,1.2,0.4c0,0,0,0.4,1.2,0.4c0,0,0.8,0,1.2-0.4C118.1,256.3,118.4,255.9,118.8,256.3z"/>
<polyline class="st27" points="273.3,252.1 272.3,254.3 274.5,255.3 275.5,253.1 "/>
<path class="st29" d="M271.7,253.2l-2.1,0.5c0,0-2-1.3-3.1-0.7c0,0,0,0-0.1,0c-0.6,0.3-0.5,1.2,0.1,1.5l6.8,3.2c0,0,0.8,0,1.5-1.6
	c0,0,0.6-1.2,0.4-1.7c0,0-0.5-0.6-1.1-0.1c0,0-0.1,0.3-1.1-0.1c0,0-0.6-0.3-0.8-0.7C272.3,253.5,272.1,253.1,271.7,253.2z"/>
<polyline class="st27" points="325.4,247.8 326.6,249.9 328.7,248.6 327.5,246.6 "/>
<path class="st29" d="M325.4,249.8l-0.8,2c0,0-2.2,0.9-2.3,2.2c0,0,0,0,0,0.1c0,0.7,0.7,1.1,1.3,0.7l6.4-3.9c0,0,0.4-0.6-0.5-2.1
	c0,0-0.7-1.2-1.2-1.3c0,0-0.8,0.1-0.7,0.8c0,0,0.2,0.3-0.7,0.8c0,0-0.6,0.4-1.1,0.2C326,249.5,325.5,249.3,325.4,249.8z"/>
<polyline class="st30" points="290.8,191 324.6,247.8 328.5,246.3 303.5,191 "/>
<path class="st31" d="M276.6,253.6l31.1-56.1c0,0,2.7-5,1.5-9.6l-13.8,2.7l-22.7,61.5L276.6,253.6z"/>
<path class="st23" d="M294.3,141.8c0,0-1.5,3.5,0,6.9c0,0,0.4,1.5,1.9,1.9c0,0,1.9,0,1.9,1.2c0,0,0.4,1.9-1.2,3l-3.5,2.8l3.1,4.6
	l8.5-6.1c0,0-3.5-0.4-3.5-5.4l1.5-7.3l-7.7-2.7L294.3,141.8z"/>
<path class="st32" d="M297.7,154.1c0,0-7.3,1.2-9.2,8.8c0,0-1.5,5.8-1.2,11.9c0,0-7.3-0.4-15-7.7l-2.7,3.1c0,0,7.7,8.8,17.7,9.2
	l-0.4,5.8c0,0-0.8,4.6,3.1,5.8c0,0,6.5,3.1,14.6,0.8c0,0,6.9-2.3,6.5-8.5c0,0-1.5-12.7-1.5-14.6c0,0,0.4-11.9-7.3-14.6
	c0,0-0.8,6.9-6.5,5.4C295.8,159.4,292.7,158.3,297.7,154.1z"/>
<path class="st33" d="M307,169.1c0,0-5.2,17.7-19.9,14.8l-0.1-4.4C287,179.4,298.5,182.9,307,169.1z"/>
<path class="st34" d="M293.3,142.4l0.2,0.2l6.9,0.8l-1.2,3.8h1.2c0,0,0-1.5,1.2-1.2c0,0,1.2,0.4,0,1.9v2.7l2.7-4.6
	c0,0,2.3-4.6-2.3-5.4c0,0-0.4-3.1-5.4-1.9l-2.8-1.9c-0.6-0.4-1.3-0.2-1.6,0.4l0,0.1C291.4,139,291.8,141.1,293.3,142.4z"/>
<path class="st23" d="M271,167L271,167c0.2-0.3,0.3-0.7,0.3-1c0-1.3-1-2.3-2.3-2.3s-2.3,1-2.3,2.3s1,2.3,2.3,2.3c0.2,0,0.3,0,0.4,0
	l-0.1,0c0.8,0,0.9,1.3,0.9,1.3l1.7-1.9C271,167.5,271,167,271,167z"/>
<path class="st35" d="M343.1,183.7l2.7-1.5c-2.7-10.4,1.5-16.9,1.5-16.9l-0.1,0.3c0,0.7,0.1,1.2,0.1,1.2c0.4,2.7,0.4,6.5,0.4,6.5
	c-0.4,0.7-0.6,2.7-0.7,4.4c-0.1,1.2-0.1,2.2-0.1,2.2c0,1.5-1.5,8.8-1.5,8.8c-1.9,12.7-6.5,22.7-6.5,22.7l3.8,3.8
	c5.8,6.1,16.9,4.6,16.9,4.6c12.3-0.8,16.5-4.6,16.5-4.6c-0.8-1.2-3.1-14.6-3.1-14.6c-0.4-11.1-4.6-19.6-4.6-19.6
	c3.8-5,4.2-8.8,4.2-8.8c3.1-10-3.8-17.7-3.8-17.7c-6.1-5.8-10.8-6.5-10.8-6.5c1.2,1.2,0.4,2.7,0.4,2.7c-1.5,2.7-3.5,1.5-3.5,1.5
	c-1.9-1.5,0.2-4.6,0.2-4.6c-0.9,0.4-1.8,1-1.8,1c-2.2,1.3-4.1,4-4.1,4c-2.3,2.3-5.4,9.6-5.4,9.6S339.6,170.6,343.1,183.7z
	 M361.9,171.7c-3.8-3.1-2.7-6.5-2.7-6.5c0.4-3.1,5-7.7,5-7.7c4.2,5,4.6,8.5,4.6,8.5c1.2,6.9-1.5,13.1-1.5,13.1
	C366.1,175.2,361.9,171.7,361.9,171.7z"/>
<path class="st4" d="M367.2,182.4l-1.2-1.5l-0.6,0.7c-0.3-0.2-0.7-0.2-1.1-0.2c-1.2,0.1-2.1,1.1-2,2.2c0.1,1.2,1.1,2.1,2.2,2
	s2.1-1.1,2-2.2c0-0.2-0.1-0.5-0.1-0.7L367.2,182.4z"/>
<path class="st36" d="M350.4,137.9c0,0,0.4-2.7,2.3-4.2c0,0,3.5-3.5,7.7,0.4c0,0,2.3,2.3,2.7,5.4l3.4,12.9c0,0-5.7-4.1-8.4-4.5
	c-2.7-0.4-3.6-9.4-3.6-9.4L350.4,137.9z"/>
<polygon class="st17" points="219.6,165.1 233.2,135.1 203.1,103.9 188.8,132 "/>
<path class="st37" d="M101.1,150.6c0,0,7.8,2.7,9.7,13.8l1.7,15.2l1.4,1.7l1.2-0.9c0,0,0-4.1-0.4-7.2c0,0,6.9,2.7,13.1,1.9l0.8-3.8
	c0,0-10.8-0.8-14.6-3.8c0,0-1.2-6.5-3.1-10.4c0,0-3.8-7.7-9.7-7.5L101.1,150.6z"/>
<polygon class="st3" points="133.8,191.4 121.9,183.3 128.3,154 140.2,162.1 "/>
<path class="st38" d="M131.1,181.3l2-0.3c0.2-1.2,1.2-2,2.5-2c1.4,0,2.5,1.1,2.5,2.5c0,1.4-1.1,2.5-2.5,2.5c-0.7,0-1.2-0.3-1.7-0.7
	l-2,0.3L131.1,181.3z"/>
<path class="st37" d="M86.9,198.6c0,0,12.7,3.1,12.3-10.4l0.4-11.9c0,0,10.8,14.6,32.3,7.7l-0.8-2.7c0,0-25,5-31.5-15.8
	c0,0-0.8-7.3-1.2-10.8l-1.5-4.6l0.2-0.6c0,0-6,2.2-8.3,10.2c0,0-3.1,12.3-2.7,18.8L86.9,198.6z"/>
<g>
	<path class="st39" d="M411.5,147.8c0,0-0.3-0.3-0.3-0.9c0,0,0.5-1.2-0.5-2c0,0-1-0.7-2.2-0.5v1.5l1.2,2.2l0.5,0.4L411.5,147.8z"/>
	<path class="st40" d="M408.5,149.2l2.1-2c0.1-0.1,0.1-0.3,0-0.5l-3.5-3.6c-0.1-0.1-0.3-0.1-0.5,0l-2.1,2c-0.1,0.1-0.1,0.3,0,0.5
		l3.5,3.6C408.1,149.3,408.3,149.3,408.5,149.2z"/>
	<path class="st41" d="M410.3,155.8c0,0,4.6,3.4,3.4,0l-3.9-7l1.6-1.1l0.4-0.3c0,0,4.6,7.6,5.5,9.9c0.7,2.1,1.1,4-1.5,4.1
		c0,0-2.9-0.2-3.9-1"/>
	<path class="st42" d="M397.6,250.9l3.1,0.4l0.8-54.9c0,0,13.1,53.4,14.2,54.6h2.7l-7.9-70.5l-19.8,0.6c0,0-1.2,9.2,0.8,19.6
		L397.6,250.9z"/>
	<path class="st3" d="M401.5,151.4l1.5,0.4l7.7,5.4l0.4,25c0,0-3.8,4.2-10.8,2.7l-1.5-30.4"/>
	<path class="st41" d="M412.6,157.5c0,0-8.3-6.2-11.5-7.3l0.4,1.2c0,0,7.3,3.1,8.1,8.1c0,0,0.8,3.1,0,12.3c0,0-0.4,4.6,0.8,6.1
		l0.8,11.1c0,0,1.9-1.5,1.2-8.5l-0.4-18.1"/>
	<path class="st20" d="M398.5,251.3l-0.1,6.5h4.6c0,0,0-3.5-2.7-4.6v-1.9"/>
	<path d="M398.8,253.2c0,0-1.2-0.4-1.2,1.2v3.8c0,0.2,0.2,0.4,0.4,0.4h8.3c0.3,0,0.5-0.3,0.3-0.6c-0.4-0.7-1.3-1.6-3.6-1.4
		c0,0-0.4,0.5-1,0.8c-0.4,0.2-0.9-0.1-1-0.6C400.9,255.9,400.4,254.3,398.8,253.2z"/>
	<path class="st20" d="M416.1,250.9l-0.1,6.5h4.6c0,0,0-3.5-2.7-4.6v-1.9"/>
	<path d="M416.5,252.8c0,0-1.2-0.4-1.2,1.2v3.8c0,0.2,0.2,0.4,0.4,0.4h8.3c0.3,0,0.5-0.3,0.3-0.6c-0.4-0.7-1.3-1.6-3.6-1.4
		c0,0-0.4,0.5-1,0.8c-0.4,0.2-0.9-0.1-1-0.6C418.6,255.6,418.1,253.9,416.5,252.8z"/>
	<path class="st23" d="M406.1,140.6c0,0,1.5,7.7-3.8,7.7h-0.4c0,0-0.8,1.9-0.4,2.7c0,0,1.2,1.5,2.3,2.3c0,0,1.9,1.5,0,3.1
		c0,0-2.3,0.8-3.5-0.4c0,0-1.2-6.1-1.9-6.9l1.5-7.7l3.8-1.9L406.1,140.6z"/>
	<path class="st43" d="M406.3,142.3l-6.4-1l-0.4,11l-7.7-2.5c0,0,1.5-5.8,3.8-10.4c0,0,1.9-4.2,7.7-2.3
		C403.4,137.2,406.9,138.3,406.3,142.3z"/>
	<path class="st41" d="M401.5,159.8c0,0-0.4-4.6-1.9-7.7l-3.1-0.8c0,0-1.2,0.8-9.2,8.5c0,0-7.7,5.8-3.8,16.9c0,0,3.1,6.5,5.8,8.8
		v6.1c0,0,6.9,1.9,10.4-3.1c0,0,1.9-1.9,1.9-9.2C401.5,179.4,401.9,167.5,401.5,159.8z M389.2,181c-3.1-2.7-3.1-8.8-3.1-8.8
		c0.4-6.1,4.6-8.1,4.6-8.1L389.2,181z"/>
	<path class="st17" d="M382.3,172.9"/>
	<polyline class="st3" points="397.7,184.5 404.8,180.4 414,196.2 390.8,209.6 381.6,193.8 389.6,189.4 	"/>
	<path class="st23" d="M391.5,187.5l1.2-1.9c0,0,0.4,0.4,1.5,0.4c0,0,2.7,0.4,1.5,3.1c0,0-1.5,1.9-3.1,0
		C392.6,189,392.3,187.9,391.5,187.5z"/>
</g>
<path class="st2" d="M29.1,164.1"/>
<g>
	<rect x="128.9" y="38.1" class="st44" width="8.6" height="15.6"/>
	<rect x="137.4" y="38.1" class="st3" width="8.6" height="15.6"/>
	<rect x="146" y="38.1" class="st45" width="8.6" height="15.6"/>
</g>
</svg>
