<svg id="Calque_1" data-name="Calque 1" xmlns="http://www.w3.org/2000/svg" viewBox="0 0 475.05 257.24"><defs><style>.cls-1{fill:#344993;}.cls-2{fill:#9bb8cc;opacity:0.25;}.cls-3{fill:#12123a;}.cls-11,.cls-4{fill:#fff;}.cls-5{fill:#5d9119;}.cls-6{fill:#171c23;stroke:#171c23;stroke-miterlimit:10;stroke-width:2.33px;}.cls-7{fill:#939393;}.cls-8,.cls-9{fill:#5f6c75;}.cls-9{opacity:0.43;}.cls-10{fill:#4054b2;}.cls-11{font-size:10.39px;font-family:AauxProBlack, Aaux ProBlack;}.cls-12{letter-spacing:-0.02em;}.cls-13{letter-spacing:-0.03em;}.cls-14{fill:#ff927c;}.cls-15{fill:#ff8a72;}.cls-16{fill:#d8450b;}.cls-17{fill:#ff8d71;}.cls-18{fill:#dd0a2d;}.cls-19{fill:#878787;}.cls-20{fill:#989899;}.cls-21{fill:#ffd44d;}.cls-22{fill:#ffb655;}.cls-23{fill:#26265a;}</style></defs><title>illus1</title><ellipse class="cls-1" cx="237.05" cy="239.24" rx="112" ry="18"/><path class="cls-2" d="M7,69s3.58-6.13,9.7-5.62c0,0,11.24-15.82,21.44,2.56,0,0,.52-15.32,15.83-16.34,0,0,12.25-1.53,15.83,10.21,0,0,15.31-8.68,19.39,7.66,0,0,0-4.6,6.64-1.53,0,0,6.64-8.68,15.83,2" transform="translate(-6.95 -8.76)"/><path class="cls-2" d="M377.35,28.22s3.57-6.12,9.7-5.61c0,0,11.23-15.83,21.44,2.55,0,0,.51-15.32,15.82-16.34,0,0,12.26-1.53,15.83,10.21,0,0,15.31-8.68,19.4,7.66,0,0,0-4.59,6.63-1.53,0,0,6.64-8.68,15.83,2" transform="translate(-6.95 -8.76)"/><path class="cls-2" d="M240.93,41.26s3.57-6.13,9.7-5.62c0,0,11.23-15.83,21.44,2.55,0,0,.51-15.31,15.82-16.33,0,0,12.25-1.54,15.83,10.21,0,0,15.31-8.68,19.4,7.65,0,0,0-4.59,6.63-1.53,0,0,6.64-8.68,15.83,2" transform="translate(-6.95 -8.76)"/><path class="cls-3" d="M137.42,243.71l4.08.51,1-73s17.36,71,18.89,72.49H165L154.49,150l-26.26.77a95.25,95.25,0,0,0,1,26Z" transform="translate(-6.95 -8.76)"/><path class="cls-4" d="M142.52,111.49l2,.51,10.21,7.15.52,33.18s-5.11,5.62-14.3,3.58l-2-40.33" transform="translate(-6.95 -8.76)"/><path class="cls-5" d="M142.52,111.49s9.7,4.09,10.72,10.72c0,0,1,4.09,0,16.34,0,0-.51,6.13,1,8.17l1,14.8s2.55-2,1.53-11.23l-.51-24s10.72,4.08,18.37-3.57a27,27,0,0,0,7.66-18.38h-3.06s-1.53,9.19-5.62,12.25c0,0-8.16,7.15-16.33,3.06,0,0-11-8.18-15.32-9.7Z" transform="translate(-6.95 -8.76)"/><rect class="cls-6" x="189.48" y="50.67" width="96.18" height="183.51" rx="15.51"/><path class="cls-7" d="M257.33,232.46H234.68c-1.66,0-2.18-.52-2.18-1.16a1.17,1.17,0,0,1,1.16-1.17h22.65a1.17,1.17,0,0,1,1.16,1.17C257.47,231.94,257,232.46,257.33,232.46Z" transform="translate(-6.95 -8.76)"/><rect class="cls-8" x="210.06" y="135.39" width="57.39" height="4.89"/><rect class="cls-9" x="210.06" y="132.01" width="57.39" height="4.89"/><rect class="cls-10" x="215.25" y="150" width="47" height="14.74" rx="7.37"/><text class="cls-11" transform="translate(226.67 161.55) scale(1 0.99)"><tspan class="cls-12">V</tspan><tspan class="cls-13" x="6.29" y="0">O</tspan><tspan x="12.88" y="0">TE</tspan></text><path class="cls-7" d="M256.35,72.66H231.12a1.3,1.3,0,1,1,0-2.59h25.23a1.3,1.3,0,1,1,0,2.59Z" transform="translate(-6.95 -8.76)"/><path class="cls-7" d="M262.18,74.86a3.09,3.09,0,1,1,3.08-3.09A3.09,3.09,0,0,1,262.18,74.86Zm0-4a.91.91,0,1,0,.9.9A.91.91,0,0,0,262.18,70.87Z" transform="translate(-6.95 -8.76)"/><polyline class="cls-4" points="235.48 140.13 224.74 136.43 241.15 88.77 275.54 100.61 261.89 140.24"/><path class="cls-14" d="M138.51,244.22l-.07,8.68h6.12s0-4.59-3.57-6.13v-2.55" transform="translate(-6.95 -8.76)"/><path d="M139,246.77s-1.53-.51-1.53,1.54v5.1a.51.51,0,0,0,.51.51h11a.51.51,0,0,0,.45-.75c-.49-.87-1.73-2.14-4.82-1.8a2.84,2.84,0,0,1-1.29,1,1,1,0,0,1-1.34-.79A7.07,7.07,0,0,0,139,246.77Z" transform="translate(-6.95 -8.76)"/><path class="cls-14" d="M162,243.71l-.08,8.68h6.13s0-4.59-3.58-6.13v-2.55" transform="translate(-6.95 -8.76)"/><path d="M162.43,246.26s-1.53-.51-1.53,1.54v5.1a.51.51,0,0,0,.51.51h11a.51.51,0,0,0,.45-.75c-.48-.87-1.73-2.14-4.81-1.8a2.9,2.9,0,0,1-1.29,1,1,1,0,0,1-1.34-.79A7.11,7.11,0,0,0,162.43,246.26Z" transform="translate(-6.95 -8.76)"/><path class="cls-15" d="M148.65,97.2s2,10.21-5.11,10.21H143s-1,2.55-.51,3.57a15.5,15.5,0,0,0,3.07,3.07s2.55,2,0,4.08c0,0-3.07,1-4.6-.51,0,0-1.53-8.17-2.55-9.19l2-10.21,5.11-2.55Z" transform="translate(-6.95 -8.76)"/><path class="cls-16" d="M148.92,99.49l-8.44-1.27L140,112.79l-10.19-3.34a84.89,84.89,0,0,1,5.11-13.78s2.55-5.62,10.21-3.06A6.06,6.06,0,0,1,148.92,99.49Z" transform="translate(-6.95 -8.76)"/><path class="cls-5" d="M142.52,122.73S142,116.6,140,112.52l-4.08-1s-1.53,1-12.26,11.24c0,0-10.21,7.65-5.1,22.46,0,0,4.08,8.68,7.66,11.74v8.17s9.19,2.55,13.78-4.09c0,0,2.55-2.55,2.55-12.25C142.52,148.76,143,132.94,142.52,122.73ZM126.19,150.8c-4.09-3.57-4.09-11.74-4.09-11.74.51-8.17,6.13-10.72,6.13-10.72Z" transform="translate(-6.95 -8.76)"/><path class="cls-15" d="M129.25,159.48l1.53-2.55a3,3,0,0,0,2,.51s3.58.51,2.05,4.08c0,0-2.05,2.56-4.09,0A4,4,0,0,0,129.25,159.48Z" transform="translate(-6.95 -8.76)"/><path class="cls-15" d="M185.91,101.28s-.51,1-3.57,2v1h-2.27l-.79-3.07s-1.53-3.06,1-4.59C180.3,96.69,186.94,93.63,185.91,101.28Z" transform="translate(-6.95 -8.76)"/><polyline class="cls-17" points="273.15 237.12 271.79 239.98 274.67 241.32 276 238.44"/><path class="cls-18" d="M277.9,247.35l-2.82.68s-2.68-1.74-4.08-.89l-.1.05a1.12,1.12,0,0,0,.15,2l9,4.21s1,0,2-2.08c0,0,.76-1.64.55-2.24a1,1,0,0,0-1.43-.17s-.19.41-1.42-.16a2.23,2.23,0,0,1-1-1A.63.63,0,0,0,277.9,247.35Z" transform="translate(-6.95 -8.76)"/><polyline class="cls-17" points="342.35 231.37 343.97 234.09 346.69 232.46 345.05 229.74"/><path class="cls-18" d="M349.3,242.78l-1,2.72s-2.94,1.25-3,2.88a.5.5,0,0,0,0,.11,1.12,1.12,0,0,0,1.71,1l8.54-5.16s.54-.85-.63-2.79c0,0-.93-1.55-1.55-1.7a1,1,0,0,0-.93,1.09s.23.38-.93,1.08a2.27,2.27,0,0,1-1.4.32A.62.62,0,0,0,349.3,242.78Z" transform="translate(-6.95 -8.76)"/><polyline class="cls-19" points="296.37 155.83 341.3 231.38 346.4 229.34 313.22 155.83"/><path class="cls-20" d="M284.44,247.8l41.35-74.54s3.57-6.63,2-12.76l-18.38,3.58-30.12,81.67Z" transform="translate(-6.95 -8.76)"/><path class="cls-15" d="M307.92,99.24a12.37,12.37,0,0,0,0,9.19,3.71,3.71,0,0,0,2.55,2.55s2.56,0,2.56,1.54a4.1,4.1,0,0,1-1.53,4l-4.6,3.68L311,126.3l11.23-8.17s-4.6-.51-4.6-7.15l2-9.7-10.21-3.57Z" transform="translate(-6.95 -8.76)"/><path class="cls-21" d="M312.52,115.58a15.89,15.89,0,0,0-12.26,11.74,56,56,0,0,0-1.53,15.82s-9.7-.51-19.91-10.2L275.25,137s10.21,11.74,23.48,12.25l-.51,7.66s-1,6.12,4.09,7.66a29.94,29.94,0,0,0,19.4,1s9.18-3.07,8.67-11.23c0,0-2-16.85-2-19.4,0,0,.51-15.83-9.7-19.4,0,0-1,9.19-8.68,7.15C310,122.73,305.88,121.19,312.52,115.58Z" transform="translate(-6.95 -8.76)"/><path class="cls-22" d="M324.77,135.49s-6.91,23.46-26.43,19.64l-.12-5.86S313.54,153.87,324.77,135.49Z" transform="translate(-6.95 -8.76)"/><path class="cls-23" d="M306.63,100l.27.23,9.19,1-1.53,5.11h1.53s0-2,1.53-1.53c0,0,1.53.51,0,2.55V111l3.58-6.12s3.06-6.13-3.07-7.15c0,0-.51-4.08-7.14-2.55l-3.68-2.58a1.45,1.45,0,0,0-2.15.59l0,.07A5.78,5.78,0,0,0,306.63,100Z" transform="translate(-6.95 -8.76)"/><path class="cls-15" d="M277,132.8h0a3,3,0,0,0,.35-1.4,3.06,3.06,0,1,0-3.06,3.07,2.88,2.88,0,0,0,.59-.06l-.08.06c1,0,1.2,1.76,1.2,1.76l2.2-2.52C277,133.47,277,132.8,277,132.8Z" transform="translate(-6.95 -8.76)"/><polygon class="cls-4" points="196.51 115.07 211.09 82.81 178.8 49.31 163.34 79.55 196.51 115.07"/><path class="cls-15" d="M185.79,101.51s-.51,1-3.58,2v1h-2.27l-.79-3.06a14.91,14.91,0,0,1,3.06-2.13S186.81,93.85,185.79,101.51Z" transform="translate(-6.95 -8.76)"/></svg>