<svg id="Calque_1" data-name="Calque 1" xmlns="http://www.w3.org/2000/svg" viewBox="0 0 168.24 38.56"><defs><style>.cls-1{fill:#fff;}.cls-2{fill:#ff2f3e;}</style></defs><title>logo-civicpower</title><path class="cls-1" d="M51.1,29a13.5,13.5,0,0,1-2.6,2.19A7.17,7.17,0,0,1,40,29.82a8,8,0,0,1-1.82-5.41A8,8,0,0,1,40,19a6.58,6.58,0,0,1,5.21-2.24,6.36,6.36,0,0,1,3.26.84,12.07,12.07,0,0,1,2.6,2.18l-2.93,2.69c-1.1-1.21-2.07-1.82-2.93-1.82-1.94,0-2.9,1.25-2.9,3.77s1,3.76,2.9,3.76c.86,0,1.83-.6,2.93-1.82Z" transform="translate(-8.81 -7.33)"/><path class="cls-1" d="M58.1,12.35a2.31,2.31,0,1,1-3.93-1.63,2.3,2.3,0,0,1,3.93,1.63Zm-.33,19.41h-4V17h4Z" transform="translate(-8.81 -7.33)"/><path class="cls-1" d="M74.82,17,69.14,31.76H65.85L60.19,17h4.37l2.84,8.94,3-8.94Z" transform="translate(-8.81 -7.33)"/><path class="cls-1" d="M81.52,12.35a2.31,2.31,0,1,1-3.93-1.63,2.3,2.3,0,0,1,3.93,1.63Zm-.33,19.41h-4V17h4Z" transform="translate(-8.81 -7.33)"/><path class="cls-1" d="M97.1,29a13.21,13.21,0,0,1-2.6,2.19A7.16,7.16,0,0,1,86,29.82a8,8,0,0,1-1.83-5.41A7.94,7.94,0,0,1,86,19a6.54,6.54,0,0,1,5.2-2.24,6.33,6.33,0,0,1,3.26.84,11.83,11.83,0,0,1,2.6,2.18l-2.93,2.69c-1.09-1.21-2.07-1.82-2.93-1.82-1.93,0-2.9,1.25-2.9,3.77s1,3.76,2.9,3.76c.86,0,1.84-.6,2.93-1.82Z" transform="translate(-8.81 -7.33)"/><path class="cls-1" d="M112.15,24.5a9.05,9.05,0,0,1-1.41,5.35,5.58,5.58,0,0,1-4.87,2.24,3.76,3.76,0,0,1-2-.56v6.81H99.8V17h3.32l.15.6a4.09,4.09,0,0,1,2.63-.93,5.48,5.48,0,0,1,4.87,2.39A9.56,9.56,0,0,1,112.15,24.5Zm-4.07,0a6.64,6.64,0,0,0-.33-2.43,1.84,1.84,0,0,0-1.88-1.25c-1.34,0-2,.62-2,1.88v3.56q0,1.89,2,1.89a1.83,1.83,0,0,0,1.88-1.23A6.62,6.62,0,0,0,108.08,24.5Z" transform="translate(-8.81 -7.33)"/><path class="cls-1" d="M127.64,24.41a8.68,8.68,0,0,1-1.55,5.47,7.16,7.16,0,0,1-10.29,0,8.62,8.62,0,0,1-1.56-5.47,8.76,8.76,0,0,1,1.56-5.51,7.16,7.16,0,0,1,10.29,0A8.82,8.82,0,0,1,127.64,24.41Zm-4.13,0c0-2.5-.85-3.74-2.57-3.74s-2.57,1.24-2.57,3.74.86,3.71,2.57,3.71S123.51,26.88,123.51,24.41Z" transform="translate(-8.81 -7.33)"/><path class="cls-1" d="M150.73,17,145.8,31.76h-3.38l-2.81-7.68-2.82,7.68h-3.37L128.54,17h4.37l2.27,8.52L138.11,17h3l2.84,8.55L146.37,17Z" transform="translate(-8.81 -7.33)"/><path class="cls-1" d="M164.67,25.09v.27h-8.55c.18,1.9,1.13,2.84,2.87,2.84a3.92,3.92,0,0,0,2.78-1.58l2.75,2.72a11.11,11.11,0,0,1-2.48,2A6.65,6.65,0,0,1,159,32a6.57,6.57,0,0,1-5.21-2.21,8,8,0,0,1-1.82-5.41A8.16,8.16,0,0,1,153.69,19a6.31,6.31,0,0,1,5.12-2.24A5.32,5.32,0,0,1,162,17.83a6,6,0,0,1,2.15,2.66A13.22,13.22,0,0,1,164.67,25.09Zm-3.77-2.27c-.2-1.53-1-2.3-2.27-2.3a2.39,2.39,0,0,0-2.48,2.3Z" transform="translate(-8.81 -7.33)"/><path class="cls-1" d="M177.05,17.74l-1.49,3.14a4.4,4.4,0,0,0-1.74-.42,1.85,1.85,0,0,0-2.12,2.06v9.24h-4V17H171l.15.63a4.33,4.33,0,0,1,2.72-1A5.37,5.37,0,0,1,177.05,17.74Z" transform="translate(-8.81 -7.33)"/><polygon class="cls-2" points="19.09 0 0 17.24 8.82 18.79 5.61 38.56 24.8 21.48 15.46 19.83 19.09 0"/></svg>