<?xml version="1.0" encoding="utf-8"?>
<!-- Generator: Adobe Illustrator 23.0.1, SVG Export Plug-In . SVG Version: 6.00 Build 0)  -->
<svg version="1.1" xmlns="http://www.w3.org/2000/svg" xmlns:xlink="http://www.w3.org/1999/xlink" x="0px" y="0px"
	 viewBox="0 0 30 30" style="enable-background:new 0 0 30 30;" xml:space="preserve">
<style type="text/css">
	.st0{display:none;}
	.st1{display:inline;fill:#606060;}
	.st2{fill:#FFFFFF;}
	.st3{display:inline;}
	.st4{display:inline;fill:#FFFFFF;}
</style>
<g id="Calque_2" class="st0">
	<rect x="-12" y="-10" class="st1" width="54" height="49"/>
</g>
<g id="Calque_3">
	<path class="st2" d="M15,0C6.7,0,0,6.7,0,15c0,8.3,6.7,15,15,15s15-6.7,15-15C30,6.7,23.3,0,15,0z M21.3,14.2v3.3
		c0,1.1-0.5,2.2-1.3,3l0.7,6.8h-9.3l0.6-7c-0.5-0.7-4.7-5-4.7-5L5.7,13c-0.5-0.5-0.5-1.4,0.1-1.9c0.5-0.5,1.4-0.5,1.9,0.1l1.7,2.3
		c0,0,0.5,0.1,1.2,0.4l0,0v-1.6V5.2c0-0.7,0.6-1.3,1.3-1.3c0.7,0,1.2,0.5,1.3,1.1l0,0V3.4c0-0.7,0.6-1.3,1.3-1.3
		c0.7,0,1.3,0.6,1.3,1.3v1.4L16,4.8c0.2-0.5,0.7-0.9,1.3-0.9c0.7,0,1.3,0.6,1.3,1.3v1.7l0,0c0.1-0.7,0.6-1.2,1.3-1.2
		c0.7,0,1.3,0.6,1.3,1.3V14.2z"/>
</g>
<g id="Calque_4" class="st0">
	<g class="st3">
		<path class="st2" d="M16.9,17.9c0.9-0.7,1.4-1.8,1.3-3c-0.2-1.5-1.4-2.6-2.8-2.8c-2-0.2-3.6,1.3-3.6,3.2c0,1.1,0.5,2,1.3,2.6
			c-1.5,0.6-2.5,2.3-2.5,3.9c0,0.1,0.1,0.1,0.1,0.1h8.7c0.1,0,0.1-0.1,0.1-0.1C19.4,20.3,18.4,18.6,16.9,17.9z"/>
		<path class="st2" d="M15,0C6.7,0,0,6.7,0,15c0,8.3,6.7,15,15,15s15-6.7,15-15C30,6.7,23.3,0,15,0z M15,26c-4.8,0-8.6-3.9-8.6-8.6
			c0-2.6,1.2-5,3-6.5V7.5c0-3,2.5-5.5,5.5-5.5H15c3,0,5.5,2.5,5.5,5.5v3.3c1.9,1.6,3.1,4,3.1,6.7C23.6,22.2,19.8,26,15,26z"/>
		<path class="st2" d="M17.6,9.2v-2c0-1.5-1.2-2.7-2.7-2.7h-0.1c-1.5,0-2.7,1.2-2.7,2.7l0,2.1C13,9,14,8.8,15,8.8
			C15.9,8.8,16.8,8.9,17.6,9.2z"/>
	</g>
</g>
<g id="Calque_1" class="st0">
	<path class="st4" d="M15,0C6.7,0,0,6.7,0,15c0,8.3,6.7,15,15,15s15-6.7,15-15C30,6.7,23.3,0,15,0z M22.8,12.3l-0.4,0V24
		c0,0.6-0.4,1-1,1h-4.5v-7h-4v7H8.4c-0.6,0-1-0.4-1-1V12.3l-0.4,0c-1,0-1.4-1.1-0.8-1.8l7.9-7.9c0.4-0.4,1.1-0.4,1.5,0l7.9,7.9
		C24.2,11.1,23.8,12.3,22.8,12.3z"/>
</g>
</svg>
