<?xml version="1.0" encoding="utf-8"?>
<!-- Generator: Adobe Illustrator 23.0.1, SVG Export Plug-In . SVG Version: 6.00 Build 0)  -->
<svg version="1.1" id="Calque_1" xmlns="http://www.w3.org/2000/svg" xmlns:xlink="http://www.w3.org/1999/xlink" x="0px" y="0px"
	 viewBox="0 0 102 34" style="enable-background:new 0 0 102 34;" xml:space="preserve">
<style type="text/css">
	.st0{fill:none;stroke:#FFFFFF;stroke-width:1.3333;stroke-miterlimit:10;}
	.st1{fill:#FFFFFF;}
</style>
<path class="st0" d="M84.2,31.5h-66c-8,0-14.5-6.5-14.5-14.5v0c0-8,6.5-14.5,14.5-14.5h66c8,0,14.5,6.5,14.5,14.5v0
	C98.7,25,92.2,31.5,84.2,31.5z"/>
<g>
	<path class="st1" d="M27.1,21c-0.7-0.2-1.2-0.5-1.5-0.9l0.4-0.8c0.4,0.4,0.8,0.6,1.4,0.9c0.6,0.2,1.2,0.3,1.8,0.3
		c0.9,0,1.5-0.2,2-0.5c0.4-0.3,0.7-0.7,0.7-1.3c0-0.4-0.1-0.7-0.4-0.9c-0.2-0.2-0.5-0.4-0.9-0.5c-0.3-0.1-0.8-0.3-1.4-0.4
		c-0.7-0.2-1.3-0.4-1.8-0.5c-0.4-0.2-0.8-0.4-1.1-0.8c-0.3-0.4-0.5-0.8-0.5-1.4c0-0.5,0.1-0.9,0.4-1.4c0.3-0.4,0.7-0.7,1.2-1
		c0.5-0.2,1.2-0.4,2-0.4c0.6,0,1.1,0.1,1.6,0.2c0.5,0.2,1,0.4,1.4,0.6l-0.4,0.8c-0.4-0.3-0.8-0.5-1.3-0.6c-0.5-0.1-0.9-0.2-1.4-0.2
		c-0.9,0-1.5,0.2-1.9,0.5s-0.7,0.8-0.7,1.3c0,0.4,0.1,0.7,0.4,0.9c0.2,0.2,0.5,0.4,0.9,0.5s0.8,0.3,1.4,0.4c0.7,0.2,1.3,0.4,1.7,0.5
		s0.8,0.4,1.1,0.8c0.3,0.3,0.5,0.8,0.5,1.4c0,0.5-0.1,0.9-0.4,1.4c-0.3,0.4-0.7,0.7-1.2,1c-0.6,0.2-1.2,0.4-2,0.4
		C28.5,21.4,27.8,21.3,27.1,21z"/>
	<path class="st1" d="M41.5,14v7.4h-1V20c-0.3,0.4-0.6,0.8-1.1,1c-0.5,0.2-1,0.4-1.6,0.4c-1,0-1.7-0.3-2.3-0.8
		c-0.6-0.5-0.8-1.3-0.8-2.4V14h1v4.2c0,0.8,0.2,1.4,0.6,1.8s0.9,0.6,1.6,0.6c0.8,0,1.4-0.2,1.8-0.7c0.4-0.5,0.7-1.1,0.7-2V14H41.5z"
		/>
	<path class="st1" d="M44.3,12.1c-0.1-0.1-0.2-0.3-0.2-0.5c0-0.2,0.1-0.3,0.2-0.5c0.1-0.1,0.3-0.2,0.5-0.2c0.2,0,0.4,0.1,0.5,0.2
		c0.1,0.1,0.2,0.3,0.2,0.5c0,0.2-0.1,0.4-0.2,0.5c-0.1,0.1-0.3,0.2-0.5,0.2C44.6,12.3,44.4,12.3,44.3,12.1z M44.3,14h1v7.4h-1V14z"
		/>
	<path class="st1" d="M54.3,14L51,21.3h-1L46.7,14h1l2.8,6.3l2.8-6.3H54.3z"/>
	<path class="st1" d="M60.2,14.6c0.5,0.5,0.8,1.2,0.8,2.1v4.6h-1v-1.1c-0.2,0.4-0.6,0.7-1,0.9c-0.4,0.2-1,0.3-1.5,0.3
		c-0.8,0-1.5-0.2-2-0.6c-0.5-0.4-0.7-0.9-0.7-1.6c0-0.6,0.2-1.1,0.7-1.5s1.2-0.6,2.2-0.6H60v-0.4c0-0.6-0.2-1.1-0.5-1.4
		c-0.4-0.3-0.9-0.5-1.6-0.5c-0.5,0-0.9,0.1-1.3,0.2c-0.4,0.2-0.8,0.4-1.1,0.6L55,14.9c0.4-0.3,0.8-0.6,1.3-0.7
		c0.5-0.2,1.1-0.3,1.7-0.3C59,13.9,59.7,14.1,60.2,14.6z M59.1,20.2c0.4-0.3,0.7-0.6,0.9-1.1v-1.2h-2.3c-1.3,0-1.9,0.4-1.9,1.3
		c0,0.4,0.2,0.8,0.5,1s0.8,0.4,1.4,0.4C58.2,20.6,58.7,20.5,59.1,20.2z"/>
	<path class="st1" d="M69.7,14.7c0.5,0.5,0.8,1.3,0.8,2.3v4.3h-1v-4.2c0-0.8-0.2-1.3-0.6-1.8c-0.4-0.4-0.9-0.6-1.6-0.6
		c-0.8,0-1.4,0.2-1.9,0.7c-0.5,0.5-0.7,1.1-0.7,2v3.9h-1V14h1v1.4c0.3-0.4,0.6-0.8,1.1-1c0.5-0.2,1-0.4,1.7-0.4
		C68.4,13.9,69.1,14.2,69.7,14.7z"/>
	<path class="st1" d="M77.1,20.9c-0.2,0.2-0.4,0.3-0.7,0.4c-0.3,0.1-0.6,0.1-0.9,0.1c-0.7,0-1.2-0.2-1.6-0.6
		c-0.4-0.4-0.6-0.9-0.6-1.6v-4.5H72V14h1.3v-1.6h1V14h2.2v0.8h-2.2v4.4c0,0.4,0.1,0.8,0.3,1s0.5,0.3,0.9,0.3c0.2,0,0.4,0,0.6-0.1
		s0.4-0.2,0.5-0.3L77.1,20.9z"/>
</g>
</svg>
